<svg xmlns="http://www.w3.org/2000/svg" xmlns:xlink="http://www.w3.org/1999/xlink" width="315" height="380" viewBox="0 0 315 380">
  <defs>
    <clipPath id="clip-path">
      <rect id="Rectángulo_402717" data-name="Rectángulo 402717" width="315" height="216.306" fill="none"/>
    </clipPath>
    <clipPath id="clip-path-3">
      <rect id="Rectángulo_402713" data-name="Rectángulo 402713" width="8.619" height="20.597" fill="none"/>
    </clipPath>
    <clipPath id="clip-path-4">
      <rect id="Rectángulo_402714" data-name="Rectángulo 402714" width="12.927" height="22.054" fill="none"/>
    </clipPath>
    <clipPath id="clip-path-5">
      <rect id="Rectángulo_402715" data-name="Rectángulo 402715" width="31.881" height="17.892" fill="none"/>
    </clipPath>
    <clipPath id="clip-path-6">
      <rect id="Rectángulo_402733" data-name="Rectángulo 402733" width="66.621" height="74.313" fill="none"/>
    </clipPath>
  </defs>
  <g id="Grupo_1101094" data-name="Grupo 1101094" transform="translate(10929 6689)">
    <g id="Grupo_1101091" data-name="Grupo 1101091" transform="translate(-140.469 1804.339)">
      <path id="Trazado_876257" data-name="Trazado 876257" d="M102.251,57A45.251,45.251,0,1,1,57,11.75,45.251,45.251,0,0,1,102.251,57" transform="translate(-10768.879 -8253.225)" fill="#31a8ff"/>
      <circle id="Elipse_11578" data-name="Elipse 11578" cx="45.251" cy="45.251" r="45.251" transform="translate(-10743.94 -8239.093)" fill="none" stroke="#5b2ccf" stroke-linecap="round" stroke-linejoin="round" stroke-width="2"/>
      <circle id="Elipse_11579" data-name="Elipse 11579" cx="21.831" cy="21.831" r="21.831" transform="translate(-10720.521 -8215.674)" fill="none" stroke="#5b2ccf" stroke-linecap="round" stroke-linejoin="round" stroke-width="2"/>
    </g>
    <rect id="Rectángulo_402728" data-name="Rectángulo 402728" width="315" height="380" transform="translate(-10929 -6689)" fill="none"/>
    <g id="Grupo_1101056" data-name="Grupo 1101056" transform="translate(-10929 -6607)">
      <g id="Grupo_1101055" data-name="Grupo 1101055" clip-path="url(#clip-path)">
        <g id="Grupo_1101054" data-name="Grupo 1101054">
          <g id="Grupo_1101053" data-name="Grupo 1101053" clip-path="url(#clip-path)">
            <path id="Trazado_876040" data-name="Trazado 876040" d="M57.949,164.009H336.165s13.136-28.15-2.815-40.817-38-15.483-25.8-50.2-5.63-82.573-59.584-71.313S170.08,35.457,142.4,18.1,36.367,12.937,52.788,62.2,45.751,129.29,49.5,146.181s8.445,17.828,8.445,17.828" transform="translate(-27.453 0)" fill="#fdefec"/>
            <path id="Trazado_876041" data-name="Trazado 876041" d="M204.866,114.8l.069-1.351-1.136.015c-5.263.064-27.086.311-27.737-.015-.74-.37-.74-7.582-.37-8.323.32-.64,21.925-.174,27.786-.035l1.457.035a7.42,7.42,0,0,0-.37-2.412,39.335,39.335,0,0,0-6.242-.266c.206-1.246,1.544-9.91-.853-10.942l5.452.018-.134-2.16s-4.958,0-5.488.011c-3.858.047-19.854.228-20.331-.011-.543-.272-.543-6.241-.271-6.783.234-.469,16.071-.127,20.367-.026.675.016,5.723.026,5.723.026a6.752,6.752,0,0,0-.271-2.016c-.2-.4-28.766-.167-42.1.119.3-2.02.387-2.416.143-2.66-1.4-1.4-32.121-.465-32.121-.465l-1.862,3.259-27.932.465s0-2.793-.465-3.259-24.207,0-26.07.466c-1.646.411-7.654,29.547-9.028,36.311H45.574v6.983H67.557c.142,1.76.482,3.919,1.294,4.189,1.4.466,21.88,0,21.88,0s-.465,12.353.465,12.819,6.052,0,6.052,0V121.782h82.5c.142,1.76.482,3.919,1.294,4.189,1.4.466,21.88,0,21.88,0s-.465,12.353.465,12.819,6.052,0,6.052,0V121.782h23.742V114.8ZM158.4,91.974c7.97-.193,17-.32,17.211.089.377.737.45,8.88-.287,9.257-.446.227-10.913.274-19.117.275-3.722,0-6.976-.008-8.618-.014l.237-9.307c2.087-.068,6.167-.195,10.574-.3m-23.622-13.6c.279-.87,1.638-.5,1.375.379q-5.078,17.028-10.424,33.979c-.309.975-1.834.562-1.536-.423q5.136-17.013,10.586-33.935m-5.9,4.665-9.2,29.727c-.379.994-4.244.591-3.894-.446l9.379-29.678c.262-.93,3.956-.537,3.719.4M107.2,112.329c1.7-9.7,4.242-19.72,6.35-29.344.216-.986,3.467-.165,3.259.815-2.042,9.636-3.817,19.386-6.261,28.929-.245.955-3.512.537-3.347-.4m-1.045-23.752c-1.524,7.992-2.987,16-4.6,23.974-.208,1.029-3.266.585-3.08-.432,1.466-8,3.079-15.979,4.631-23.964.2-1,3.235-.575,3.045.422m-15.9,22.77c1.107-4.742,6.41-23.69,7.755-28.363a1.179,1.179,0,1,1,2.326.388,140.845,140.845,0,0,1-3.175,14.286c-1.174,4.708-2.288,9.52-3.924,14.092-.327.915-3.207.558-2.982-.4M89.217,82.086c-1.812,10.2-3.792,20.439-6.391,30.475-.253.977-3.221.559-3.017-.414,2.132-10.167,4.37-20.3,6.244-30.516.2-1.084,3.355-.62,3.164.454M71.055,111.344c2.155-9.912,4.265-19.836,6.54-29.721.251-1.09,3.794-.624,3.564.46-2.1,9.923-4.364,19.813-6.582,29.71-.238,1.062-3.753.609-3.523-.449" transform="translate(-25.487 -43.203)" fill="#fbd8d1"/>
            <path id="Trazado_876042" data-name="Trazado 876042" d="M339.561,391.514s.938,14.075,2.815,15.951,77.882-.938,78.82-1.876a2.455,2.455,0,0,0,.469-2.346s-15.013-12.667-16.421-13.136-65.683,1.407-65.683,1.407" transform="translate(-189.897 -218.122)" fill="#383838"/>
            <path id="Trazado_876043" data-name="Trazado 876043" d="M416.837,408.658l-75.189,2.161c.46,3.216,1.091,6.26,1.895,7.064,1.877,1.877,77.882-.938,78.82-1.877a2.454,2.454,0,0,0,.469-2.346s-2.745-2.315-6-5" transform="translate(-191.064 -228.538)" fill="#4d4d4d"/>
            <path id="Trazado_876044" data-name="Trazado 876044" d="M342.375,409.317c1.877,1.877,77.882-.938,78.82-1.877a2.454,2.454,0,0,0,.469-2.346l-.209-.176c-10.407.439-76.179,3.189-77.907,2.757-1.56-.39-2.794-10.819-3.167-14.333l-.821.024s.938,14.075,2.815,15.952" transform="translate(-189.896 -219.973)" fill="#1a1a1a"/>
            <path id="Trazado_876045" data-name="Trazado 876045" d="M418.33,425.8a22.882,22.882,0,0,1,1.407,3.284c0,.469,14.544-.469,14.544-.469s-.469-2.815-1.876-3.284Z" transform="translate(-233.947 -237.862)" fill="#5b74ca"/>
            <path id="Trazado_876046" data-name="Trazado 876046" d="M257.327,255.016s-6.1,15.483-10.322,23.927-6.976,12.609-5.365,16.391,18.5,2.376,18.5,2.376,10.322-17.359,15.483-30.027-18.3-12.668-18.3-12.668" transform="translate(-134.875 -142.616)" fill="#a34b22"/>
            <path id="Trazado_876047" data-name="Trazado 876047" d="M382.922,212.955l5.815-3.3s-.938-2.346-2.346-5.63-5.161-22.52-7.976-27.681-7.507-9.383-19.7-13.136-18.72-8.444-18.72-8.444-22.1-.939-28.042,1.761-28.305,7.621-32.058,15.128-14.31,29.792-14.31,31.2.234,2.111,7.037,7.976c6.406,5.522,19.471,7.741,19.471,7.741-.469,3.754-1.407,6.1,2.815,16.89a76.059,76.059,0,0,1,4.214,15.014h71.47Z" transform="translate(-148.524 -86.459)" fill="#fffffe"/>
            <path id="Trazado_876048" data-name="Trazado 876048" d="M482.864,249.433a67.434,67.434,0,0,1-2.924-15.448.847.847,0,0,0-1.693,0,52.7,52.7,0,0,0,1.521,13.529c1.175,4.674,4.013,9.562,3.338,14.489-.218,1.591,2.207,2.3,2.449.675.707-4.718-1.294-8.853-2.691-13.245" transform="translate(-267.453 -130.398)" fill="#e5eaec"/>
            <g id="Grupo_1101046" data-name="Grupo 1101046" transform="translate(216.117 83.398)" opacity="0.5">
              <g id="Grupo_1101045" data-name="Grupo 1101045">
                <g id="Grupo_1101044" data-name="Grupo 1101044" clip-path="url(#clip-path-3)">
                  <path id="Trazado_876049" data-name="Trazado 876049" d="M498.029,189.8a37.929,37.929,0,0,1-7.577,18.831c-.509.7.7,1.638,1.2.928a37.574,37.574,0,0,0,7.288-19.491c.078-.95-.822-1.2-.915-.268" transform="translate(-490.33 -189.215)" fill="#e5eaec"/>
                </g>
              </g>
            </g>
            <g id="Grupo_1101049" data-name="Grupo 1101049" transform="translate(130.886 85.011)" opacity="0.5">
              <g id="Grupo_1101048" data-name="Grupo 1101048">
                <g id="Grupo_1101047" data-name="Grupo 1101047" clip-path="url(#clip-path-4)">
                  <path id="Trazado_876050" data-name="Trazado 876050" d="M309.636,214.165c-7.507-5.161-10.7-12.859-11.911-20.9-.13-.865-.869-.154-.756.724,1.054,8.21,4.382,15.467,10.93,20.623.834.656,2.645.175,1.737-.449" transform="translate(-296.956 -192.874)" fill="#e5eaec"/>
                </g>
              </g>
            </g>
            <path id="Trazado_876051" data-name="Trazado 876051" d="M387.859,143.65c.469,0,4.222-.469,5.161.938s6.568,25.8,4.692,29.088-17.359-9.383-17.359-9.383l-10.322,1.877s-5.161,9.383-6.569,9.383-3.753-17.828-.469-29.088,24.866-2.815,24.866-2.815" transform="translate(-202.069 -78.635)" fill="#fffffe"/>
            <path id="Trazado_876052" data-name="Trazado 876052" d="M400.756,67.523s5.1-20.774,23.757-13.373,4.918,25.709,4.918,25.709,6.642,7.3-1.286,13.968-25.058-2.34-25.058-2.34a231.242,231.242,0,0,0-2.332-23.964" transform="translate(-224.119 -29.392)" fill="#3a1714"/>
            <path id="Trazado_876053" data-name="Trazado 876053" d="M421.712,147.724s3.643-.495,4.441.431-1.052,2.523-1.052,2.523l-3.626.739Z" transform="translate(-235.706 -82.54)" fill="#292e3f"/>
            <path id="Trazado_876054" data-name="Trazado 876054" d="M400.687,60.166a.869.869,0,0,0,.124.431c.159.3.469.435.807.023.722-.023.951-.079,1.557-1.7.384-1.03.949-2.493,1.738-4.136a32,32,0,0,1,3.808-6.205l.1-.116q.258-.319.536-.637A14.211,14.211,0,0,1,424.4,43.08a.889.889,0,1,0,.451-1.719,15.887,15.887,0,0,0-16.461,4.945,30.464,30.464,0,0,0-4.871,7.467c-.755,1.578-1.327,3.028-1.757,4.155l-.041.1c-.088.24-.168.466-.249.673-.128.343-.27.719-.371.978a.023.023,0,0,0-.007.019c-.04.091-.067.168-.094.22-.178.18-.319-.017-.309.25" transform="translate(-224.081 -22.809)" fill="#3a1714"/>
            <path id="Trazado_876055" data-name="Trazado 876055" d="M314.379,44.745s-18.168-.022-23.509-8.242c-5.367-8.26-1.327-13.578,5.195-19.363,3.056-4.73,13.229-15.781,28.879-12.845,18.325,3.437,24.729,21.39,20.787,47.732-1.334,8.911-31.351-7.281-31.351-7.281" transform="translate(-161.274 -2.128)" fill="#3a1714"/>
            <path id="Trazado_876056" data-name="Trazado 876056" d="M380.948,164.63c.988-3,5.73-21.129,7.038-24.4.938-2.346,6.746-15.508,8.944-18.129-10.036-7.763-10.977-25.356-10.977-25.356s-16.441,19.146-15.093,26.528c2.582,14.141,8.211,37.13,10.088,41.353" transform="translate(-207.357 -54.106)" fill="#a34b22"/>
            <path id="Trazado_876057" data-name="Trazado 876057" d="M371.811,133.968c11.76-5.786,14.159-19.675,10.473-26.935-4.761,6.13-12.358,16.883-11.424,22a17.538,17.538,0,0,1,.508,2.7q.212,1.1.443,2.243" transform="translate(-207.356 -59.857)" fill="#1a1a1a"/>
            <path id="Trazado_876058" data-name="Trazado 876058" d="M304.609,81.521c1.461,3.434,7.456,29.766,23.7,28.007,8.085-.876,17.249-9.429,19.565-19,.772-3.192.289-3.938.685-7.668,0,0,7.968-2.867,3.3-11.22-2.288-4.091-7.12-4.586-8.769-1.553a17.074,17.074,0,0,0-1.664,5.661,27.5,27.5,0,0,1-7.808-7.158,2.319,2.319,0,0,0-2.486-.836c-7.507,2.11-21.982,5.133-27.692,1.271,0,0-.755,7.983,1.167,12.5" transform="translate(-169.616 -37.84)" fill="#a34b22"/>
            <path id="Trazado_876059" data-name="Trazado 876059" d="M349.224,99.148a1.157,1.157,0,0,1,.96-.659c.048-.011.095-.019.141-.026a.263.263,0,0,1,.05-.015c.018,0,.033,0,.051,0,1.479-.114,2.524,1.84,2.2,3.1a1.08,1.08,0,0,1-.242.758,1.181,1.181,0,0,1-.725.35.257.257,0,0,1-.064.045,1.435,1.435,0,0,1-1.664-.6,2.473,2.473,0,0,1-.706-2.95" transform="translate(-195.169 -55.055)" fill="#1a1a1a"/>
            <path id="Trazado_876060" data-name="Trazado 876060" d="M309.318,109.447a1.6,1.6,0,0,1,2.385-.72,1.731,1.731,0,0,1,.242.168,1.5,1.5,0,0,1,.548.785c.011.037.021.074.03.112,0,.011.007.022.009.034a3.51,3.51,0,0,1,.008,1.665c-.331,1.008-1.615,1.08-2.49.385a2.235,2.235,0,0,1-.733-2.427" transform="translate(-172.921 -60.66)" fill="#1a1a1a"/>
            <path id="Trazado_876061" data-name="Trazado 876061" d="M331.233,126.02a.814.814,0,0,1,.787-.979l1.521-.019a1.169,1.169,0,0,1,1.112.938.814.814,0,0,1-.787.979l-1.521.019a1.169,1.169,0,0,1-1.112-.938" transform="translate(-185.232 -69.917)" fill="#933b16"/>
            <path id="Trazado_876062" data-name="Trazado 876062" d="M337.583,81.85c1.324.433,2.672.664,3.983,1.166,1.331.51,2.617,1.178,3.933,1.736,1.187.5.769,2.295-.429,1.787-1.316-.558-2.6-1.231-3.933-1.736-1.312-.5-2.66-.733-3.983-1.167-1.218-.4-.79-2.186.429-1.786" transform="translate(-188.144 -45.741)" fill="#3a1714"/>
            <path id="Trazado_876063" data-name="Trazado 876063" d="M303.9,97.339a4.632,4.632,0,0,1,1.694-2.529c.839-.765,2.344.641,1.5,1.414A3.309,3.309,0,0,0,305.8,97.89c-.246,1.157-2.153.611-1.906-.551" transform="translate(-169.939 -52.898)" fill="#3a1714"/>
            <path id="Trazado_876064" data-name="Trazado 876064" d="M339,135.361l9.109-4.023s-.306,4.153-2.766,5.1S339,135.361,339,135.361" transform="translate(-189.585 -73.45)" fill="#fff"/>
            <path id="Trazado_876065" data-name="Trazado 876065" d="M363.579,183.44a25.306,25.306,0,0,0-1.863,2.723c-1.776-2.992-1.376-7.276-1.264-10.56.137-4.027.564-8.038.734-12.063.042-1-1.45-.971-1.54,0-.456,4.935-1.012,9.886-1.016,14.848,0,3.563.07,7.321,2.544,10.122a.924.924,0,0,0,1.442-.186,22.088,22.088,0,0,1,2.273-3.574c.731-.929-.578-2.25-1.311-1.311" transform="translate(-200.561 -91.045)" fill="#e5eaec"/>
            <path id="Trazado_876066" data-name="Trazado 876066" d="M434.322,152.441c-.25-1.042-1.848-.6-1.6.443q1.388,5.947,2.306,11.986c.6,4.018.8,8.089,1.444,12.095.134.827,1.4.592,1.418-.192.209-8.041-1.7-16.553-3.564-24.331" transform="translate(-241.979 -84.919)" fill="#e5eaec"/>
            <path id="Trazado_876067" data-name="Trazado 876067" d="M442.28,255.112s13.606,35.188,21.582,43.163,12.667,7.507,15.013,6.1a17.22,17.22,0,0,0,7.507-15.483c-.469-8.914-1.877-28.619-1.877-28.619s-11.26,5.161-17.359,6.1c0,0-11.986-13.585-15.611-22.04s-9.255,10.78-9.255,10.78" transform="translate(-247.341 -135.439)" fill="#a34b22"/>
            <path id="Trazado_876068" data-name="Trazado 876068" d="M401.28,197.59s-4.692-1.877-15.014-2.346-12.667.469-12.667.938-.469,31.9,3.284,34.249,16.89,1.877,18.3.938,7.507-12.668,7.507-12.668l3.285-14.544Z" transform="translate(-208.922 -109.117)" fill="#61b7b0"/>
            <path id="Trazado_876069" data-name="Trazado 876069" d="M416.515,217.463s-15.014-.938-16.89.938,2.346,4.691,2.346,4.691-1.877,5.63,4.222,6.1c-.124-.009-.423,1.032-.448,1.126a3.321,3.321,0,0,0,.1,2.349c.562,1.127,1.593,1.2,2.641,1.625a11.221,11.221,0,0,1,3.412,2.281c1.38,1.287,2.549,2.781,3.866,4.131a7.259,7.259,0,0,0,1.878,1.492c2.7,1.353,5.836-2.341,7.583-4.062,1.377-1.356,2.708-2.772,3.953-4.251,0,0-2.815-8.445-5.63-11.729a17.872,17.872,0,0,0-7.038-4.692" transform="translate(-223.218 -121.483)" fill="#a34b22"/>
            <path id="Trazado_876070" data-name="Trazado 876070" d="M426.209,202.851s-5.63-2.815-7.038-5.161,0-2.815.938-2.815,8.445,2.815,9.853,4.222,5.161,8.445,5.161,12.2-5.974,1.138-5.974,1.138-1.533-7.706-2.941-9.583" transform="translate(-234.085 -108.982)" fill="#a34b22"/>
            <path id="Trazado_876071" data-name="Trazado 876071" d="M423.965,213.059c1.407.469,4.222-.469,5.161,2.815s-3.988,14.31-7.741,16.655,1.407,2.815,1.407,2.815,9.383-4.692,11.26-13.606-4.222-14.544-10.791-9.852Z" transform="translate(-234.891 -117.548)" fill="#61b7b0"/>
            <path id="Trazado_876072" data-name="Trazado 876072" d="M398.194,275.115c-4.222-.938-9.853-.938-15.951-.938-1.018,0-1,.6,0,.938,4.222,1.407,10.862,1.726,16.178,1,.971-.132.688-.8-.226-1" transform="translate(-213.342 -153.331)" fill="#338c81"/>
            <path id="Trazado_876073" data-name="Trazado 876073" d="M383.168,210.384a38.233,38.233,0,0,1-.258-7.809c.141-2.179-3.145-2.116-3.357,0a35.419,35.419,0,0,0,.237,8.74c.324,2.227,3.69,1.275,3.379-.931" transform="translate(-212.168 -112.388)" fill="#fff"/>
            <path id="Trazado_876074" data-name="Trazado 876074" d="M382.605,230.728a1.5,1.5,0,0,0,0,2.991,1.5,1.5,0,0,0,0-2.991" transform="translate(-213.161 -129.033)" fill="#fff"/>
            <path id="Trazado_876075" data-name="Trazado 876075" d="M513.138,314.409a30.149,30.149,0,0,0-5.811-11.033c-2.558-2.99-5.77-5.292-8.777-7.8-1.261-1.051-2.794-.748-1.833.533,2.815,3.753,5.829,5.825,8.4,8.383a30.4,30.4,0,0,1,6.294,9.327c.563,1.263,2.062,1.924,1.728.588" transform="translate(-277.616 -164.944)" fill="#873516"/>
            <path id="Trazado_876076" data-name="Trazado 876076" d="M328.024,231.77c-.171-1.258-2.359-.975-2.236.3a64.18,64.18,0,0,1-.455,16.636c-.812,4.922-1.931,11.748-1.761,16.781.056,1.664,1.533-.28,1.52-1.957-.041-5.319,2.3-10.509,3-15.773a59.633,59.633,0,0,0-.066-15.989" transform="translate(-180.945 -129.161)" fill="#e5eaec"/>
            <path id="Trazado_876077" data-name="Trazado 876077" d="M247.495,324.791s-5.865,3.05-5.865,6.8c0,7.037,7.507,14.075,13.841,15.717,5.316,1.378,11.26,4.222,14.544,5.63a6.455,6.455,0,0,0,3.284,3.284c2.346.938,13.606.938,13.137-3.753,0,0,5.2-.239,4.243-3.638,0,0,3.264-1.523,2.325-4.807s-4.222-6.569-4.222-6.569,3.284,0,2.346-2.346c-.726-1.816-1.236-3.753-2.117-5.5-.811-1.61-2.738-1.49-4.22-.982l-5.438,1.864a5.65,5.65,0,0,1-1.756.429,6.974,6.974,0,0,0-1.38.105,10.006,10.006,0,0,0-2.822,1.067,9.145,9.145,0,0,0-3.848,3.488s-4.691-.469-8.445-7.037c-4.072-7.126-13.606-3.753-13.606-3.753" transform="translate(-135.13 -181.191)" fill="#a34b22"/>
            <path id="Trazado_876078" data-name="Trazado 876078" d="M274.083,330.369c-1.877-5.63-7.232-8.742-12.1-7.428-.7.188-1.324,1.425-.563,1.329a11.315,11.315,0,0,1,11.136,5.253c.584.915,1.878,1.886,1.531.846" transform="translate(-146 -180.434)" fill="#873516"/>
            <path id="Trazado_876079" data-name="Trazado 876079" d="M303.437,374.529c-.681-1.315-1.182-2.28-.782-3.8a5.421,5.421,0,0,0,.359-2.032c-.166-1.736-1.218-2.986-1.116-4.852.037-.671-.962-.771-1.145-.155a5.579,5.579,0,0,0-.322,2.589c.273,1.473,1.268,1.932.842,3.712-.5,2.105.083,3.753,1.361,5.625.565.826,1.269-.186.8-1.086" transform="translate(-167.983 -203.16)" fill="#873516"/>
            <path id="Trazado_876080" data-name="Trazado 876080" d="M311.028,329.61a1.9,1.9,0,0,1-.541-.651.916.916,0,0,1,.066-.851.765.765,0,0,1,.77-.33,1.385,1.385,0,0,1,.508.271l1.707,1.243a.278.278,0,0,1,.1.1.269.269,0,0,1-.057.24c-.229.352-.746.954-1.216.934-.45-.02-1.018-.682-1.337-.96" transform="translate(-173.595 -183.299)" fill="#1a1a1a"/>
            <path id="Trazado_876081" data-name="Trazado 876081" d="M344.852,350.906c-.461-.231-7.392-5.115-14.429-10.075-2.061,1.2-4.676-1.957-6.016-3.987-.106-.154-.209-.309-.3-.465-4.724-3.324-8.474-5.949-8.81-6.116-.938-.469-2.346-.469-2.346,1.407s28.15,24.4,28.15,24.4c8.445,3.284,8.914,2.815,8.914,2.346s-4.222-7.038-5.161-7.507" transform="translate(-175.014 -184.551)" fill="#1a1a1a"/>
            <path id="Trazado_876082" data-name="Trazado 876082" d="M396.711,394.295c-.066-.307-.387-.453-.627-.619l-.71-.493a.437.437,0,0,0-.592.155.442.442,0,0,0,.155.592l.667.477c.219.156.456.4.742.366a.385.385,0,0,0,.364-.478" transform="translate(-220.746 -219.849)" fill="#1a1a1a"/>
            <path id="Trazado_876083" data-name="Trazado 876083" d="M365.751,367.384c-.379-.413-1-.312-1.493-.264a2.815,2.815,0,0,0-1.891.915l-.031.036a3.124,3.124,0,0,0-.492,3.6c.258.455.942.052.7-.409a2.214,2.214,0,0,1,.045-2.02,2.522,2.522,0,0,1,.642-.8,2.648,2.648,0,0,1,.9-.6c.051-.017.1-.031.154-.044a4.1,4.1,0,0,1,1.252-.066.314.314,0,0,0,.22-.04c.115-.091.08-.2-.01-.3" transform="translate(-202.151 -205.282)" fill="#1a1a1a"/>
            <path id="Trazado_876084" data-name="Trazado 876084" d="M315.484,348.933s7.507,3.284,12.2,3.753,9.383.938,9.852-.469-.938-2.815-3.753-3.753-11.26-2.346-16.421-5.63l-2.815,1.877Z" transform="translate(-175.907 -191.727)" fill="#a34b22"/>
            <path id="Trazado_876085" data-name="Trazado 876085" d="M328.653,358.727c-4.619-.045-8.478-2.229-12.763-3.71-.688-.238-1.165.867-.5,1.186,4.247,2.036,8.5,3.555,13.29,3.513,1.019-.008.993-.979-.027-.989" transform="translate(-176.201 -198.522)" fill="#873516"/>
            <path id="Trazado_876086" data-name="Trazado 876086" d="M338.27,344.732a4.071,4.071,0,0,0,1.038.855,1.89,1.89,0,0,0,1.3.213c.046-.011.1-.033.107-.081a.12.12,0,0,0-.042-.089,3.141,3.141,0,0,0-.337-.3,10.88,10.88,0,0,1-3.377-4.066c-.083-.2-.387-.453-.442-.1a2.406,2.406,0,0,0,.161.91,6.07,6.07,0,0,0,.876,1.783,8.251,8.251,0,0,0,.712.878" transform="translate(-188.192 -190.693)" fill="#873516"/>
            <path id="Trazado_876087" data-name="Trazado 876087" d="M75.536,274.748S0,263.957,0,266.3s21.112,68.5,24.4,71.313,71.078,22.755,75.066,22.52c2.81-.165,58.177-17.828,58.646-20.174.046-.231.466-1.7-.7-2.111-10.68-3.787-67.56-13.137-67.56-13.137s-13.137-49.262-14.31-49.966" transform="translate(0 -148.741)" fill="#b0c1d3"/>
            <path id="Trazado_876088" data-name="Trazado 876088" d="M207.036,419.474s40.583,7.741,41.052,8.679-34.953,11.495-34.953,11.495Z" transform="translate(-115.783 -234.587)" fill="#4d4d4d"/>
            <path id="Trazado_876089" data-name="Trazado 876089" d="M158.109,339.962c.039-.195.339-1.26-.263-1.841-5.719,2.081-55.937,20.293-58.148,18.966-2.346-1.408-9.853-32.373-9.853-32.373s-13.137-49.262-14.31-49.966c0,0-75.536-10.791-75.536-8.445a2.309,2.309,0,0,0,.056.376c9.615,1.107,72.538,8.376,73.838,9.242,1.319.88,18.309,73.51,24.679,84.131a4.894,4.894,0,0,0,.89.085c2.81-.165,58.177-17.828,58.646-20.174" transform="translate(0 -148.741)" fill="#869dad"/>
            <path id="Trazado_876090" data-name="Trazado 876090" d="M232.4,408.857a8.763,8.763,0,0,0-3.363-.772c-1.577-.219-3.156-.419-4.73-.668-3.137-.5-6.245-1.143-9.351-1.8-.449-.1-.647.572-.2.692,2.92.773,5.886,1.368,8.864,1.871q1.948.33,3.906.6a19.279,19.279,0,0,1,3.791.586.364.364,0,0,0-.03.067.463.463,0,0,0-.223.045c-1.233.6-2.463,1.2-3.694,1.807-1.139.558-2.425,1.471-3.7,1.589-2.6.242-5.5-.651-7.993-1.284-2.459-.625-6.309-1.812-8.806-2.281-.492-.092-1.482-.05-1.008-.678.27-.358,5.286-1.689,6.5-2.3.433-.216.074-.79-.369-.642-1.9.636-4.388.94-5.822,1.756-.6.341-1.886.842-1.574,1.784.308.926,1.936.926,2.664,1.078,1.634.341,4.655,1.239,6.269,1.666a44.194,44.194,0,0,0,9.476,1.831,7.21,7.21,0,0,0,3.588-1.119c1.64-.806,3.282-1.607,4.919-2.419a.392.392,0,0,0,.209-.235.489.489,0,0,0,.175-.045,1.47,1.47,0,0,0,.58-.408.463.463,0,0,0-.088-.718" transform="translate(-114.4 -226.831)" fill="#869dad"/>
            <path id="Trazado_876091" data-name="Trazado 876091" d="M398.337,422.978a3.875,3.875,0,0,0-4.463-.588.468.468,0,0,0,.472.807c1.853-1.042,4.105.443,4.453,2.395.4,2.217-1.055,4.291-2.812,5.483A20.111,20.111,0,0,1,390,433.484a49.79,49.79,0,0,1-6.5,1.345,56.193,56.193,0,0,1-26.682-3.134,105.691,105.691,0,0,0-12.384-4.085,28.772,28.772,0,0,0-6.045-.744c-1.574-.011-3.507-.021-4.851.936-3.195,2.275.785,5.986-.606,8.749-.842,1.673-2.964,2.325-4.643,2.756a51.623,51.623,0,0,1-6.564,1.236,56.211,56.211,0,0,1-27.151-3.577.454.454,0,0,0,.257-.288.437.437,0,0,0,.109-.164,1.317,1.317,0,0,0,.068-.608.442.442,0,0,0-.554-.422c-.659.249-1.317.5-1.971.765-.614.247-.751.516-.668,1.183a.347.347,0,0,0,.612.208c.326-.1.657-.189.986-.285a53.682,53.682,0,0,0,26.259,4.329,54.76,54.76,0,0,0,6.652-.967,17.057,17.057,0,0,0,5.545-1.81,4.361,4.361,0,0,0,2.287-3.613c.025-1.807-1.363-3.692-.93-5.476.58-2.388,4.33-2.087,6.192-1.991a32.18,32.18,0,0,1,7.182,1.3c4.6,1.317,8.985,3.269,13.558,4.669a54.319,54.319,0,0,0,28.22,1.065c4.125-.973,9.837-2.365,11.189-7.026a4.622,4.622,0,0,0-1.235-4.86" transform="translate(-163.185 -235.959)" fill="#1a1a1a"/>
            <path id="Trazado_876092" data-name="Trazado 876092" d="M519.453,393.613s21.112,31.9,24.866,31.9,46.917-1.877,48.793-4.692-30.5-29.557-32.372-29.557-41.287.938-41.287,2.346" transform="translate(-290.5 -218.813)" fill="#f2f2f2"/>
            <path id="Trazado_876093" data-name="Trazado 876093" d="M515.215,389.383s20.109,32.545,23.86,32.662,46.953-.415,48.916-3.17-29.561-30.493-31.437-30.551-41.3-.347-41.34,1.06" transform="translate(-288.13 -217.131)" fill="#f2f2f2"/>
            <path id="Trazado_876094" data-name="Trazado 876094" d="M530.118,395.769s20.109,32.545,23.86,32.662,46.953-.415,48.916-3.17-29.561-30.493-31.437-30.551-41.3-.347-41.34,1.06" transform="translate(-296.464 -220.702)" fill="#f2f2f2"/>
            <path id="Trazado_876095" data-name="Trazado 876095" d="M566.021,392.627a181.1,181.1,0,0,0-18.213-.087c-6.057.243-12.183.518-18.2,1.235a.385.385,0,0,0-.319.242.4.4,0,0,0-.169.546,149.5,149.5,0,0,0,21.2,30.031c.4.445,1.057-.214.658-.659A161.351,161.351,0,0,1,530,394.5c5.939-.192,11.869-.8,17.808-1.038,6.07-.247,12.146-.273,18.213.071.58.033.577-.867,0-.9" transform="translate(-295.875 -219.421)" fill="#e6e6e6"/>
            <path id="Trazado_876096" data-name="Trazado 876096" d="M560.7,389.433a181.122,181.122,0,0,0-18.213-.087c-6.057.243-12.183.518-18.2,1.235a.386.386,0,0,0-.319.243.4.4,0,0,0-.169.546c5.782,10.835,13.731,21.06,21.985,30.153.4.445.269-.336-.13-.781A161.364,161.364,0,0,1,524.678,391.3c5.15-.745,11.409-.973,17.349-1.214,6.07-.247,13.169-.343,19.236,0,.58.033.014-.62-.563-.655" transform="translate(-292.899 -217.635)" fill="#e6e6e6"/>
            <path id="Trazado_876097" data-name="Trazado 876097" d="M667.482,351.843s5.048-34.417,3.527-36.2-3.558-1.284-4.532.9-2.258,36.971-2.258,36.971Z" transform="translate(-371.459 -175.912)" fill="#ed4450"/>
            <path id="Trazado_876098" data-name="Trazado 876098" d="M665.551,319.535c1.024-1.272,2.778.44,1.832,1.711-1.881,2.53-.021,6.381-.915,9.276-.495,1.6-2.964,1.094-2.574-.582.836-3.6-.883-7.254,1.657-10.406" transform="translate(-371.254 -178.447)" fill="#c02328"/>
            <path id="Trazado_876099" data-name="Trazado 876099" d="M667.3,349.662c.933.572,2.871,1.165,3.651,0,.3-.452,1.059-.062.756.4-1.051,1.618-3.549,1.312-4.9.29-.388-.292.082-.949.5-.695" transform="translate(-372.823 -195.433)" fill="#c02328"/>
            <path id="Trazado_876100" data-name="Trazado 876100" d="M641.888,363.159s-4-28.873-2.445-30.629,3.583-1.213,4.513.991,1.16,31.371,1.16,31.371Z" transform="translate(-357.402 -185.38)" fill="#009245"/>
            <path id="Trazado_876101" data-name="Trazado 876101" d="M649.063,336.591c-1-1.292-2.786.384-1.867,1.674,1.83,2.567-.107,6.38.729,9.293.462,1.611,2.942,1.154,2.585-.53-.764-3.612,1.028-7.235-1.447-10.437" transform="translate(-361.796 -187.976)" fill="#006837"/>
            <path id="Trazado_876102" data-name="Trazado 876102" d="M645.062,366.623c-.945.553-2.893,1.107-3.65-.074-.294-.458-1.058-.083-.764.389,1.018,1.639,3.523,1.383,4.9.389.394-.284-.063-.95-.483-.7" transform="translate(-358.24 -204.873)" fill="#006837"/>
            <path id="Trazado_876103" data-name="Trazado 876103" d="M637.408,376.385s-6.944-28.309-5.576-30.216,3.439-1.574,4.591.522,4.375,31.086,4.375,31.086Z" transform="translate(-353.247 -192.889)" fill="#4a3333"/>
            <path id="Trazado_876104" data-name="Trazado 876104" d="M641.624,349.372c-1.126-1.183-2.732.668-1.685,1.857,2.084,2.366.549,6.358,1.679,9.169.625,1.555,3.044.846,2.518-.792-1.131-3.514.28-7.3-2.511-10.234" transform="translate(-357.691 -195.171)" fill="#4a3333"/>
            <path id="Trazado_876105" data-name="Trazado 876105" d="M640.606,379.506c-.882.647-2.764,1.4-3.638.3-.339-.425-1.061.026-.721.466,1.181,1.526,3.646,1.014,4.912-.116.363-.324-.16-.939-.553-.651" transform="translate(-355.766 -212.194)" fill="#4a3333"/>
            <path id="Trazado_876106" data-name="Trazado 876106" d="M671.683,374.96s4.624-28.78,3.107-30.568-3.556-1.291-4.534.893-1.838,31.338-1.838,31.338Z" transform="translate(-373.807 -191.989)" fill="#842a2e"/>
            <path id="Trazado_876107" data-name="Trazado 876107" d="M668.773,348.274c1.027-1.27,2.777.445,1.83,1.715-1.885,2.527-.031,6.381-.93,9.274-.5,1.6-2.966,1.09-2.573-.585.842-3.594-.871-7.255,1.673-10.4" transform="translate(-373.047 -194.519)" fill="#842a2e"/>
            <path id="Trazado_876108" data-name="Trazado 876108" d="M670.5,378.408c.932.573,2.868,1.17,3.651.005.3-.451,1.059-.06.755.406-1.053,1.617-3.552,1.306-4.9.283-.388-.293.084-.949.5-.694" transform="translate(-374.61 -211.513)" fill="#842a2e"/>
            <path id="Trazado_876109" data-name="Trazado 876109" d="M651.469,359.754s-2.522-29.039-.879-30.713,3.64-1.029,4.457,1.22-.442,31.389-.442,31.389Z" transform="translate(-363.526 -183.486)" fill="#333"/>
            <path id="Trazado_876110" data-name="Trazado 876110" d="M660.218,333.517c-.931-1.341-2.8.242-1.95,1.577,1.7,2.658-.432,6.367.254,9.318.379,1.633,2.879,1.3,2.609-.4-.578-3.646,1.4-7.173-.913-10.5" transform="translate(-368.009 -186.232)" fill="#1a1a1a"/>
            <path id="Trazado_876111" data-name="Trazado 876111" d="M654.755,363.254c-.971.5-2.946.958-3.642-.26-.27-.473-1.052-.137-.783.349.933,1.689,3.448,1.561,4.872.638.408-.264-.015-.952-.447-.728" transform="translate(-363.66 -202.874)" fill="#1a1a1a"/>
            <path id="Trazado_876112" data-name="Trazado 876112" d="M628.705,358.437s.656-29.142-1.091-30.706-3.7-.793-4.37,1.5,2.453,31.3,2.453,31.3Z" transform="translate(-348.491 -182.822)" fill="#fa8747"/>
            <path id="Trazado_876113" data-name="Trazado 876113" d="M620.722,332.717c.844-1.4,2.812.061,2.047,1.448-1.523,2.761.839,6.326.344,9.315-.274,1.654-2.789,1.484-2.629-.229.344-3.675-1.853-7.069.238-10.534" transform="translate(-346.622 -185.752)" fill="#be5a33"/>
            <path id="Trazado_876114" data-name="Trazado 876114" d="M625.568,361.976c1,.442,3,.767,3.618-.492.239-.489,1.041-.2.8.3-.822,1.745-3.34,1.778-4.821.948-.424-.238-.046-.952.4-.755" transform="translate(-349.517 -202.015)" fill="#be5a33"/>
            <path id="Trazado_876115" data-name="Trazado 876115" d="M655.7,363.442s1.877-29.088,3.753-30.5,3.753-.469,4.222,1.877-5.161,30.965-5.161,30.965Z" transform="translate(-366.696 -185.828)" fill="#5b74ca"/>
            <path id="Trazado_876116" data-name="Trazado 876116" d="M670.94,338.6c-.719-1.466-2.807-.183-2.165,1.265,1.277,2.883-1.386,6.229-1.152,9.25.13,1.671,2.65,1.721,2.639,0-.023-3.691,2.459-6.882.677-10.515" transform="translate(-373.354 -188.998)" fill="#3e5c9e"/>
            <path id="Trazado_876117" data-name="Trazado 876117" d="M662.592,367.026c-1.036.353-3.057.5-3.561-.8-.2-.508-1.019-.294-.827.228.668,1.81,3.173,2.061,4.72,1.364.443-.2.129-.944-.332-.787" transform="translate(-368.079 -204.644)" fill="#3e5c9e"/>
            <path id="Trazado_876118" data-name="Trazado 876118" d="M679.979,368.037s8.917-27.751,11.08-28.659,3.754.461,3.637,2.85S682.136,371,682.136,371Z" transform="translate(-380.272 -189.637)" fill="#61b7b0"/>
            <path id="Trazado_876119" data-name="Trazado 876119" d="M706.995,346.741c-.34-1.6-2.677-.862-2.408.7.536,3.107-2.863,5.7-3.373,8.689-.283,1.652,2.15,2.315,2.559.644.878-3.585,4.064-6.073,3.222-10.032" transform="translate(-392.135 -193.412)" fill="#338c81"/>
            <path id="Trazado_876120" data-name="Trazado 876120" d="M695.3,371.688c-1.091.089-3.087-.257-3.257-1.649-.066-.54-.917-.534-.858.019.206,1.918,2.574,2.773,4.245,2.474.479-.086.355-.884-.13-.844" transform="translate(-386.539 -206.717)" fill="#338c81"/>
            <path id="Trazado_876121" data-name="Trazado 876121" d="M631.27,380.479s1.833-29.091,3.708-30.5,3.753-.475,4.225,1.87-5.114,30.973-5.114,30.973Z" transform="translate(-353.032 -195.351)" fill="#009245"/>
            <path id="Trazado_876122" data-name="Trazado 876122" d="M646.43,355.621c-.721-1.465-2.807-.179-2.163,1.268,1.282,2.881-1.376,6.231-1.138,9.251.132,1.671,2.652,1.717,2.639,0-.029-3.691,2.449-6.885.662-10.516" transform="translate(-359.656 -198.516)" fill="#006837"/>
            <path id="Trazado_876123" data-name="Trazado 876123" d="M638.1,384.061c-1.036.354-3.056.509-3.563-.8-.2-.507-1.02-.292-.826.229.671,1.809,3.176,2.057,4.722,1.357.443-.2.127-.944-.333-.787" transform="translate(-354.384 -214.174)" fill="#006837"/>
            <path id="Trazado_876124" data-name="Trazado 876124" d="M618.69,373.878s-3.7-28.913-5.657-30.2-3.776-.233-4.1,2.138,7.091,30.581,7.091,30.581Z" transform="translate(-340.537 -191.889)" fill="#ed4450"/>
            <path id="Trazado_876125" data-name="Trazado 876125" d="M607.062,349.794c.626-1.508,2.79-.358,2.24,1.127-1.094,2.957,1.773,6.13,1.729,9.16-.024,1.676-2.536,1.883-2.634.165-.208-3.686-2.886-6.714-1.335-10.452" transform="translate(-339.225 -195.223)" fill="#c02328"/>
            <path id="Trazado_876126" data-name="Trazado 876126" d="M615.789,377.486c1.056.287,3.082.312,3.5-1.027.164-.519,1-.357.84.176-.554,1.848-3.038,2.256-4.626,1.657-.454-.172-.187-.934.282-.807" transform="translate(-344.086 -210.355)" fill="#c02328"/>
            <path id="Trazado_876127" data-name="Trazado 876127" d="M683.392,353.671s4.624-28.78,3.107-30.568-3.556-1.291-4.534.893-1.838,31.338-1.838,31.338Z" transform="translate(-380.355 -180.084)" fill="#efb44b"/>
            <path id="Trazado_876128" data-name="Trazado 876128" d="M680.482,326.985c1.027-1.27,2.777.445,1.83,1.715-1.885,2.527-.031,6.381-.93,9.275-.5,1.6-2.966,1.09-2.573-.586.841-3.594-.871-7.255,1.673-10.4" transform="translate(-379.595 -182.614)" fill="#d89b39"/>
            <path id="Trazado_876129" data-name="Trazado 876129" d="M682.206,357.119c.932.573,2.868,1.17,3.651.005.3-.452,1.059-.06.755.406-1.053,1.616-3.552,1.306-4.9.283-.388-.293.084-.949.5-.694" transform="translate(-381.159 -199.607)" fill="#d89b39"/>
            <path id="Trazado_876130" data-name="Trazado 876130" d="M615.524,392.09s-1.407,22.52,0,24.4,12.667,5.161,14.544,5.161,18.767-1.877,19.705-3.754.938-25.335,0-25.8-18.3,2.815-19.705,2.346-14.544-3.284-14.544-2.346" transform="translate(-343.877 -219.166)" fill="#b6ad78"/>
            <path id="Trazado_876131" data-name="Trazado 876131" d="M650.381,421.811c3.293-.2,18.351-1.965,19.236-3.735.938-1.877.938-25.335,0-25.8-.878-.439-16.112,2.4-19.236,2.391Z" transform="translate(-363.72 -219.349)" fill="#9a8e53"/>
            <path id="Trazado_876132" data-name="Trazado 876132" d="M518.36,447.274c-5.356-1.32-32.638-7.95-34.9-6.531-2.508,1.574-5.759,11.463-5.911,12.59a2.616,2.616,0,0,0,.873,2.031s35.284,7.834,36.888,7.286c1.326-.453,3.167-10.506,3.765-13.98a3.825,3.825,0,0,0-.716-1.4" transform="translate(-267.057 -246.371)" fill="#b0c1d3"/>
            <path id="Trazado_876133" data-name="Trazado 876133" d="M518.5,456.221c-.54,3.713-1.962,12.84-2.939,13.317-1.125.548-32.636-6.541-37.952-7.743-.032.132-.053.235-.063.3a2.616,2.616,0,0,0,.873,2.031s35.284,7.834,36.888,7.286c1.326-.453,3.167-10.506,3.765-13.98a4.269,4.269,0,0,0-.572-1.215" transform="translate(-267.057 -255.138)" fill="#829caf"/>
            <path id="Trazado_876134" data-name="Trazado 876134" d="M486.227,442.921s-5.5,9.584-4.855,10.438,34.105,8.057,34.958,7.407,3.779-10.965,2.7-11.494-31.628-6.574-32.806-6.351" transform="translate(-269.174 -247.697)" fill="#464c7b"/>
            <g id="Grupo_1101052" data-name="Grupo 1101052" transform="translate(216.36 195.219)" opacity="0.1">
              <g id="Grupo_1101051" data-name="Grupo 1101051">
                <g id="Grupo_1101050" data-name="Grupo 1101050" clip-path="url(#clip-path-5)">
                  <path id="Trazado_876135" data-name="Trazado 876135" d="M522.762,458.334c-2.553-1.35-11-5.853-10.638-6.129.427-.325,7.909,3.748,7.909,3.748s-11.734-9.34-14.6-10.64c-1.963-.379-3.875-.741-5.623-1.065l-1.544-.283-.009,0s5.135,4.76,4.746,4.9c-.357.13-6.028-4.526-6.963-5.3a36.185,36.185,0,0,0-4.462-.646s-.275.479-.694,1.23c1.466,1.423,10.334,9.989,11.069,9.738.8-.274,2.109-2.69,2.71-2.269.451.316,9.269,6.1,13.824,8.824a11.759,11.759,0,0,0,3.194.321,7.893,7.893,0,0,0,1.084-2.433" transform="translate(-490.881 -442.915)" fill="#feffff"/>
                </g>
              </g>
            </g>
            <path id="Trazado_876136" data-name="Trazado 876136" d="M483.424,463.384a.634.634,0,0,0-.17,1.256.634.634,0,0,0,.17-1.256" transform="translate(-269.96 -259.14)" fill="#b0c1d3"/>
            <path id="Trazado_876137" data-name="Trazado 876137" d="M484.746,460.2a.613.613,0,0,0-.164,1.215.613.613,0,0,0,.164-1.215" transform="translate(-270.712 -257.359)" fill="#b0c1d3"/>
            <path id="Trazado_876138" data-name="Trazado 876138" d="M489.8,474.1c-1.133-.242-2.269-.464-3.4-.7-.442-.093-.522.587-.093.69,1.127.27,2.258.526,3.4.731.461.082.547-.62.1-.716" transform="translate(-271.802 -264.739)" fill="#b0c1d3"/>
            <path id="Trazado_876139" data-name="Trazado 876139" d="M500.15,476.632a21.442,21.442,0,0,0-3.061-.682c-.436-.09-.517.582-.092.681a20.879,20.879,0,0,0,2.976.641c.358.028.548-.5.176-.64" transform="translate(-277.785 -266.166)" fill="#b0c1d3"/>
            <path id="Trazado_876140" data-name="Trazado 876140" d="M520.556,94.057h47.232a67.445,67.445,0,0,1,2.917-10.838c8.01-22.8,3.072-51.262-16.541-64.93l-34.509.6Z" transform="translate(-290.613 -10.227)" fill="#fbd8d1"/>
            <path id="Trazado_876141" data-name="Trazado 876141" d="M578.131,90.258c7.045-20.052,4.073-44.485-10.089-59.382H532.933V96.145h43.373c.493-1.856,1.1-3.813,1.825-5.887" transform="translate(-298.038 -17.267)" fill="#fdefec"/>
          </g>
        </g>
      </g>
    </g>
    <g id="Grupo_1101087" data-name="Grupo 1101087" transform="translate(-10704.754 -6660.41)">
      <path id="Trazado_876264" data-name="Trazado 876264" d="M1.719,28.291l26.934,43.6L64.922,12.328Z" transform="translate(0.338 2.426)" fill="#31a8ff"/>
      <g id="Grupo_1101083" data-name="Grupo 1101083" transform="translate(0 0)">
        <g id="Grupo_1101082" data-name="Grupo 1101082" clip-path="url(#clip-path-6)">
          <path id="Trazado_876265" data-name="Trazado 876265" d="M1,12.154,65.227,1,24.574,57.657Z" transform="translate(0.197 0.196)" fill="none" stroke="#5b2ccf" stroke-linecap="round" stroke-linejoin="round" stroke-width="2"/>
          <path id="Trazado_876266" data-name="Trazado 876266" d="M61.519,1C60.351,1.517,19.84,25.434,19.84,25.434l1.026,32.223Z" transform="translate(3.905 0.196)" fill="none" stroke="#5b2ccf" stroke-linecap="round" stroke-linejoin="round" stroke-width="2"/>
          <path id="Trazado_876267" data-name="Trazado 876267" d="M1,12.154l22.548,13.28L65.227,1Z" transform="translate(0.197 0.196)" fill="none" stroke="#5b2ccf" stroke-linecap="round" stroke-linejoin="round" stroke-width="2"/>
        </g>
      </g>
    </g>
  </g>
</svg>
