<svg xmlns="http://www.w3.org/2000/svg" xmlns:xlink="http://www.w3.org/1999/xlink" width="315" height="380" viewBox="0 0 315 380">
  <defs>
    <clipPath id="clip-path">
      <rect id="Rectángulo_402705" data-name="Rectángulo 402705" width="315" height="354.904" fill="none"/>
    </clipPath>
    <clipPath id="clip-path-3">
      <rect id="Rectángulo_402689" data-name="Rectángulo 402689" width="2.561" height="1.573" fill="none"/>
    </clipPath>
    <clipPath id="clip-path-4">
      <rect id="Rectángulo_402690" data-name="Rectángulo 402690" width="1.307" height="1.2" fill="none"/>
    </clipPath>
    <clipPath id="clip-path-5">
      <rect id="Rectángulo_402691" data-name="Rectángulo 402691" width="1.49" height="3.087" fill="none"/>
    </clipPath>
    <clipPath id="clip-path-6">
      <rect id="Rectángulo_402692" data-name="Rectángulo 402692" width="0.853" height="2.175" fill="none"/>
    </clipPath>
    <clipPath id="clip-path-7">
      <rect id="Rectángulo_402693" data-name="Rectángulo 402693" width="2.181" height="3.183" fill="none"/>
    </clipPath>
    <clipPath id="clip-path-8">
      <rect id="Rectángulo_402694" data-name="Rectángulo 402694" width="1.889" height="2.097" fill="none"/>
    </clipPath>
    <clipPath id="clip-path-9">
      <rect id="Rectángulo_402695" data-name="Rectángulo 402695" width="1.563" height="1.262" fill="none"/>
    </clipPath>
    <clipPath id="clip-path-10">
      <rect id="Rectángulo_402696" data-name="Rectángulo 402696" width="1.052" height="4.276" fill="none"/>
    </clipPath>
    <clipPath id="clip-path-11">
      <rect id="Rectángulo_402697" data-name="Rectángulo 402697" width="1.103" height="2.289" fill="none"/>
    </clipPath>
    <clipPath id="clip-path-12">
      <rect id="Rectángulo_402698" data-name="Rectángulo 402698" width="1.438" height="3.925" fill="none"/>
    </clipPath>
    <clipPath id="clip-path-13">
      <rect id="Rectángulo_402699" data-name="Rectángulo 402699" width="0.952" height="1.77" fill="none"/>
    </clipPath>
    <clipPath id="clip-path-14">
      <rect id="Rectángulo_402700" data-name="Rectángulo 402700" width="2.422" height="110.115" fill="none"/>
    </clipPath>
    <clipPath id="clip-path-15">
      <rect id="Rectángulo_402701" data-name="Rectángulo 402701" width="90.122" height="63.192" fill="none"/>
    </clipPath>
    <clipPath id="clip-path-16">
      <rect id="Rectángulo_402702" data-name="Rectángulo 402702" width="7.076" height="19.882" fill="none"/>
    </clipPath>
    <clipPath id="clip-path-17">
      <rect id="Rectángulo_402703" data-name="Rectángulo 402703" width="19.627" height="16.418" fill="none"/>
    </clipPath>
    <clipPath id="clip-path-18">
      <rect id="Rectángulo_402733" data-name="Rectángulo 402733" width="66.621" height="74.313" fill="none"/>
    </clipPath>
  </defs>
  <g id="Grupo_1101092" data-name="Grupo 1101092" transform="translate(10929 7489)">
    <rect id="Rectángulo_402676" data-name="Rectángulo 402676" width="315" height="380" transform="translate(-10929 -7489)" fill="none"/>
    <g id="Grupo_1101024" data-name="Grupo 1101024" transform="translate(-10929 -7476)">
      <g id="Grupo_1101023" data-name="Grupo 1101023" clip-path="url(#clip-path)">
        <g id="Grupo_1101022" data-name="Grupo 1101022">
          <g id="Grupo_1101021" data-name="Grupo 1101021" clip-path="url(#clip-path)">
            <path id="Trazado_875834" data-name="Trazado 875834" d="M161.337,724.749c-9.766-5.965-19.768-11.43-29.162-18A163.514,163.514,0,0,1,106.532,684.9a112.73,112.73,0,0,1-12.281-14.976c-.88-1.34-3.019-.119-2.166,1.266a117.756,117.756,0,0,0,21.962,26.452,216.1,216.1,0,0,0,28.093,20.831c5.539,3.526,11.149,7.042,16.968,10.092,2.514,1.318,4.667-2.326,2.23-3.815" transform="translate(-53.817 -392.021)" fill="#cff6fc"/>
            <path id="Trazado_875835" data-name="Trazado 875835" d="M211.93,35.136c-8.153,9.46-13.131,23.976-26.658,25.238-5.7.532-11.215-1.964-16.593-4.1a149.576,149.576,0,0,0-49.658-10.54c-10.435-.391-21.4.495-30.286,6.547C79.57,58.52,73.756,69.708,71.653,81.367s-.823,23.782,1.773,35.319c3.393,15.079,9.056,30.521,5.818,45.641-1.414,6.6-4.455,12.617-6.929,18.83C59.757,212.7,62.5,251.1,79.386,280.085c17.059,29.28,46.038,47.282,75,61.073,18.794,8.951,38.232,16.674,58.458,20.148,25.469,4.375,51.558,1.342,76.1-6.867,20.449-6.84,37.74-26.521,48.818-45.915,7.477-13.088,13.1-27.763,14.321-43.177.861-10.9.583-21.6-2.942-31.864-3.989-11.625-9.14-23.4-12.119-35.312a86.558,86.558,0,0,1-4.267-15.5c-1.462-10.053.646-20.24,2.616-30.207q3.433-17.362,6.347-34.821c2.9-17.406,5.929-37.08-.393-54.07-5.358-14.4-14.658-27.651-27.444-36.37-18.691-12.745-42.028-15.01-63.717-11.139-13.192,2.355-26.843,7.244-36.793,17.5q-.735.758-1.435,1.573" transform="translate(-37.778 -8.402)" fill="#cff6fc"/>
            <path id="Trazado_875836" data-name="Trazado 875836" d="M182.806,358.354c-13.216-4.235-53.534,27.912-53.534,27.912s32-38.573,21.783-38.413c-8.585.135-21.721,27.2-25.706,35.858q-.442.539-.871,1.129c1.371-6.652,6.445-32.965.387-30.126-6.929,3.246-5.056,35.049-5.056,35.049s-11.98-17.579-15.107-14.71,13.372,18.721,13.372,18.721.183,1.427.54,3.607c-3.86,12.288-6.008,30.373-6.409,54.115-.2,11.56.072,22.837.468,32.259-1.709-10.314-4.018-23.025-6.921-36.364C96.484,404.8,85.845,376.2,74.124,362.353c4.446,2.966,22.543,14.479,24.957,7.036,2.755-8.494-26.038-13.861-26.038-13.861s15.063-3.549,12.267-5.841-15.316,1-15.316,1c-.1-1.018,6.683-20.7-.592-21.522s-4.24,19.432-4.24,19.432-28.2-40.88-34.363-35.645S59.006,348.7,59.006,348.7s-45.521-18.61-50.819-9.863,44.1,14.64,44.1,14.64-64.735,20.8-50.144,33.231,53.192-28.395,53.192-28.395S3.8,413.775,14.983,422.943s48.946-60.859,48.946-60.859S45.155,421.493,56.5,421.91s11.7-58.195,11.7-58.195,3.623,46.913,13.648,44.378c7.665-1.938-1.481-28.037-6.213-40.221,12.419,18.179,22.031,53.219,28.649,84.584-2.947-4.255-15.267-6-15.267-6s-17.193-26.551-20.657-20.042,15.7,20.191,15.7,20.191-34.234-4.993-32.781,2.741,28.845.733,28.845.733-41.511,21.761-34.415,34.586S81.907,455.9,81.907,455.9s-12.666,22.494-5.938,28.163S87.4,456.04,87.4,456.04s3.134,28.118,9.564,23.883S91.3,453.94,91.3,453.94s.484.145,1.268.355c8.1,8.608,14.252,27.56,18.011,42.053l-28.861-.2a253.579,253.579,0,0,0,33.029,18.74c.034.186.053.292.057.312l.186-.034c.011.086.018.142.021.161l.53-.057c.353.17.706.341,1.059.509,7.933,3.778,15.98,7.335,24.153,10.449.7-5.65,1.332-11.01,1.78-14.839H149.1l.337-14.769-33.619-.234c-1.367-24.517-2.533-67.452,3.769-93.7,1.7,8.307,4.793,19.059,9.106,16.481,6.845-4.091-4.666-25.555-4.666-25.555s22.824,28.02,30.6,20.425-18.946-19.021-18.946-19.021,41.13,6.159,43.249-2.581-40.118-4.553-40.118-4.553,57.206-25.29,43.991-29.525M73.139,361.685s.142.1.406.278l-.211.184c-.126-.3-.2-.462-.2-.462m23.206,93.494c3.485.694,7.627,1.133,8.413-.462,2.374,11.435,4.345,22.308,5.9,31.606-.453-1.575-.923-3.11-1.408-4.574-3.965-11.951-8.286-20.837-12.909-26.57" transform="translate(0 -183.022)" fill="#a0eef9"/>
            <path id="Trazado_875837" data-name="Trazado 875837" d="M410.842,240.189s-3.871,5.384-8.222,12.338-7.822,14-16.879,14.705.4-50.67.4-50.67l17.73-11.046Z" transform="translate(-223.622 -120.367)" fill="#efb44b"/>
            <path id="Trazado_875838" data-name="Trazado 875838" d="M433.328,247.235c-.948,2.875-1.714,5.887-1.195,6.867,1.09,2.052,6.035,6.7,26.326,7.753s50.247-7.359,52.659-7.633c1.934-.222,2.867-2.664,3.27-4.274a16.472,16.472,0,0,0-.095-7.677,6.119,6.119,0,0,1-.295-1.93,5.534,5.534,0,0,1,.423-1.474,9.574,9.574,0,0,0,.837-3.811,7.578,7.578,0,0,0-.237-1.441c-.182-.716-.433-1.423-.614-2.138a12.889,12.889,0,0,1,.1-5.728c.145-.8.3-1.616.388-2.473a23.867,23.867,0,0,1,.476-2.72c.109-.481.23-.957.358-1.434.21-.815.44-1.625.665-2.431,1.239-4.484,2.706-8.9,4.258-13.287.211-.6.425-1.195.64-1.79.117-.333.238-.666.363-.995q.8-2.214,1.658-4.41c.4-1.009.09-2.84.124-3.9l.31-9.727c.112-3.534.629-7.263.1-10.733a28.793,28.793,0,0,1,.52-11.382,54.944,54.944,0,0,0-15.878-7.943c-2.9-.968-5.856-1.781-8.823-2.531-1.483-.375-2.971-.732-4.459-1.084-.389-.092-2.688-.283-2.917-.592-.069-.093-1.579-2.064-5.485-1.878-4,.191-25.6,2.47-25.609,2.469a8.691,8.691,0,0,0-2.865,1.171,10.082,10.082,0,0,0-2.268,1.638,8.137,8.137,0,0,0-.911,1.1c-.417.568-.626.442-1.334.329-1.255-.193-3.023.669-4.158,1.236-.4.2-.738.464-1.187.349-.307-.08-.609-.327-.927-.431a4.463,4.463,0,0,0-1.767-.236,3.806,3.806,0,0,0-1.843.7,6.138,6.138,0,0,0-.966.847c-.258.278-.677,1.13-.991,1.265,0,0-5.945,3.082-8.08,5.763s-4.266,9.154-4.266,9.154,6.359,23.47,6.575,34.651c.169,8.714-.085,11.589.1,13.773a12.571,12.571,0,0,0,.285,1.806c.019.081.039.162.063.243a30.722,30.722,0,0,0,2.3,5.518c.485.947.847,1.588.847,1.588a16.82,16.82,0,0,0-2.07,1.129c-1.816,1.162-4.079,3.111-3.455,5.366,1.007,3.643,1.322,5.255,1.322,5.255s-1.016,2.437-1.975,5.227c-.1.294-.2.592-.3.89" transform="translate(-251.628 -85.759)" fill="#efb44b"/>
            <path id="Trazado_875839" data-name="Trazado 875839" d="M490.106,156.993c.143-.931.718-.715.756.233.346,8.573,12.026,9.571,18.46,7.56a44.318,44.318,0,0,0,10.214-5.081c3.107-1.959,6.11-4.293,7.659-7.682.344-.751,1.594-.365,1.256.412-1.607,3.7-4.63,6.224-7.979,8.388-3.938,2.544-8.184,4.937-12.816,5.991a17.722,17.722,0,0,1-11.467-.991c-3.266-1.555-6.679-4.957-6.084-8.831" transform="translate(-287.005 -88.8)" fill="#d89b39"/>
            <g id="Grupo_1100978" data-name="Grupo 1100978" transform="translate(233.333 64.595)" opacity="0.5">
              <g id="Grupo_1100977" data-name="Grupo 1100977">
                <g id="Grupo_1100976" data-name="Grupo 1100976" clip-path="url(#clip-path-3)">
                  <path id="Trazado_875840" data-name="Trazado 875840" d="M563.631,155.935c.618.293,1.237.581,1.871.837.424.171.206.847-.226.679a16.781,16.781,0,0,1-1.95-.886c-.347-.188-.058-.8.305-.631" transform="translate(-563.17 -155.905)" fill="#d89b39"/>
                </g>
              </g>
            </g>
            <g id="Grupo_1100981" data-name="Grupo 1100981" transform="translate(231.877 66.678)" opacity="0.5">
              <g id="Grupo_1100980" data-name="Grupo 1100980">
                <g id="Grupo_1100979" data-name="Grupo 1100979" clip-path="url(#clip-path-4)">
                  <path id="Trazado_875841" data-name="Trazado 875841" d="M560.2,161.006l.617.465c.362.273-.019.866-.39.593l-.622-.457c-.372-.273.025-.88.395-.6" transform="translate(-559.656 -160.934)" fill="#d89b39"/>
                </g>
              </g>
            </g>
            <g id="Grupo_1100984" data-name="Grupo 1100984" transform="translate(222.321 70.558)" opacity="0.5">
              <g id="Grupo_1100983" data-name="Grupo 1100983">
                <g id="Grupo_1100982" data-name="Grupo 1100982" clip-path="url(#clip-path-5)">
                  <path id="Trazado_875842" data-name="Trazado 875842" d="M537.305,170.564q.337,1.21.755,2.393c.159.449-.573.61-.727.16q-.4-1.188-.728-2.4c-.119-.447.576-.6.7-.154" transform="translate(-536.592 -170.298)" fill="#d89b39"/>
                </g>
              </g>
            </g>
            <g id="Grupo_1100987" data-name="Grupo 1100987" transform="translate(220.245 71.615)" opacity="0.5">
              <g id="Grupo_1100986" data-name="Grupo 1100986">
                <g id="Grupo_1100985" data-name="Grupo 1100985" clip-path="url(#clip-path-6)">
                  <path id="Trazado_875843" data-name="Trazado 875843" d="M531.854,172.857a.359.359,0,0,1,.425.271q.076.727.152,1.453c.05.473-.683.63-.724.16q-.062-.73-.125-1.458a.37.37,0,0,1,.271-.425" transform="translate(-531.581 -172.849)" fill="#d89b39"/>
                </g>
              </g>
            </g>
            <g id="Grupo_1100990" data-name="Grupo 1100990" transform="translate(208.828 70.409)" opacity="0.5">
              <g id="Grupo_1100989" data-name="Grupo 1100989">
                <g id="Grupo_1100988" data-name="Grupo 1100988" clip-path="url(#clip-path-7)">
                  <path id="Trazado_875844" data-name="Trazado 875844" d="M504.084,172.553c.469-.8.977-1.552,1.381-2.388.2-.421.907-.2.7.234a13.423,13.423,0,0,1-1.457,2.566.375.375,0,0,1-.627-.412" transform="translate(-504.025 -169.939)" fill="#d89b39"/>
                </g>
              </g>
            </g>
            <g id="Grupo_1100993" data-name="Grupo 1100993" transform="translate(207.287 69.207)" opacity="0.5">
              <g id="Grupo_1100992" data-name="Grupo 1100992">
                <g id="Grupo_1100991" data-name="Grupo 1100991" clip-path="url(#clip-path-8)">
                  <path id="Trazado_875845" data-name="Trazado 875845" d="M500.438,168.477a5.206,5.206,0,0,0,1.076-1.266c.249-.415.87,0,.627.412a5.3,5.3,0,0,1-1.193,1.421c-.377.312-.883-.243-.51-.567" transform="translate(-500.307 -167.038)" fill="#d89b39"/>
                </g>
              </g>
            </g>
            <g id="Grupo_1100996" data-name="Grupo 1100996" transform="translate(205.607 67.449)" opacity="0.5">
              <g id="Grupo_1100995" data-name="Grupo 1100995">
                <g id="Grupo_1100994" data-name="Grupo 1100994" clip-path="url(#clip-path-9)">
                  <path id="Trazado_875846" data-name="Trazado 875846" d="M496.366,163.373a2.129,2.129,0,0,1,1.009-.566c.469-.116.622.6.161.73a1.39,1.39,0,0,0-.656.407c-.338.358-.863-.219-.515-.571" transform="translate(-496.251 -162.795)" fill="#d89b39"/>
                </g>
              </g>
            </g>
            <path id="Trazado_875847" data-name="Trazado 875847" d="M438.551,387.6a13.517,13.517,0,0,0,4.617,3.356,46.494,46.494,0,0,0,8.947,3.087,54.122,54.122,0,0,0,17.065,1.407c5.9-.459,11.592-2.118,17.413-3.112,10.393-1.777,21.691-.4,31.262-5.6a.339.339,0,0,0-.312-.6c-5.22,2.784-11.111,3.615-16.932,4.074a146.828,146.828,0,0,0-15.3,1.562c-5.66,1.046-11.222,2.6-16.993,2.954a53.309,53.309,0,0,1-16.66-1.609,48.39,48.39,0,0,1-7.681-2.645,12.685,12.685,0,0,1-5.127-3.757c-.1.294-.2.592-.3.89" transform="translate(-256.851 -226.129)" fill="#d89b39"/>
            <path id="Trazado_875848" data-name="Trazado 875848" d="M641.909,272.432a13.433,13.433,0,0,1,3.3,1.7.729.729,0,0,1-.8,1.218c-.992-.64-2.047-1.159-3.08-1.727-.674-.37-.127-1.415.576-1.189" transform="translate(-375.436 -159.54)" fill="#d89b39"/>
            <path id="Trazado_875849" data-name="Trazado 875849" d="M530.958,114.625a24.2,24.2,0,0,1-17.26,9.488c-3.07.148-7.006.3-9.6-1.562-1.709-1.229-1.45-3.113-.791-4.973,2.925-6.214,3.2-12.9,3.4-13.233,0-.005.008-.015.012-.02s0-.005,0-.005,0,0,.01.009a1.889,1.889,0,0,0,.085.248.871.871,0,0,0,.075.151.734.734,0,0,0,.117.143c.263.254,22.157-12.91,22.157-12.91s-2.026,16.562,1.8,22.665" transform="translate(-294.481 -53.859)" fill="#bb5122"/>
            <path id="Trazado_875850" data-name="Trazado 875850" d="M511.249,116.813h0c-.1.169-.218,1.944-.683,4.457a9.235,9.235,0,0,0,1.542.883,11.96,11.96,0,0,0,7.912.748q.134-.034.267-.071a11.96,11.96,0,0,0,5.51-3.368c1.61-1.731,2.267-3.039,3.678-6.214L513.43,117.08c-1.095.634-1.615.513-1.877.259a.729.729,0,0,1-.116-.143.831.831,0,0,1-.075-.151,1.87,1.87,0,0,1-.085-.248s-.006-.009-.01-.008S511.253,116.808,511.249,116.813Z" transform="translate(-299.028 -66.327)" fill="#4b3333"/>
            <path id="Trazado_875851" data-name="Trazado 875851" d="M435.079,230.466c2.3,11.971,4.489,24.248,3.488,36.483a1.075,1.075,0,0,1-2.145-.112c.838-12.147-.872-23.537-2.853-35.478-.188-1.133,1.291-2.031,1.51-.893" transform="translate(-253.923 -134.671)" fill="#fff3e1"/>
            <path id="Trazado_875852" data-name="Trazado 875852" d="M378.967,227.418a11.509,11.509,0,0,1-1.162,6.807s3.458,3.411,2.3,10.218-1.5,5.577.3,9.71,3,12.275-1.77,18.49-13.714,7.366-20.8,3.765-6.879-15.3-5.884-18.888,1.946-6.362,1.946-6.362-1.616-7.759.247-12.51,3.558-6.278,3.558-6.278-.47-6.487,3.642-7.889,17.621,2.937,17.621,2.937" transform="translate(-205.834 -131.311)" fill="#efb44b"/>
            <path id="Trazado_875853" data-name="Trazado 875853" d="M366.065,236.6a8.394,8.394,0,0,0,.328,1.176,7.183,7.183,0,0,0,4.887,4.427,12.777,12.777,0,0,0,7.159-.216,14.037,14.037,0,0,0,3.332-1.489,12.008,12.008,0,0,0,1.815-1.339,5.741,5.741,0,0,0,1.308-1.868,12.034,12.034,0,0,0,1.281-4.724,7.9,7.9,0,0,0-.073-1.51c-.046-.3-.105-.543.161-.757a.722.722,0,0,1,1.166.374c-.034.658.118,1.348.107,2.014a13.067,13.067,0,0,1-.371,3.331,14.031,14.031,0,0,1-.732,1.8.247.247,0,0,0,.04.308,10.3,10.3,0,0,1,1.971,5.487,32.263,32.263,0,0,1-.587,6.129c-.54,3.849,1.412,6.893,2.125,10.556.677,3.482-1.255,9.649-2.313,12.63-.345.973-1.049,1.04-.817.037.895-3.871,2.175-10.606,1.05-14.425-.97-3.294-2.147-5.688-1.59-9.229a26.1,26.1,0,0,0,.631-5.212,11.932,11.932,0,0,0-1.608-4.953c-2.626,3.765-8.041,5.075-12.4,4.954a8.892,8.892,0,0,1-8.419-7.159.8.8,0,0,1,1.552-.342" transform="translate(-213.477 -134.787)" fill="#d89b39"/>
            <g id="Grupo_1100999" data-name="Grupo 1100999" transform="translate(166.912 100.585)" opacity="0.5">
              <g id="Grupo_1100998" data-name="Grupo 1100998">
                <g id="Grupo_1100997" data-name="Grupo 1100997" clip-path="url(#clip-path-10)">
                  <path id="Trazado_875854" data-name="Trazado 875854" d="M403.168,243.11a.371.371,0,0,1,.74.039q-.1,1.783-.3,3.557c-.053.48-.808.443-.752-.039q.2-1.774.308-3.557" transform="translate(-402.857 -242.771)" fill="#d89b39"/>
                </g>
              </g>
            </g>
            <g id="Grupo_1101002" data-name="Grupo 1101002" transform="translate(161.278 103.681)" opacity="0.5">
              <g id="Grupo_1101001" data-name="Grupo 1101001">
                <g id="Grupo_1101000" data-name="Grupo 1101000" clip-path="url(#clip-path-11)">
                  <path id="Trazado_875855" data-name="Trazado 875855" d="M389.279,252.057a7.675,7.675,0,0,0,.335-1.472c.05-.476.79-.442.746.039a5.8,5.8,0,0,1-.372,1.669.374.374,0,0,1-.709-.236" transform="translate(-389.259 -250.245)" fill="#d89b39"/>
                </g>
              </g>
            </g>
            <g id="Grupo_1101005" data-name="Grupo 1101005" transform="translate(154.227 98.382)" opacity="0.5">
              <g id="Grupo_1101004" data-name="Grupo 1101004">
                <g id="Grupo_1101003" data-name="Grupo 1101003" clip-path="url(#clip-path-12)">
                  <path id="Trazado_875856" data-name="Trazado 875856" d="M372.954,237.709c.106-.473.817-.232.715.238-.229,1.056-.45,2.114-.689,3.168-.109.484-.832.236-.73-.243.225-1.056.468-2.109.7-3.163" transform="translate(-372.241 -237.453)" fill="#d89b39"/>
                </g>
              </g>
            </g>
            <g id="Grupo_1101008" data-name="Grupo 1101008" transform="translate(156.438 99.208)" opacity="0.5">
              <g id="Grupo_1101007" data-name="Grupo 1101007">
                <g id="Grupo_1101006" data-name="Grupo 1101006" clip-path="url(#clip-path-13)">
                  <path id="Trazado_875857" data-name="Trazado 875857" d="M377.594,240.723a6.514,6.514,0,0,0,.188-.921.382.382,0,0,1,.392-.353.377.377,0,0,1,.353.392,7.926,7.926,0,0,1-.213,1.122c-.125.471-.852.232-.721-.24" transform="translate(-377.578 -239.448)" fill="#d89b39"/>
                </g>
              </g>
            </g>
            <path id="Trazado_875858" data-name="Trazado 875858" d="M372.578,168.624s-.21,4.029,7.424,4.83,10.2-1.893,11.872-3.018,4-7.063,4.594-10.667-1.763-4.939-1.763-4.939,12.16-16.334,10.717-19.64-4.73-2.266-6.064.089-6.693,12.174-8.283,11.688-1.528-1.7-1.465-2.9,2.005-15.246.435-16.136-4.369-1.439-5.3.936-1.178,14.885-1.178,14.885-1.125-1.674-3.605-.592-2.69,5.111-2.371,6.744c0,0-3.16-1.376-5.023,3.375s.009,15.351.009,15.351" transform="translate(-217.722 -74.478)" fill="#bb5122"/>
            <path id="Trazado_875859" data-name="Trazado 875859" d="M378.932,178.02a19.081,19.081,0,0,1,1.839,3.93,15.908,15.908,0,0,0,.744,2.236q.385,1.388,2.209.695a3.332,3.332,0,0,0,.149-1.523c-.029-3.229-1.658-6.727-3.194-9.5-.388-.7.527-1.26,1.057-.844a.745.745,0,0,1,1.3.062c.786,1.546,1.494,3.136,2.223,4.711q.469,1.013.937,2.027l.625,1.352q.446,1.441,2.353.189c-.134-.15-.273-.294-.4-.452-1.02-1.259-2.334-2.974-1.513-4.632a3.471,3.471,0,0,1,1.19-1.389.651.651,0,0,1-.224-.435,55.506,55.506,0,0,0-1.315-6.69c-.217-.852.824-1.341,1.088-.536a41.67,41.67,0,0,1,1.717,6.9.787.787,0,0,1-.007.253c2.768-.571,6.4,1.816,8.261,3.063.741.5.341.832-.423.382-1.3-.762-9.421-4.313-8.8.115.132.951,1.393,2.167,2.045,2.814a11.243,11.243,0,0,0,3.773,2.428c.953.385.455,1.915-.507,1.526q-.366-.148-.721-.314a21.491,21.491,0,0,0,1.332,4.851c.32.914-.662,1.416-.971.5-.629-1.861-1.885-4.141-1.84-6.144a12.686,12.686,0,0,1-1.7-1.255c-.737,1.471-2.378,2.327-3.812.954a5.416,5.416,0,0,1-1.023-1.46c.329,1.665.393,3.549-.813,4.7a2.588,2.588,0,0,1-3.779-.516,9.939,9.939,0,0,1-1.223-3.078A25.1,25.1,0,0,0,377.748,178c-.525-.884.647-.827,1.184.023" transform="translate(-221.162 -97.698)" fill="#973a0c"/>
            <path id="Trazado_875860" data-name="Trazado 875860" d="M449.185,327.784a2.651,2.651,0,0,0,.1.384,10.371,10.371,0,0,0,.593,1.4,1.63,1.63,0,0,0,.612.742,1.2,1.2,0,0,0,.62.116,3.022,3.022,0,0,0,2.083-1.308c1.315-1.663,2.473-3.438,3.8-5.1.491-.609,2.083-3,3.112-2.691,1.571.481,8.426,14.4,14.456,13.518s9.457-13.072,11.8-12.152,13.221,14.252,17.262,13.265,7.845-12.757,10.63-12.612c2.28.118,9.62,5.575,12.214,7.553-.182-.716-.432-1.423-.615-2.138a12.9,12.9,0,0,1,.1-5.728c-2.461-2.079-11.086-9.286-12.771-9.717-1.969-.5-8.284,13.532-11.09,13.785s-12.865-13.436-16.865-13.245-8.284,13.532-12.283,13.723-10.4-14.9-13.18-15.048a1.5,1.5,0,0,0-.782.238c-2.284,1.19-3.931,4.408-5.237,6.49-1.184,1.9-2.251,3.856-3.342,5.8.485.947.847,1.588.847,1.588a16.823,16.823,0,0,0-2.07,1.129" transform="translate(-263.079 -183.046)" fill="#ffcc7b"/>
            <path id="Trazado_875861" data-name="Trazado 875861" d="M445.748,306.263a12.584,12.584,0,0,0,.285,1.806c.02.081.039.162.063.243q4.273-5.176,8.549-10.351c.66-.8,1.654-2.42,2.729-2.754,1.683-.523,2.545.771,3.5,1.866q2.174,2.495,4.152,5.147c1.257,1.689,3.076,5.913,5.7,5.83,1.415-.046,2.338-1.295,3.236-2.233q1.905-2,3.708-4.1c2.569-2.99,6.021-7.913,9.825-3.506,2.408,2.79,4.632,5.663,7.278,8.246,1.427,1.4,3.974,4.831,6.329,4.028,1.393-.478,2.272-2.188,3.064-3.3l3.3-4.635c1.071-1.5,2.335-4.151,4.06-4.955,1.991-.93,3.844,1.261,5.286,2.453q3.988,3.29,7.993,6.56c.109-.481.229-.957.358-1.434-3.206-2.784-6.406-5.623-9.771-8.188-2.82-2.154-5.081-.947-7,1.642-1.356,1.829-2.65,3.7-3.975,5.55-.929,1.3-2.869,5.3-4.8,4.585-.939-.348-2.171-1.9-2.92-2.613-.684-.654-1.359-1.323-2.018-2q-2.1-2.174-4.018-4.51c-1.785-2.183-3.558-5.148-6.787-4.881-3.586.3-5.774,4.076-7.9,6.515q-1.247,1.431-2.556,2.815a9.836,9.836,0,0,1-1.973,2.024c-1.961,1.039-3.461-2.482-4.38-3.763q-1.93-2.685-4.061-5.218c-1.011-1.2-2.162-2.993-3.692-3.575-2.707-1.03-4.788,2.081-6.24,3.837q-3.665,4.435-7.331,8.874" transform="translate(-261.066 -171.808)" fill="#ffcc7b"/>
            <path id="Trazado_875862" data-name="Trazado 875862" d="M349.148,344.833a7.5,7.5,0,0,0,6.37,6.381c.945.124.88,1.612-.078,1.492a8.98,8.98,0,0,1-7.8-7.54c-.143-.979,1.364-1.316,1.508-.332" transform="translate(-203.6 -201.615)" fill="#5f7ab3"/>
            <path id="Trazado_875863" data-name="Trazado 875863" d="M517.356,10.822S528.253.9,534.234.154s7.849,1.5,9.718.748,7.1-.374,8.6,2.616-.748,7.475-.748,7.475a22.384,22.384,0,0,1,2.991,7.476,15.883,15.883,0,0,1-.748,7.849l-24.3-12.334Z" transform="translate(-303.005 0)" fill="#61b7b0"/>
            <path id="Trazado_875864" data-name="Trazado 875864" d="M540.975,49.485s-6.143,23.45-12.6,27.983c-5.154,3.618-14.8,5.077-23.058-1.4-7.4-5.8-3.465-23.451-2.324-27.363.763-2.616,1.833-6.364,2.743-8.933a6.466,6.466,0,0,1,1.1-2.493,10.519,10.519,0,0,1,2.2-.857A16.836,16.836,0,0,0,511.1,35.3c1.366-.874,2.733-1.989,4.355-2a8.111,8.111,0,0,1,2.81.73,8.508,8.508,0,0,0,5.882.429c.854-.325,1.712-.89,2.6-.689,1.1.248,3.177,4.9,3.906,6.156.709,1.224,3.7.513,4.61,1.6,2.151,2.566,2.669,6.553,5.714,7.96" transform="translate(-293.38 -19.504)" fill="#bb5122"/>
            <path id="Trazado_875865" data-name="Trazado 875865" d="M536.484,99.5a.921.921,0,0,1,1.2-.464l1.325.6a.91.91,0,0,1-.736,1.663l-1.325-.6a.925.925,0,0,1-.464-1.2" transform="translate(-314.164 -57.957)" fill="#973a0c"/>
            <path id="Trazado_875866" data-name="Trazado 875866" d="M526.984,49.716a1.027,1.027,0,0,0,.456-.928.826.826,0,0,0-1.057-.68,16.431,16.431,0,0,0-5.7,2.649.882.882,0,1,0,1.059,1.389,14.569,14.569,0,0,1,4.834-2.25,1.127,1.127,0,0,0,.4-.18" transform="translate(-304.702 -28.161)" fill="#1a1a1a"/>
            <path id="Trazado_875867" data-name="Trazado 875867" d="M566.47,66.466a1.028,1.028,0,0,1-.113-1.028.827.827,0,0,1,1.226-.279,16.431,16.431,0,0,1,4.453,4.43.882.882,0,1,1-1.469.945,14.566,14.566,0,0,0-3.778-3.762,1.124,1.124,0,0,1-.319-.307" transform="translate(-331.651 -38.07)" fill="#1a1a1a"/>
            <path id="Trazado_875868" data-name="Trazado 875868" d="M526.982,116.627c.107.063.214.111.322.164.055.02.11.036.165.058,2.67,1.1,5.813-1.29,8.039-3.813a34.877,34.877,0,0,1-4.061-.955,42.472,42.472,0,0,1-6.3-2.072c-.075,2.627.082,5.588,1.838,6.617" transform="translate(-307.558 -64.431)" fill="#fff"/>
            <path id="Trazado_875869" data-name="Trazado 875869" d="M520.049,74.269a1.478,1.478,0,0,1,1.378-1c1.058.03,2.347,1.079,1.585,2.216a1.88,1.88,0,0,1-.455.448,2.182,2.182,0,0,1-.617.338,1.528,1.528,0,0,1-1.238-.145,1.588,1.588,0,0,1-.724-1.017,1.492,1.492,0,0,1,.07-.844" transform="translate(-304.523 -42.914)" fill="#1a1a1a"/>
            <path id="Trazado_875870" data-name="Trazado 875870" d="M564.38,85.133l.049-.057a1.507,1.507,0,0,1,.922-.54,2.9,2.9,0,0,1,1.76.63c1.021.8.206,2.72-.881,3a1.728,1.728,0,0,1-1.4-.288,2.39,2.39,0,0,1-.849-1.178,1.508,1.508,0,0,1,.4-1.565" transform="translate(-330.263 -49.506)" fill="#1a1a1a"/>
            <path id="Trazado_875871" data-name="Trazado 875871" d="M506.3,45.623s-2.99,5.233-2.99,6.728a8.043,8.043,0,0,1-.747,3.738c-.374.374-1.122,4.859-1.122,6.728s0,6.728,1.5,7.849,8.97-1.495,13.456.374,9.344,5.981,10.839,5.607,6.728-6.354,7.475-10.84,0-6.354,1.122-7.1c0,0,.374-6.243,0-7.607s3.738,3.869,3.738,3.869l1.122,6.728-2.616,4.111s-4.112,11.587-10.839,19.062a16.054,16.054,0,0,1-15.7,4.859s-8.223,1.5-10.092-5.98c0,0-7.384-5.456-.328-27.957,0,0-.419-6.8,1.823-10.167s3.364,0,3.364,0" transform="translate(-291.702 -25.845)" fill="#1a1a1a"/>
            <path id="Trazado_875872" data-name="Trazado 875872" d="M523.359,118.1l10.839,2.243s-2.616,2.616-5.233,1.869-5.607-4.112-5.607-4.112" transform="translate(-306.521 -69.171)" fill="#fff"/>
            <path id="Trazado_875873" data-name="Trazado 875873" d="M503.219,40.524A11.451,11.451,0,0,1,511.255,29.5c10.092-3.364,24.665,5.443,27.285,9.718a15.468,15.468,0,0,1,1.682,11.774,12.889,12.889,0,0,0,5.981-8.223,14.9,14.9,0,0,0-.935-10.279,31.571,31.571,0,0,0-21.3-13.83c-14.951-2.616-20,6.541-20.745,8.036s-2.927,9.988,0,13.83" transform="translate(-293.856 -10.654)" fill="#61b7b0"/>
            <path id="Trazado_875874" data-name="Trazado 875874" d="M560.731,32.009c-.683-3.113-2.943-5.469-5.156-7.624a34.121,34.121,0,0,0-8.381-6.432c-5.692-2.853-13.153-3.987-19.241-1.695a.576.576,0,0,0,.306,1.11c6.281-1.167,12.349-1.06,18.186,1.867a30.5,30.5,0,0,1,7.412,5.556c2.308,2.222,5.048,4.367,5.971,7.53.26.891,1.1.589.9-.312" transform="translate(-308.976 -8.805)" fill="#338c81"/>
            <path id="Trazado_875875" data-name="Trazado 875875" d="M514.292,31.2a19,19,0,0,0-1.049,5.862.317.317,0,0,0,.634,0,21.031,21.031,0,0,1,1.043-5.689c.134-.4-.494-.568-.628-.173" transform="translate(-300.596 -18.14)" fill="#338c81"/>
            <path id="Trazado_875876" data-name="Trazado 875876" d="M521.227,29.108a7.414,7.414,0,0,0-1.282,3.368c-.054.429.615.421.672,0a6.936,6.936,0,0,1,1.185-3.032c.244-.354-.332-.685-.575-.336" transform="translate(-304.52 -16.961)" fill="#338c81"/>
            <path id="Trazado_875877" data-name="Trazado 875877" d="M568.382,30.9a11.85,11.85,0,0,1-1.115,3.419c-.2.4.4.76.607.355a12.461,12.461,0,0,0,1.175-3.591c.071-.435-.594-.624-.667-.184" transform="translate(-332.213 -17.948)" fill="#338c81"/>
            <path id="Trazado_875878" data-name="Trazado 875878" d="M573.007,38.478a8.735,8.735,0,0,1-1.362,3.67.283.283,0,0,0,.443.341,6.692,6.692,0,0,0,1.606-4.011c.039-.441-.644-.436-.686,0" transform="translate(-334.778 -22.343)" fill="#338c81"/>
            <path id="Trazado_875879" data-name="Trazado 875879" d="M589.353,48.729A13.924,13.924,0,0,1,587.9,51.1c-.275.361.339.717.61.356a13.871,13.871,0,0,0,1.437-2.377c.189-.4-.4-.748-.595-.348" transform="translate(-344.282 -28.436)" fill="#338c81"/>
            <path id="Trazado_875880" data-name="Trazado 875880" d="M141.456,426.727c-4.709,7.958-15.226,9.285-22.865,4.979a24.7,24.7,0,0,1-10.382-11.933,102.5,102.5,0,0,1-1.062-11.724c-.037-.8-1.277-.808-1.251,0,.06,1.852.146,3.736.285,5.625a43.574,43.574,0,0,1-.988-5.969c-.073-.759-1.258-.778-1.2,0a39.091,39.091,0,0,0,2.928,12.455c1.09,6.722,3.325,13.18,8.085,18.278,3.245,3.475,7.512,5.947,12.4,5.354,4.932-.6,8.932-3.808,11.708-7.771.513-.732-.675-1.4-1.19-.7-2.8,3.846-6.85,7.059-11.809,7.17-4.87.109-8.9-3.213-11.7-6.905a31.341,31.341,0,0,1-5.193-11.042,24.282,24.282,0,0,0,9.615,8.863c8.195,4.116,18.956,2.267,23.825-5.98a.7.7,0,0,0-1.2-.7" transform="translate(-60.904 -238.447)" fill="#2b2b2b"/>
            <path id="Trazado_875881" data-name="Trazado 875881" d="M531.917,564.6c-2.894-54.974-9.034-159.108-9.034-159.108L442.2,401.662s-8.047,68.815-7.75,111.178c.2,29.021,2.211,59.636,4.032,76.542A150.376,150.376,0,0,0,478.789,588c-.3-20.028-1.717-56.623-1.63-69.508.12-17.613,1.843-40.052,1.843-40.052s9.63,50.128,12.749,70.083c1.622,10.374,3.242,24.393,4.471,35.624q4.724-1.3,9.382-2.861c9.567-3.2,18.441-9.211,26.313-16.688" transform="translate(-254.445 -235.245)" fill="#6168aa"/>
            <path id="Trazado_875882" data-name="Trazado 875882" d="M514.609,485.205c.055-.833,1.356-1.067,1.5-.163a112.9,112.9,0,0,0,2.834,13.269c1.279,4.487,2.534,8.98,3.683,13.5,1.122,4.415,2.133,8.858,3,13.332.859,4.44,2.041,9.242,2.029,13.782a.957.957,0,0,1-1.882.2c-.547-2.31-.688-4.755-1.06-7.1q-.536-3.373-1.2-6.724c-.9-4.589-1.956-9.147-3.09-13.681-1.1-4.408-2.309-8.786-3.525-13.162-1.178-4.236-2.586-8.8-2.292-13.257" transform="translate(-301.373 -283.741)" fill="#333a74"/>
            <g id="Grupo_1101011" data-name="Grupo 1101011" transform="translate(214 243.975)" opacity="0.5">
              <g id="Grupo_1101010" data-name="Grupo 1101010">
                <g id="Grupo_1101009" data-name="Grupo 1101009" clip-path="url(#clip-path-14)">
                  <path id="Trazado_875883" data-name="Trazado 875883" d="M517.508,684.284q-.194-23.8.183-47.6c.248-15.864.708-31.724,1.242-47.581a.25.25,0,0,0-.5,0c-.417,8.951-1.086,18.587-1.337,27.545-.445,15.86-.539,31.718-.582,47.585-.033,11.767.164,23.166.4,34.74.255-.026.51-.057.764-.084q-.114-7.3-.175-14.6" transform="translate(-516.51 -588.857)" fill="#333a74"/>
                </g>
              </g>
            </g>
            <g id="Grupo_1101014" data-name="Grupo 1101014" transform="translate(182.335 176.174)" opacity="0.5">
              <g id="Grupo_1101013" data-name="Grupo 1101013">
                <g id="Grupo_1101012" data-name="Grupo 1101012" clip-path="url(#clip-path-15)">
                  <path id="Trazado_875884" data-name="Trazado 875884" d="M444.427,425.213c-1.118,10.5-2.9,28.295-4.345,47.545L530.2,488.4c-1.524-26.547-2.9-50.1-3.577-61.628Z" transform="translate(-440.082 -425.213)" fill="#333a74"/>
                </g>
              </g>
            </g>
            <path id="Trazado_875885" data-name="Trazado 875885" d="M551.913,443.259c1.411.706,27.164,2.117,28.576,2.469,1.654.413,1,115.21.77,148.652A78.218,78.218,0,0,0,599.5,581.486l.747-152.338-48.332,10.583s-1.411,2.822,0,3.528" transform="translate(-322.877 -251.343)" fill="#b0c1d3"/>
            <path id="Trazado_875886" data-name="Trazado 875886" d="M640.287,406.691l-58.979,19.888s-.706,4.234,0,4.234,21.167.706,22.226,1.058c.874.292,2.471,107.484,3,144.751a91.014,91.014,0,0,0,14.238-12.073c-.083-45.047-.217-136.115.048-136.912.311-.932,15.4-12.811,19.957-16.112q-.292-2.413-.49-4.835" transform="translate(-340.277 -238.191)" fill="#93aabc"/>
            <path id="Trazado_875887" data-name="Trazado 875887" d="M207.566,476.55c-.053.207-.1.414-.151.621a.438.438,0,0,0-.049-.028c0-.005,0-.01,0-.016.019-.787-1.158-.771-1.213,0-.057.8-.788,1.343-.672,2.176a1.549,1.549,0,0,0,.444.83,15.371,15.371,0,0,1-2.58,3.818,10.426,10.426,0,0,0-2,4.461.543.543,0,0,0,1.047.289,16.153,16.153,0,0,1,3.09-5.463,8.578,8.578,0,0,0,1.5-2.648c.689-.069,1-.887,1.248-1.441a7.565,7.565,0,0,0,.681-2.418c.064-.776-1.154-.918-1.343-.182" transform="translate(-117.916 -278.823)" fill="#2b2b2b"/>
            <path id="Trazado_875888" data-name="Trazado 875888" d="M208.945,537.429a47.434,47.434,0,0,0-3.655-5.448,9.317,9.317,0,0,0,1.723-1.017,17.117,17.117,0,0,0,.3-4.427,12.873,12.873,0,0,0,.811-1.076,9.072,9.072,0,0,0,1.632-5.844,10.75,10.75,0,0,0-2.558-5.84l-.146-.234c-.128-3.24-.277-5.763-.39-6.215-.353-1.411-7.056-2.822-7.056-2.822l.692,19.377c-.126-.44-.241-.885-.341-1.334-.116-.524-.914-.3-.8.221a21.222,21.222,0,0,0,1.244,3.921l.266,7.448s1.724-.754,3.386-1.548l.372.459c1.9,2.93,4.085,5.634,4.7,9.312a16.019,16.019,0,0,1-.095,6.3,8.017,8.017,0,0,1-2.347,4.115,6.126,6.126,0,0,1-5.868.878,2.775,2.775,0,0,1-.825-.652.583.583,0,0,0-.871-.067,7.564,7.564,0,0,1-2.45-2.087c-.333-.455-1.1-.022-.768.449a8.159,8.159,0,0,0,3.026,2.578.833.833,0,0,0,.077.114c1.752,2.106,5.82,1.9,7.966.5,2.414-1.569,3.437-4.748,3.7-7.458a17.794,17.794,0,0,0-1.719-9.611m-.463-17.812a8.058,8.058,0,0,1-1.171,4.717c-.017-2.645-.087-5.721-.179-8.529a8.4,8.4,0,0,1,1.35,3.812" transform="translate(-114.682 -295.479)" fill="#2b2b2b"/>
            <path id="Trazado_875889" data-name="Trazado 875889" d="M83.856,410.208c-.391.93-.777,1.861-1.15,2.8-.157.394-.309.789-.461,1.185,10.565,1.686,29.694,4.151,30.209,4.924s2.959,81.761,4.2,124.227a176.038,176.038,0,0,0,21.258,15.245l-3.589-124.3,8.385-19.756Z" transform="translate(-48.169 -240.251)" fill="#b0c1d3"/>
            <path id="Trazado_875890" data-name="Trazado 875890" d="M188.367,422.445s-12.348,2.822-12.348,3.881c0,.778,2.094,86.826,3.206,129.747,4.4,3.267,8.951,6.324,13.613,9.2l-3.589-124.3,8.211-19.348Z" transform="translate(-103.091 -246.933)" fill="#93aabc"/>
            <path id="Trazado_875891" data-name="Trazado 875891" d="M197.732,420.633s0,22.225,1.058,22.931a13.284,13.284,0,0,0,7.056,1.764c3.528,0,6-1.411,6.35-2.117s0-22.578,0-22.578Z" transform="translate(-115.808 -246.356)" fill="#2b2b2b"/>
            <path id="Trazado_875892" data-name="Trazado 875892" d="M330.037,375.165s-196.5-9.878-199.325-9.878-92.077,11.995-92.43,13.406a29.1,29.1,0,0,0,0,5.645S265.124,404.8,267.946,404.8s61.385-23.99,62.09-24.7,0-4.939,0-4.939" transform="translate(-22.329 -213.941)" fill="#a9644c"/>
            <path id="Trazado_875893" data-name="Trazado 875893" d="M191.954,380.619s1.411-2.117,6.7-1.764,4.234,1.764,3.528,2.469-10.936,2.822-11.289,4.586-4.234-.706-4.234-.706Z" transform="translate(-109.324 -221.864)" fill="#d3dadd"/>
            <path id="Trazado_875894" data-name="Trazado 875894" d="M197.552,226s-69.146-3.175-70.91-5.292c-.6-.721-5.4-10.377-9.878-22.578a11.8,11.8,0,0,1-.3-3.751c-8.489-23.3-19.056-53.892-18.4-55.87,1.058-3.175,66.677-7.761,70.2-7.408s31.045,93.841,31.045,94.194-1.764.706-1.764.706" transform="translate(-57.418 -76.772)" fill="#fff"/>
            <path id="Trazado_875895" data-name="Trazado 875895" d="M265.209,131.113a13.237,13.237,0,0,0-1.658.05c2.055,5.1,10.49,25.559,30.326,94.821l.614.029s1.764-.353,1.764-.706-27.517-93.841-31.045-94.194" transform="translate(-154.357 -76.784)" fill="#e5eaec"/>
            <path id="Trazado_875896" data-name="Trazado 875896" d="M213.955,284.822,142.163,285s-1.411,4.234,4.234,6.35,50.448,1.764,57.151,0a20.9,20.9,0,0,0,10.407-6.526" transform="translate(-83.17 -166.815)" fill="#e5eaec"/>
            <path id="Trazado_875897" data-name="Trazado 875897" d="M257.792,329c-4.158-.531-8.5-1.036-12.708-1.156-.415-2.041-2.047-7.424-2.762-9.749,4.247-.039,8.833.314,13.02.274a.687.687,0,0,0,0-1.373c-4.943-.478-10.185-.35-15.2-.423a.636.636,0,0,0-.46,1.024.651.651,0,0,0,.019.092c1.1,3.542,2.333,7.059,3.741,10.491a.752.752,0,0,0,.128.205.476.476,0,0,0,.4.532,124.609,124.609,0,0,0,13.821,1.422c.879.054.83-1.233,0-1.339" transform="translate(-140.302 -185.413)" fill="#e5eaec"/>
            <g id="Grupo_1101017" data-name="Grupo 1101017" transform="translate(122.065 126.265)" opacity="0.5">
              <g id="Grupo_1101016" data-name="Grupo 1101016">
                <g id="Grupo_1101015" data-name="Grupo 1101015" clip-path="url(#clip-path-16)">
                  <path id="Trazado_875898" data-name="Trazado 875898" d="M301.679,323.841c-1.116-6.325-3.5-12.652-5.76-18.645-.293-.779-1.552-.445-1.26.347q1.691,4.58,3.133,9.243c.959,3.107,1.653,6.306,2.654,9.394a.64.64,0,0,0,1.233-.34" transform="translate(-294.616 -304.753)" fill="#e5eaec"/>
                </g>
              </g>
            </g>
            <path id="Trazado_875899" data-name="Trazado 875899" d="M190.118,326.119s3.17,4.066,3.349,5.737.532,3.436.532,3.436-10.231,18.7-9.878,19.4-10.231-1.764-10.231-1.764l4.233-9.173Z" transform="translate(-101.844 -191.001)" fill="#fff"/>
            <path id="Trazado_875900" data-name="Trazado 875900" d="M221.284,352.266c-1.411-1.059-6.879-1.588-11.113-.529a81.373,81.373,0,0,1-22.225,2.117c-10.231-.353-15.523-1.764-15.523-3.175s13.053-23.637,13.759-23.99c.194-.1.521.34.9,1.015a33.386,33.386,0,0,1,2.034,6.8c.163.876,1.49.5,1.334-.367a30.278,30.278,0,0,0-3.32-9.388.573.573,0,0,0-.774-.258.726.726,0,0,0-.194-.045,18,18,0,0,0-5.464.4c-.779.174-.433,1.291.324,1.175.3-.046.6-.083.9-.116a2.372,2.372,0,0,0-.145.262s-16.229,26.106-14.817,28.223,17.992,4.586,36.337,3.175,19.4-4.234,17.992-5.292" transform="translate(-97.731 -189.984)" fill="#d3dadd"/>
            <path id="Trazado_875901" data-name="Trazado 875901" d="M159.919,331.937a.693.693,0,0,0-.534.323.624.624,0,0,0-.107.064.655.655,0,0,0-.233.619c-3.783,1.928-7.85,3.122-11.761,4.7.213-.257.434-.51.668-.754a17.84,17.84,0,0,1,5.972-4.085c.01.007.019.016.03.023a.971.971,0,0,0,.194.1h.006c.627,0,1.255.02,1.881.031.262-.177.532-.341.807-.5v-1.665c-1.023-.082-2.048-.07-3.073-.066a.548.548,0,0,0-.034.053.574.574,0,0,0-.164.377,4.423,4.423,0,0,0,0,.462,18.806,18.806,0,0,0-8.773,7.1c-.445.208-.888.422-1.325.649a18.536,18.536,0,0,0-5.889,4.553,29.95,29.95,0,0,0-3.124,5.71,16.324,16.324,0,0,1-2.789.5c-6.243.578-12.657-1.584-18.762-2.629-2.969-.508-5.958-.93-8.963-1.156a27.183,27.183,0,0,0-7.854.137c-4.369.976-6.445,5.372-5.655,9.5-4.255.029-7.66.728-7.66,1.586,0,.877,3.554,1.588,7.938,1.588s7.938-.711,7.938-1.588c0-.73-2.469-1.344-5.826-1.529a5.758,5.758,0,0,1,.565-3.985c.941-2.069,2.791-1.925,4.746-1.612a57.391,57.391,0,0,1,8.287,2.077c5.193,1.649,10.394,3.945,15.829,4.656a12.648,12.648,0,0,0,11.936-4.575,12.472,12.472,0,0,0,1.137-1.813,14.134,14.134,0,0,0,8.029-6.774c.832-1.449,1.586-2.929,2.465-4.328,4.522-1.962,9.557-2.946,13.62-5.754a.609.609,0,0,0,.486.235.731.731,0,0,0,.4-.143.669.669,0,0,0,.647-.31,1.169,1.169,0,0,0-1.056-1.773m-32.976,23.785c-3.4.759-6.925-.251-10.176-1.231-5.771-1.741-11.373-4.115-17.324-5.217-2.284-.423-5.116-1.1-6.694,1.1-.128.177-.247.365-.361.558a6.339,6.339,0,0,1,.418-.737c1.643-2.482,4.7-2.667,7.406-2.63a97.658,97.658,0,0,1,17.365,2.205c5.123,1,10.444,2.436,15.687,1.527.087-.015.171-.035.257-.052a10.919,10.919,0,0,1-6.58,4.48m12.869-9.1a11.021,11.021,0,0,1-3.642,2.42,26.418,26.418,0,0,1,1.515-3,15.5,15.5,0,0,1,5.718-5.166c.058-.033.117-.061.175-.093a25.172,25.172,0,0,1-3.766,5.842" transform="translate(-48.484 -193.694)" fill="#2b2b2b"/>
            <path id="Trazado_875902" data-name="Trazado 875902" d="M38.3,392.861a.076.076,0,0,0-.015.022,29.135,29.135,0,0,0,0,5.645S265.124,418.99,267.947,418.99s61.385-23.99,62.09-24.7c.624-.624.145-4,.026-4.778-15.6,5.7-60.6,22.126-61.763,22.418-1.3.326-199.592-16.491-230-19.072" transform="translate(-22.33 -228.132)" fill="#824334"/>
            <path id="Trazado_875903" data-name="Trazado 875903" d="M272.662,374.239v2.244s41.135,6.731,41.883,6.731,14.21-4.487,14.21-5.235v-2.244s-41.135-4.487-41.509-4.487-14.584,2.992-14.584,2.992" transform="translate(-159.693 -217.432)" fill="#fff"/>
            <path id="Trazado_875904" data-name="Trazado 875904" d="M314.171,384.906c-.706,0-37.428-5.669-41.509-6.3v2.186s41.135,6.731,41.883,6.731,14.21-4.487,14.21-5.235v-2.212c-4.449,1.541-14.011,4.83-14.584,4.83" transform="translate(-159.693 -221.743)" fill="#e5eaec"/>
            <path id="Trazado_875905" data-name="Trazado 875905" d="M229.886,367.955s2.541.844,8.891-.009,9.736-1.7,9.735-2.55-3.814-3.383-10.588-3.377-14.391,4.248-8.039,5.936" transform="translate(-133.244 -212.027)" fill="#fff"/>
            <path id="Trazado_875906" data-name="Trazado 875906" d="M246.361,367.625a19.911,19.911,0,0,0-8.4,1.407,10.541,10.541,0,0,1-4.479,1.294,10.716,10.716,0,0,1-4.517-1.417.26.26,0,0,0-.261.449,8.049,8.049,0,0,0,7.86,1.123,27.2,27.2,0,0,1,4.428-1.632,43.612,43.612,0,0,1,5.371-.5.364.364,0,0,0,0-.728" transform="translate(-133.878 -215.305)" fill="#e5eaec"/>
            <path id="Trazado_875907" data-name="Trazado 875907" d="M617.75,230.63c2.117-2.469-1.764-6.35-1.764-6.35s2.117-5.292,1.764-7.761-2.822-6.35-4.586-8.82-2.293-23.46-7.585-30.869-16.934-11.642-16.934-11.642l-7.585,12.877s2.822,23.99,2.822,27.87,3.175,10.584,3.175,13.759,2.822,13.759,2.822,13.759-5.292,3.175-5.9,2.822-2.215-.353-5.391,0-4.233,3.881-4.939,3.881-12.115-.392-12.115-.392l-2.349,12.74s4.939,4.586,15.875,6.35,32.457,1.764,40.571-6.7,2.117-21.52,2.117-21.52" transform="translate(-327.505 -96.747)" fill="#efb44b"/>
            <path id="Trazado_875908" data-name="Trazado 875908" d="M614.518,268.011a19.527,19.527,0,0,0-15.345-.452.676.676,0,0,0-.434.691q-.688.2-1.359.443a29.963,29.963,0,0,0-4.62,2.2c-.207.119-.419.255-.636.4a1.091,1.091,0,0,0-.091-.2,8.3,8.3,0,0,1-1.218-4.335c.009-1.337.618-2.628.423-3.968-.205-1.414-.848-2.678-.987-4.137-.122-1.272-.134-2.551-.3-3.819-.354-2.764-1.42-5.381-1.859-8.136-.5-3.163-1.63-9.911-1.729-13.106a1.034,1.034,0,0,0-2.067,0c.052,3.172,1.21,9.872,1.666,13.016s1.712,6.129,1.99,9.283c.125,1.418.13,2.848.37,4.254a12.349,12.349,0,0,0,.44,1.768,5.7,5.7,0,0,1,.2,2.887,10.319,10.319,0,0,0,1.431,7.249,1,1,0,0,0,.253.274,6.516,6.516,0,0,1-3.574,1.5c-3.032-.072-5.627.112-8.189,1.98-.583.425-1.128,1.251-1.728,1.583-.658.364-2.043.117-2.751.119-2.218,0-8.316.348-10.534.345a.927.927,0,0,0,0,1.852c1.984.036,7.849-.284,9.833-.244,1.389.028,3.659.585,4.746-.41a11.279,11.279,0,0,1,4-2.766,12.143,12.143,0,0,1,4.931-.3c1.528.075,2.621-.866,3.841-1.663A44.357,44.357,0,0,1,595.7,271.7a18.7,18.7,0,0,1,11.907-1.7c1.265.217,1.83-1.623.541-1.961a16.27,16.27,0,0,0-2.592-.455,18.974,18.974,0,0,1,8.283,1.594c.786.342,1.483-.8.684-1.171" transform="translate(-329.726 -136.228)" fill="#d89b39"/>
            <g id="Grupo_1101020" data-name="Grupo 1101020" transform="translate(258.119 79.189)" opacity="0.5">
              <g id="Grupo_1101019" data-name="Grupo 1101019">
                <g id="Grupo_1101018" data-name="Grupo 1101018" clip-path="url(#clip-path-17)">
                  <path id="Trazado_875909" data-name="Trazado 875909" d="M642.364,192.127c-1.576-1.192-3.474-1.1-5.341-.815-2.442.372-4.725.944-6.575,2.664-3.6,3.35-5.987,8.355-7.429,12.983-.186.6.731.839.93.256a34.5,34.5,0,0,1,6.108-11.147,9.3,9.3,0,0,1,5.544-3.285c2.012-.413,4.379-.927,6.151.391.629.468,1.226-.583.612-1.047" transform="translate(-622.995 -191.129)" fill="#d89b39"/>
                </g>
              </g>
            </g>
            <path id="Trazado_875910" data-name="Trazado 875910" d="M462.831,365.712s-43.523,3.567-44.474,5.468c-.729,1.458.365,1.458.365,1.458s65.8,13.67,69.08,14.035,39.735-8.749,39.735-9.843v-1.823Z" transform="translate(-244.877 -214.19)" fill="#4d4d4d"/>
            <path id="Trazado_875911" data-name="Trazado 875911" d="M487.99,392.957c-1.717.344-62.636-12.253-69.689-13.714-.589,1.316.427,1.32.427,1.32s65.8,13.67,69.08,14.035,39.735-8.749,39.735-9.843v-1.767c-8.629,2.195-38,9.658-39.553,9.969" transform="translate(-244.883 -222.115)" fill="#1a1a1a"/>
            <path id="Trazado_875912" data-name="Trazado 875912" d="M531.286,377.142c-6.435-.883-12.875-1.73-19.313-2.582-3.536-.519-8.076-1.163-12.867-1.83-2.408-.39-4.81-.82-7.2-1.313a.27.27,0,0,0-.324.273c-11.105-1.525-21.429-2.9-21.763-2.9-.625,0-23.742,2.678-30.337,3.443-1.465-.278-2.933-.542-4.4-.779-.368-.059-.536.482-.157.571,4.348,1.02,8.765,1.8,13.146,2.662l12.984,2.568,25.969,5.131,14.764,2.917c.457.09.652-.61.193-.7l-11.956-2.362c2.275-.526,23.225-4.855,28.284-6.162,4.426.6,8.46,1.18,12.889,1.756.393.051.49-.642.095-.7" transform="translate(-254.598 -215.994)" fill="#2b2b2b"/>
            <path id="Trazado_875913" data-name="Trazado 875913" d="M617.212,392.557c-.185-.878-1.487-1.328-2.229-1.575a13.506,13.506,0,0,0-8.385.3c-.474.163-.231.484.254.33a14.393,14.393,0,0,1,5.652-.285,9.16,9.16,0,0,1,2.586.538c.3.116,1.337.563,1.236,1.069-.063.317-.916.769-1.156.919a9.12,9.12,0,0,1-5.019,1.235,16.89,16.89,0,0,1-3-.347c-.987-.2-3.242-.625-1.983-2.067.267-.305.022-.585-.259-.283-.533.574-.965,1.224-.389,1.947.727.914,2.145,1.072,3.206,1.249a11.409,11.409,0,0,0,7.705-.983c.662-.388,1.982-1.124,1.786-2.052" transform="translate(-353.893 -228.678)" fill="#2b2b2b"/>
            <path id="Trazado_875914" data-name="Trazado 875914" d="M616.52,393.89c-.9.017-3.211.23-2.8,1.358.341.944,2.169,1.023,2.971.971.624-.041,2.76-.557,2.023-1.635a.915.915,0,0,0-.3-.256,3.459,3.459,0,0,0-1.63-.435c-.061,0-.15,0-.259,0" transform="translate(-359.413 -230.693)" fill="#2b2b2b"/>
            <path id="Trazado_875915" data-name="Trazado 875915" d="M524.217,338.891c-.353,0-6.969,6.631-6.969,6.631l3.441,2.189,13.406-3.881-1.058-4.587Z" transform="translate(-302.942 -198.482)" fill="#ce7151"/>
            <path id="Trazado_875916" data-name="Trazado 875916" d="M563.306,317.131a1.108,1.108,0,0,0-1.1-.578,5.022,5.022,0,0,0-1.619,1.023.335.335,0,0,0,.077.584,1.4,1.4,0,0,0-.007.39.34.34,0,0,0,.371.566c.643-.328,1.262-.707,1.889-1.064.409-.232.713-.46.39-.922" transform="translate(-328.243 -185.389)" fill="#1a1a1a"/>
            <path id="Trazado_875917" data-name="Trazado 875917" d="M516.4,319.122s-23.7,14.321-26.106,15.522c-1.411.706-3.88,6-3.528,6s5.292-.706,6.7-1.764c1.646-1.234,24.342-17.992,25.048-18.345s0-2.822-2.117-1.411" transform="translate(-285.067 -186.65)" fill="#1a1a1a"/>
            <path id="Trazado_875918" data-name="Trazado 875918" d="M485.731,370.031c-.372.224-.747.445-1.131.648s-.046.739.33.564a9.3,9.3,0,0,0,1.144-.624c.366-.237.035-.815-.343-.588" transform="translate(-283.723 -216.69)" fill="#1a1a1a"/>
            <path id="Trazado_875919" data-name="Trazado 875919" d="M514.564,348.237a2.7,2.7,0,0,0-2.293-1.066.252.252,0,0,0,0,.5,2.214,2.214,0,0,1,1.866.97,2.629,2.629,0,0,1,.031,2.1.3.3,0,0,0,.579.16,2.943,2.943,0,0,0-.183-2.663" transform="translate(-299.884 -203.331)" fill="#1a1a1a"/>
            <path id="Trazado_875920" data-name="Trazado 875920" d="M537.3,348.806c-.03-4.3-4.88-10.816-4.88-10.816l-1.05-.717c-1.051-.717.027-2.469-1.369-3.9s-9.153-1.864-11.626-1.538-6.812,2.862-8.16,3.416-2.515,1.8-.031,2.822c2.084.858,4.6-.279,7.074-.958a15.531,15.531,0,0,1,6,.065c0,.353-6.009.993-7.427,1.683s-8.508,3.788-9.241,6.25,2.807,1.442,2.807,1.442a4.8,4.8,0,0,0,1.741,2.136c1.443,1.016,10.23.112,10.23.112-2.12.329-2.508,3.5.318,3.179,1.952-.223,5.588-.595,7.651-.8a57.667,57.667,0,0,0,7.966-2.375" transform="translate(-296.642 -194.291)" fill="#e9946b"/>
            <path id="Trazado_875921" data-name="Trazado 875921" d="M571.258,351.39a16.6,16.6,0,0,0-1.467-4.519,5.017,5.017,0,0,0-.762-.839,2.9,2.9,0,0,1-.812-1.431,4.336,4.336,0,0,0-1.1-2.059c-.276-.261-.6-.392-.882-.628-.863-.716-.9-1.259-1.009-2.388-.047-.5-.842-.5-.788,0,.093.861-.074,1.943.419,2.7a3.234,3.234,0,0,0,.8.677,3.444,3.444,0,0,1,1.356,2.3c.256,1.025.655,1.255,1.344,2.058a18.669,18.669,0,0,1,2.026,3.994c.379.773,1.076.946.873.134" transform="translate(-330.58 -198.633)" fill="#ce7151"/>
            <path id="Trazado_875922" data-name="Trazado 875922" d="M733.132,225.63a567.8,567.8,0,0,1-11.477,60.717c-.726,2.891,3.739,4.124,4.465,1.231a416.281,416.281,0,0,0,10.859-61.428c.208-2.173-3.545-2.709-3.847-.52" transform="translate(-422.612 -131.327)" fill="#cff6fc"/>
            <path id="Trazado_875923" data-name="Trazado 875923" d="M752.115,203.989c-2.843,0-2.848,4.418,0,4.418s2.848-4.418,0-4.418" transform="translate(-439.249 -119.472)" fill="#cff6fc"/>
          </g>
        </g>
      </g>
    </g>
    <g id="Grupo_1101084" data-name="Grupo 1101084" transform="translate(-10912.754 -7195.41)">
      <path id="Trazado_876264" data-name="Trazado 876264" d="M1.719,28.291l26.934,43.6L64.922,12.328Z" transform="translate(0.338 2.426)" fill="#31a8ff"/>
      <g id="Grupo_1101083" data-name="Grupo 1101083" transform="translate(0 0)">
        <g id="Grupo_1101082" data-name="Grupo 1101082" clip-path="url(#clip-path-18)">
          <path id="Trazado_876265" data-name="Trazado 876265" d="M1,12.154,65.227,1,24.574,57.657Z" transform="translate(0.197 0.196)" fill="none" stroke="#5b2ccf" stroke-linecap="round" stroke-linejoin="round" stroke-width="2"/>
          <path id="Trazado_876266" data-name="Trazado 876266" d="M61.519,1C60.351,1.517,19.84,25.434,19.84,25.434l1.026,32.223Z" transform="translate(3.905 0.196)" fill="none" stroke="#5b2ccf" stroke-linecap="round" stroke-linejoin="round" stroke-width="2"/>
          <path id="Trazado_876267" data-name="Trazado 876267" d="M1,12.154l22.548,13.28L65.227,1Z" transform="translate(0.197 0.196)" fill="none" stroke="#5b2ccf" stroke-linecap="round" stroke-linejoin="round" stroke-width="2"/>
        </g>
      </g>
    </g>
  </g>
</svg>
