<svg xmlns="http://www.w3.org/2000/svg" xmlns:xlink="http://www.w3.org/1999/xlink" width="315" height="380" viewBox="0 0 315 380">
  <defs>
    <clipPath id="clip-path">
      <rect id="Rectángulo_402732" data-name="Rectángulo 402732" width="285.793" height="50" fill="none"/>
    </clipPath>
    <clipPath id="clip-path-2">
      <rect id="Rectángulo_402712" data-name="Rectángulo 402712" width="315" height="305.653" fill="none"/>
    </clipPath>
    <clipPath id="clip-path-4">
      <rect id="Rectángulo_402706" data-name="Rectángulo 402706" width="60.139" height="38.337" fill="none"/>
    </clipPath>
    <clipPath id="clip-path-5">
      <rect id="Rectángulo_402707" data-name="Rectángulo 402707" width="46.922" height="14.191" fill="none"/>
    </clipPath>
    <clipPath id="clip-path-6">
      <rect id="Rectángulo_402708" data-name="Rectángulo 402708" width="43.921" height="40.009" fill="none"/>
    </clipPath>
    <clipPath id="clip-path-7">
      <rect id="Rectángulo_402709" data-name="Rectángulo 402709" width="10.986" height="7.326" fill="none"/>
    </clipPath>
    <clipPath id="clip-path-8">
      <rect id="Rectángulo_402710" data-name="Rectángulo 402710" width="41.97" height="17.332" fill="none"/>
    </clipPath>
  </defs>
  <g id="Grupo_1101093" data-name="Grupo 1101093" transform="translate(10929 7089)">
    <rect id="Rectángulo_402727" data-name="Rectángulo 402727" width="315" height="380" transform="translate(-10929 -7089)" fill="none"/>
    <g id="Grupo_1101088" data-name="Grupo 1101088" transform="translate(-10912.754 -7074)">
      <g id="Grupo_1101080" data-name="Grupo 1101080" transform="translate(0 0)" clip-path="url(#clip-path)">
        <path id="Trazado_876260" data-name="Trazado 876260" d="M171.243,19.056,206.65,44.026,242.074,19.08" transform="translate(42.463 4.725)" fill="none" stroke="#31a8ff" stroke-linecap="round" stroke-linejoin="round" stroke-width="2"/>
        <path id="Trazado_876261" data-name="Trazado 876261" d="M57.744,19.019l35.4,24.971,35.419-24.947,35.4,24.971" transform="translate(14.319 4.716)" fill="none" stroke="#31a8ff" stroke-linecap="round" stroke-linejoin="round" stroke-width="2"/>
        <line id="Línea_666" data-name="Línea 666" x2="35.401" y2="24.971" transform="translate(1.248 23.711)" fill="none" stroke="#31a8ff" stroke-linecap="round" stroke-linejoin="round" stroke-width="2"/>
        <path id="Trazado_876262" data-name="Trazado 876262" d="M142.867,26,178.286,1.056l35.407,24.972L249.118,1.079" transform="translate(35.427 0.262)" fill="none" stroke="#5b2ccf" stroke-linecap="round" stroke-linejoin="round" stroke-width="2"/>
        <path id="Trazado_876263" data-name="Trazado 876263" d="M1.006,1l35.4,24.971L71.821,1.024l35.4,24.971L142.641,1.046" transform="translate(0.249 0.248)" fill="none" stroke="#5b2ccf" stroke-linecap="round" stroke-linejoin="round" stroke-width="2"/>
      </g>
    </g>
    <g id="Grupo_1101089" data-name="Grupo 1101089" transform="translate(-10929 -7052)">
      <g id="Grupo_1101042" data-name="Grupo 1101042" clip-path="url(#clip-path-2)">
        <g id="Grupo_1101041" data-name="Grupo 1101041">
          <g id="Grupo_1101040" data-name="Grupo 1101040" clip-path="url(#clip-path-2)">
            <path id="Trazado_875924" data-name="Trazado 875924" d="M200.9,347.512s-16.556-159.618-18.679-162.59S31.1,183.648,31.1,183.648s-5.943-69.621,32.263-87.026,113.33,31.864,147.3,7.654,74.3-33.974,102.317-9.352S299.919,208.413,308.73,227.8c12.735,28.018,68.347,102.309-107.828,119.714" transform="translate(-15.975 -41.859)" fill="#ddd4f5"/>
            <path id="Trazado_875925" data-name="Trazado 875925" d="M580.795,450.2a34.124,34.124,0,0,1-6.882-6.931,19.359,19.359,0,0,0-2.848-3.935,24.608,24.608,0,0,1,3.117-3.857c.033-.033-1.8-2.145-1.96-2.35a1.92,1.92,0,0,1-.5-2.043,2.868,2.868,0,0,1,1.3-1.107,5.269,5.269,0,0,0,1.459-.924.609.609,0,0,0,.183-.312.666.666,0,0,0-.165-.463c-.6-.852-1.446-1.5-2.09-2.321a1.2,1.2,0,0,1-.34-.936,1.317,1.317,0,0,1,.512-.672c1.075-.9,2.513-2.227,3.987-1.659,1.736.67,3.575,1.133,5.329,1.787l12.229,4.555c0,.051.193.21.193.261,0,.531-.624.834-.993,1.217a12.318,12.318,0,0,1,1.6,3.69,1.3,1.3,0,0,1,.046.624,1.374,1.374,0,0,1-.4.586l-2.1,2.155a.9.9,0,0,0-.3.487.935.935,0,0,0,.293.642,10.663,10.663,0,0,1,1.6,2.748,1.008,1.008,0,0,1,.1.543,1.032,1.032,0,0,1-.415.559,17.32,17.32,0,0,1-2.634,1.8.608.608,0,0,0-.295.262.619.619,0,0,0,.143.54,11.9,11.9,0,0,1,1.438,3.214.513.513,0,0,1-.264.722,24.4,24.4,0,0,1-2.985,1.588c.2,1.006,1.081,1.8,1.161,2.827a2.565,2.565,0,0,1-1.119,2.145,7.569,7.569,0,0,1-2.291,1.029.56.56,0,0,1-.814-.267,30.56,30.56,0,0,0-5.3-6.208" transform="translate(-296.564 -219.438)" fill="#2d2d2d"/>
            <path id="Trazado_875926" data-name="Trazado 875926" d="M479.217,576.5l.849,25.9s14.009,0,14.009-.424V571.4Z" transform="translate(-248.866 -296.739)" fill="#2d2d2d"/>
            <path id="Trazado_875927" data-name="Trazado 875927" d="M492.978,486.473c-3.769-17.432-18.679-15.707-26.745-21.226-3.636-2.488-9.9-9.334-15.692-16.1q-4.261,2.382-8.55,4.714c-12.266,6.671-24.645,13.149-36.638,20.307-5.175,3.088-10.26,6.324-15.143,9.859a56.314,56.314,0,0,0-10.79,9.6v14.707s12.736,15.283,28.442,13.16,16.557-8.49,51.791-13.16,36.721-6.155,33.325-21.862" transform="translate(-197.039 -233.249)" fill="#4d4d4d"/>
            <path id="Trazado_875928" data-name="Trazado 875928" d="M376.72,494.546s13.16,12.311,32.263,8.49,15.707-8.066,35.659-10.189,45-8.49,47.546-14.858,3.821-13.16-.849-19.1-33.537-22.924-42.876-26.32-51.791,9.34-51.791,9.34l-21.226,39.9Z" transform="translate(-194.976 -224.34)" fill="#ed4450"/>
            <path id="Trazado_875929" data-name="Trazado 875929" d="M408.629,519.3l-31.821,14.4.619,6.194s.22.2.637.549v4.332a45.951,45.951,0,0,0,9.734,8.3h0s-2.368-9.888,13.476-16.1,7.354-17.675,7.354-17.675" transform="translate(-195.683 -269.679)" fill="#1a1a1a"/>
            <path id="Trazado_875930" data-name="Trazado 875930" d="M514.479,298.685s12.736,4.245,21.226,11.037,24.2,9.764,30.565,4.67,7.641-65.8,0-87.875-43.725-34.811-60.706-12.311-11.462,75.14-7.217,78.536,16.132,5.943,16.132,5.943" transform="translate(-256.534 -105.105)" fill="#ed4450"/>
            <path id="Trazado_875931" data-name="Trazado 875931" d="M592.187,316.758c-.069.02-.126.043-.192.064,4.891.463,9.375-.231,12.121-2.428,6.368-5.094,7.641-65.8,0-87.875-4.9-14.158-21.5-24.473-37.257-24.116,3.473.112,21.414,1.473,29.828,17.536,9.339,17.829-1.274,51.367,0,64.526s2.887,30.2-4.5,32.293" transform="translate(-294.38 -105.106)" fill="#4d4d4d"/>
            <path id="Trazado_875932" data-name="Trazado 875932" d="M566.146,277.561a59.712,59.712,0,0,1,2.145-15.892c2.4-9.624,4.34-19.437,2.455-29.346a31.619,31.619,0,0,0-12.063-19.86,23.2,23.2,0,0,0-11.385-4.453c-5.783-.549-11.416,1.319-16.754,3.313-.546.2-.332,1.065.245.889,8.4-2.553,16.833-4.72,24.893.018,6.7,3.937,11.211,10.838,13.065,18.286,2.237,8.99,1.024,18.392-1.169,27.26a106.037,106.037,0,0,0-2.789,12.965,59.292,59.292,0,0,0,.2,13.638c.558,4.912,1.46,9.774,2.147,14.668.6,4.3,2.389,15.088-4.541,15.241-.967.022-.775.486.159.573,3.711.347,6.12-3.072,6.613-6.395.7-4.723-.642-10.012-1.372-14.676a122.918,122.918,0,0,1-1.848-16.23" transform="translate(-275.357 -107.973)" fill="#c02328"/>
            <path id="Trazado_875933" data-name="Trazado 875933" d="M443.616,409.121,370.175,403.6,360.8,408.41c3,26.685,6.3,57.448,8.586,79.092,17.511-11.424,57.675-20.223,57.675-20.223s14.858-6.792,18.679-21.65-2.123-36.508-2.123-36.508" transform="translate(-187.37 -209.598)" fill="#6c4e4e"/>
            <g id="Grupo_1101027" data-name="Grupo 1101027" transform="translate(180.063 222.724)" opacity="0.5">
              <g id="Grupo_1101026" data-name="Grupo 1101026">
                <g id="Grupo_1101025" data-name="Grupo 1101025" clip-path="url(#clip-path-4)">
                  <path id="Trazado_875934" data-name="Trazado 875934" d="M374.762,501.686c10.23-7.447,22.223-11.8,34.041-16.116,6.006-2.193,12.588-4.1,18.083-7.431a15.733,15.733,0,0,0,7.845-14.018.8.8,0,0,0-1.6,0,14.135,14.135,0,0,1-3.069,9.223c-2.324,2.868-5.722,4.452-9.056,5.84-5.7,2.375-11.536,4.411-17.327,6.552-10.174,3.761-20.369,7.9-29.083,14.42l.163,1.531" transform="translate(-374.599 -463.349)" fill="#4a3333"/>
                </g>
              </g>
            </g>
            <path id="Trazado_875935" data-name="Trazado 875935" d="M406.668,409.4l-36.493-5.8L360.8,408.41c.774,6.878,1.567,14.024,2.358,21.218l47.483-13.24Z" transform="translate(-187.37 -209.598)" fill="#4a3333"/>
            <path id="Trazado_875936" data-name="Trazado 875936" d="M172.774,509.532s23.342,34.992,28.012,35.416,61.555-24.2,61.555-25.9-29.716-28.018-29.716-28.018Z" transform="translate(-89.725 -255.003)" fill="#f2f2f2"/>
            <path id="Trazado_875937" data-name="Trazado 875937" d="M171.008,513.065s23.342,34.992,28.012,35.416,61.555-24.2,61.555-25.9-29.716-28.018-29.716-28.018Z" transform="translate(-88.807 -256.838)" fill="#f2f2f2"/>
            <path id="Trazado_875938" data-name="Trazado 875938" d="M209.639,570.044c-2.782-4.094-6.083-7.888-9.142-11.779l-9.618-12.233c-.6-.765-1.662.312-1.07,1.07l9.332,11.928c3.094,3.955,6.036,8.132,9.4,11.862.526.584,1.549-.186,1.1-.848" transform="translate(-98.481 -283.428)" fill="#ccc"/>
            <path id="Trazado_875939" data-name="Trazado 875939" d="M225.31,576.885q-4.593-6.156-9.2-12.3c-.558-.743-1.828-.024-1.266.74q4.55,6.181,9.113,12.352c.6.805,1.963.017,1.357-.794" transform="translate(-111.497 -293.037)" fill="#ccc"/>
            <path id="Trazado_875940" data-name="Trazado 875940" d="M227.794,562.737c-5.17-6.88-10.548-13.587-15.594-20.565-.554-.766-1.841-.033-1.283.75,5.007,7.039,10.083,14.149,15.663,20.751.56.662,1.743-.232,1.214-.936" transform="translate(-109.462 -281.391)" fill="#ccc"/>
            <path id="Trazado_875941" data-name="Trazado 875941" d="M244.272,568.209c-3.156-4.433-6.385-8.816-9.583-13.22-.518-.713-1.717-.031-1.2.7,3.152,4.431,6.275,8.885,9.468,13.287.567.782,1.882.034,1.312-.767" transform="translate(-121.19 -288.059)" fill="#ccc"/>
            <path id="Trazado_875942" data-name="Trazado 875942" d="M246.861,554.5c-2.752-3.75-6.166-7.1-9.113-10.71q-4.825-5.914-9.288-12.107c-.556-.771-1.849-.033-1.289.753q4.195,5.893,8.709,11.549c3.071,3.834,6.176,8.111,9.845,11.39.574.513,1.648-.177,1.135-.876" transform="translate(-117.902 -275.941)" fill="#ccc"/>
            <path id="Trazado_875943" data-name="Trazado 875943" d="M243.488,537.007a86.085,86.085,0,0,0-7.954-10.629c-.481-.542-1.419.171-1.01.78,2.453,3.65,5.155,7.232,7.87,10.694.488.622,1.517-.185,1.094-.844" transform="translate(-121.74 -273.257)" fill="#ccc"/>
            <path id="Trazado_875944" data-name="Trazado 875944" d="M271.248,551.162c-4.065-5.133-8.085-10.3-11.972-15.566-.568-.77-1.873-.027-1.3.76,3.926,5.4,7.948,10.738,12.152,15.927.645.8,1.746-.332,1.121-1.121" transform="translate(-133.897 -277.976)" fill="#ccc"/>
            <path id="Trazado_875945" data-name="Trazado 875945" d="M287.389,557.348a97.56,97.56,0,0,0-6.2-8.5c-.523-.669-1.712.236-1.188.916,2.1,2.73,4.011,5.589,6.058,8.357.574.777,1.864.084,1.329-.777" transform="translate(-145.342 -284.906)" fill="#ccc"/>
            <path id="Trazado_875946" data-name="Trazado 875946" d="M285.321,531.166q-6.373-7.724-12.82-15.387c-.611-.73-1.636.316-1.042,1.041q6.351,7.75,12.736,15.471c.656.789,1.773-.342,1.126-1.126" transform="translate(-140.88 -267.724)" fill="#ccc"/>
            <path id="Trazado_875947" data-name="Trazado 875947" d="M305.274,544.193c-3.608-4.845-7.456-9.526-11.188-14.276-.61-.776-1.681.315-1.083,1.083,3.669,4.716,7.242,9.529,11.032,14.149.562.685,1.776-.236,1.24-.957" transform="translate(-152.07 -275.057)" fill="#ccc"/>
            <path id="Trazado_875948" data-name="Trazado 875948" d="M317.719,547.923c-1.788-2-3.623-3.966-5.442-5.942-.676-.734-1.76.358-1.093,1.093,1.805,1.988,3.6,3.991,5.433,5.951.69.736,1.766-.358,1.1-1.1" transform="translate(-161.495 -281.334)" fill="#ccc"/>
            <path id="Trazado_875949" data-name="Trazado 875949" d="M318.144,531.08c-6.18-5.922-12.292-11.905-18.258-18.043-.7-.724-1.807.382-1.107,1.107,5.941,6.156,11.986,12.22,18.207,18.094.766.723,1.922-.427,1.158-1.158" transform="translate(-155.045 -266.306)" fill="#ccc"/>
            <path id="Trazado_875950" data-name="Trazado 875950" d="M115.522,338.82q6.258-13.14,12.323-26.4c.373-.814-1.013-1.467-1.43-.67-.339.649-.673,1.3-1.008,1.958a.649.649,0,0,0-.892.338c-3.911,8.085-7.781,16.227-11.266,24.51-.922-.1-1.692-.172-2.292-.216a4.631,4.631,0,0,0-2.17,1.728,6.969,6.969,0,0,0,.564,2.513c.391.865,62.957,8.825,62.957,8.825l1.013-4.209s-41.9-6.473-57.8-8.381" transform="translate(-56.494 -161.711)" fill="#1a1a1a"/>
            <path id="Trazado_875951" data-name="Trazado 875951" d="M200.7,262.824s-27.169,43.3-30.565,45.848-11.038-3.821-14.858-6.368-54.338-39.48-56.036-41.6-1.274-5.094,1.273-7.216,39.9-31.415,41.6-31.839,10.238,4.962,10.238,4.962Z" transform="translate(-51.009 -115.092)" fill="#4d4d4d"/>
            <path id="Trazado_875952" data-name="Trazado 875952" d="M165.046,343.686c-2.972-1.7-60.494-43.513-63.89-46.484-1.69-1.479-2.759-2.76-2.543-4.069a4.555,4.555,0,0,0,.633,4.706c1.7,2.123,52.216,39.056,56.037,41.6s11.462,8.915,14.858,6.368a10.958,10.958,0,0,0,1.451-1.544c-1.451,1.12-4.515.583-6.545-.578" transform="translate(-51.013 -152.229)" fill="#1a1a1a"/>
            <path id="Trazado_875953" data-name="Trazado 875953" d="M202.2,261.383q-.688.921-1.374,1.844L153.856,229.68l-.73.565c.958-.756,1.915-1.515,2.876-2.266.428-.335-.174-.93-.6-.6Q138,240.992,121.383,255.594c-3.169,2.8-6.323,5.617-9.431,8.485-.359.332.174.858.535.535q4.885-4.371,9.817-8.686c4.154,3.986,53.256,37.872,54.476,38.278.07.024.211-.054.408-.211-.477.574-.948,1.154-1.43,1.725-2.61,3.09-5.317,6.09-8.037,9.083-.3.327.174.806.488.488,9.983-10.1,18.442-21.706,26.926-33.057l7.79-10.424c.326-.436-.408-.858-.73-.427" transform="translate(-58.077 -118.032)" fill="#2d2d2d"/>
            <path id="Trazado_875954" data-name="Trazado 875954" d="M176.253,327.561c-2.814-1.77-6.424-2.718-9.461-.927a.4.4,0,0,0,.4.7c2.94-1.7,6.437-.622,9.06,1.186a6.471,6.471,0,0,1,2.892,3.838,3.867,3.867,0,0,1-1.658,4.088c-4.535,2.912-14.9-2.153-11.04-8.355.23-.37-.342-.712-.577-.349a6.316,6.316,0,0,0,.508,7.266,9.55,9.55,0,0,0,7.391,3.351c2.621.008,5.464-1.352,6.141-4.087.7-2.84-1.414-5.3-3.652-6.712" transform="translate(-85.658 -169.128)" fill="#2d2d2d"/>
            <path id="Trazado_875955" data-name="Trazado 875955" d="M174.389,337.614a5.435,5.435,0,0,0,2.059,1.083,2.962,2.962,0,0,0,2.262-.3,1.659,1.659,0,0,0,.862-1.8,4.115,4.115,0,0,0-1.158-2.006,5.248,5.248,0,0,0-2.053-1.192c-1.188-.338-2.955-.17-3.247,1.277a3.245,3.245,0,0,0,1.275,2.94" transform="translate(-89.879 -173.062)" fill="#2d2d2d"/>
            <path id="Trazado_875956" data-name="Trazado 875956" d="M195.11,351.892a36.878,36.878,0,0,1,3.516-3.493c.718-.4,3.016,1.326,3.4,1.676s-3.345,3.854-3.866,3.879a6.246,6.246,0,0,1-3.052-2.062" transform="translate(-101.324 -180.898)" fill="#2d2d2d"/>
            <path id="Trazado_875957" data-name="Trazado 875957" d="M204.363,358.138a36.879,36.879,0,0,1,3.516-3.493c.718-.4,3.016,1.326,3.4,1.676s-3.345,3.853-3.866,3.879a6.247,6.247,0,0,1-3.052-2.062" transform="translate(-106.129 -184.142)" fill="#2d2d2d"/>
            <path id="Trazado_875958" data-name="Trazado 875958" d="M214.471,364.407a36.88,36.88,0,0,1,3.516-3.493c.718-.4,3.016,1.326,3.4,1.676s-3.345,3.854-3.866,3.879a6.246,6.246,0,0,1-3.052-2.062" transform="translate(-111.379 -187.397)" fill="#2d2d2d"/>
            <path id="Trazado_875959" data-name="Trazado 875959" d="M129.03,304.683a36.849,36.849,0,0,1,3.624-3.38c.73-.382,2.973,1.421,3.347,1.782s-3.465,3.746-3.986,3.756a6.247,6.247,0,0,1-2.986-2.158" transform="translate(-67.008 -156.444)" fill="#2d2d2d"/>
            <path id="Trazado_875960" data-name="Trazado 875960" d="M138.081,311.218a36.845,36.845,0,0,1,3.624-3.38c.73-.382,2.973,1.421,3.347,1.782s-3.465,3.746-3.986,3.756a6.247,6.247,0,0,1-2.986-2.158" transform="translate(-71.708 -159.838)" fill="#2d2d2d"/>
            <path id="Trazado_875961" data-name="Trazado 875961" d="M147.986,317.8a36.845,36.845,0,0,1,3.624-3.38c.73-.382,2.973,1.421,3.347,1.782s-3.465,3.746-3.986,3.756a6.247,6.247,0,0,1-2.986-2.158" transform="translate(-76.852 -163.258)" fill="#2d2d2d"/>
            <path id="Trazado_875962" data-name="Trazado 875962" d="M93.682,397.508v7.483l-3.4,1.871s-33.537,8.885-35.235,7.482-3.5-10.146-3.5-10.146Z" transform="translate(-26.77 -206.433)" fill="#e5eaec"/>
            <path id="Trazado_875963" data-name="Trazado 875963" d="M12.028,384.978s19.952,15.433,22.924,15.9,41.6-9.354,41.6-10.289-3.4-1.4-3.4-1.4v1.4s-37.145,10.055-37.994,9.12-1.274-5.612-.424-6.547,40.754-9.353,41.178-10.756-24.2-12.627-24.2-12.627Z" transform="translate(-6.246 -192.033)" fill="#c02328"/>
            <path id="Trazado_875964" data-name="Trazado 875964" d="M60.863,347.888s8.49,0,8.915.468,0,8.886,0,8.886L42.184,381.093,5.675,373.61s-4.245-.935-4.245-4.677S2.7,363.321,6.1,361.45s54.763-13.562,54.763-13.562" transform="translate(-0.743 -180.664)" fill="#fff"/>
            <path id="Trazado_875965" data-name="Trazado 875965" d="M69.71,348.311c-.9-.423-8.847-.423-8.847-.423S9.5,359.58,6.1,361.45s-4.67,3.741-4.67,7.483,4.245,4.677,4.245,4.677l36.509,7.483v-9.821Z" transform="translate(-0.743 -180.664)" fill="#e5eaec"/>
            <path id="Trazado_875966" data-name="Trazado 875966" d="M41.865,377.013S3.234,370.466,1.112,367.66s-.849-7.482.849-8.885,24.2-19.642,26.745-19.642,25.046,3.273,30.99,2.338a94,94,0,0,0,9.34-1.87s-22.712,26.423-27.382,27.359S3.871,359.008,2.6,359.943s-1.7,5.144-.424,7.015,37.358,8.886,39.48,8.418,27.594-24.319,27.594-24.319,2.122-.468,2.122.468-27.169,23.851-29.5,25.488" transform="translate(0 -176.117)" fill="#6168aa"/>
            <path id="Trazado_875967" data-name="Trazado 875967" d="M217.768,240.588s-5.944-15.707-8.491-16.981-12.311-2.123-14.433-.849-2.972,5.518-2.547,8.066c0,0-2.123,1.7-2.123,2.972a5.155,5.155,0,0,0,.424,2.122,2.552,2.552,0,0,0-1.273,3.4,10.9,10.9,0,0,0,5.094,5.519,26.518,26.518,0,0,0,5.094.424s5.519,7.216,8.49,8.066a6.829,6.829,0,0,0,5.094-.424Z" transform="translate(-98.216 -115.355)" fill="#91401c"/>
            <path id="Trazado_875968" data-name="Trazado 875968" d="M209.987,231.965c-.482-.047-.966-.007-1.449-.074-.457-.064-.886-.223-1.287.1-.383.31-.313.763-.375,1.2a5.7,5.7,0,0,1-.4,1.438c-.365.846.821,1.6,1.271.743a6.784,6.784,0,0,0,.535-1.283,4.233,4.233,0,0,0,.112-.6c.183.028.367.053.55.072a4.523,4.523,0,0,0,1.256-.025c.956-.166.619-1.5-.213-1.577" transform="translate(-107.191 -120.375)" fill="#702c12"/>
            <path id="Trazado_875969" data-name="Trazado 875969" d="M199.26,241.91a2.764,2.764,0,0,0-1.1.728c-.267.238-.851.782-1.157.443a2.479,2.479,0,0,1-.529-1.119,9.609,9.609,0,0,1-.238-1.1,3.6,3.6,0,0,0-.335-1.167c-.111-.224-.353-.389-.593-.214-.17.123-.173.391-.182.579a7.935,7.935,0,0,0,.085,1.65,8.692,8.692,0,0,0,.281,1.389,2.086,2.086,0,0,0,1.065,1.481c1.232.508,3.141-.73,3.425-1.95a.59.59,0,0,0-.718-.718" transform="translate(-101.324 -124.328)" fill="#702c12"/>
            <path id="Trazado_875970" data-name="Trazado 875970" d="M211.43,258.473a2.915,2.915,0,0,0-2.609-2.516,3.76,3.76,0,0,0-2.192-3.726.684.684,0,0,0-.69,1.18,2.71,2.71,0,0,1,1.306,3.037.761.761,0,0,0,.725.952l.714.043c.5.109,1.285.411,1.22,1.038a2.262,2.262,0,0,1-1.109,1.454c-.35.168-.805.127-1.1.427-.574.587.2,1.12.8.918,1.5-.508,3.14-.953,2.932-2.807" transform="translate(-106.775 -130.953)" fill="#702c12"/>
            <path id="Trazado_875971" data-name="Trazado 875971" d="M79.069,366.665a1.315,1.315,0,0,1,.849-1.7c1.274-.424,72.593-7.641,74.291-7.216s26.744,39.48,27.169,42.452-3.4,2.547-5.094,2.972-77.262,11.887-79.809,11.462a3.04,3.04,0,0,1-2.547-2.972s-1.273.849-2.547-.849S57.419,344.59,56.57,342.468s-10.613-37.358-9.34-37.782,31.839,61.98,31.839,61.98" transform="translate(-24.468 -158.227)" fill="#b0c1d3"/>
            <path id="Trazado_875972" data-name="Trazado 875972" d="M144.016,456.292c-2.9-7.142-5.77-14.3-8.169-21.629l-2.827.319c0,.47,13.631,39.011,14.1,39.481a19.23,19.23,0,0,0,3.4-.176c-2.2-5.984-4.1-12.081-6.5-17.994" transform="translate(-69.08 -225.728)" fill="#2d2d2d"/>
            <path id="Trazado_875973" data-name="Trazado 875973" d="M155.369,454.358c-2.685-7.074-5.675-14.031-8.184-21.169l-4.494.5c2.38,7.233,5.212,14.3,8.08,21.356,2.445,6.013,4.369,12.216,6.616,18.3,1.5-.148,3.253-.332,5.158-.541-2.545-6.087-4.834-12.279-7.176-18.448" transform="translate(-74.102 -224.963)" fill="#2d2d2d"/>
            <path id="Trazado_875974" data-name="Trazado 875974" d="M160.552,431.675l-4.71.523c2.392,6.762,5.218,13.359,7.774,20.061,2.492,6.534,4.89,13.109,7.6,19.555,1.674-.189,3.436-.394,5.225-.607-5.79-12.974-10.889-26.238-15.894-39.532" transform="translate(-80.931 -224.176)" fill="#2d2d2d"/>
            <path id="Trazado_875975" data-name="Trazado 875975" d="M183.695,452.683c-3.271-7.465-6.33-15.021-9.608-22.482-1.406.152-2.979.324-4.623.506,5,13.29,10.1,26.55,15.914,39.511,1.854-.225,3.717-.458,5.528-.691-2.562-5.541-4.766-11.263-7.211-16.843" transform="translate(-88.005 -223.411)" fill="#2d2d2d"/>
            <path id="Trazado_875976" data-name="Trazado 875976" d="M208.016,449.548c2.024-.115,4.035-.379,6.052-.587a22.919,22.919,0,0,0-2.177-3.977c-.567-.284-3.441.031-5.736.326q.884,2.137,1.861,4.238" transform="translate(-107.06 -231.03)" fill="#2d2d2d"/>
            <path id="Trazado_875977" data-name="Trazado 875977" d="M232.308,488.005c-1.954.167-3.885.5-5.83.72,1.369,3.142,2.726,6.29,4.119,9.421,3.317-.512,5.478-.934,5.478-1.153,0-.337-1.631-4.179-3.767-8.989" transform="translate(-117.614 -253.429)" fill="#2d2d2d"/>
            <path id="Trazado_875978" data-name="Trazado 875978" d="M217.672,469.979q.2.449.394.9c1.943-.179,3.87-.52,5.812-.727-2-4.466-4.293-9.467-6.085-13.2-2.025.188-4.041.455-6.068.607,1.98,4.143,4.1,8.231,5.947,12.426" transform="translate(-109.952 -237.3)" fill="#2d2d2d"/>
            <path id="Trazado_875979" data-name="Trazado 875979" d="M187.253,429.209c-.127-.151-.24-.239-.334-.239-.21,0-1.732.154-3.962.391,3.162,7.232,6.13,14.546,9.3,21.776,2.544,5.805,4.824,11.762,7.519,17.508,1.606-.211,3.15-.421,4.587-.623q-8.663-19.359-17.107-38.814" transform="translate(-95.013 -222.772)" fill="#2d2d2d"/>
            <path id="Trazado_875980" data-name="Trazado 875980" d="M202.442,427.015l-3.76.47.94,1.88-3.064.34c.536,1.1,1.066,2.2,1.581,3.311l2.893-.361.94,1.88,4.23-.47Z" transform="translate(-102.075 -221.756)" fill="#2d2d2d"/>
            <path id="Trazado_875981" data-name="Trazado 875981" d="M79.019,366.468l-.012-.245c-2.736-5.579-30-61.1-31.579-61.511.982,9.261,8.717,34.325,9,35.255.338,1.093,28.954,57.916,32.775,65.132s4.67,6.368,4.67,6.368L87.934,391.09Z" transform="translate(-24.63 -158.242)" fill="#464c7b"/>
            <path id="Trazado_875982" data-name="Trazado 875982" d="M93.927,411.665a3.04,3.04,0,0,0,2.547,2.972c2.547.424,78.111-11.037,79.809-11.462s5.519,0,5.094-2.972a7.667,7.667,0,0,0-.714-1.7,2.3,2.3,0,0,1-.771,2.332c-1.273.849-42.452,5.944-47.971,6.793s-33.961,5.094-36.084,4.245-2.972-5.944-2.972-5.944,2.123,0,2.547-.849S84.8,373.246,83.527,371.124s-2.547-.849-2.547-.849l-1.7-2.547,13.373,40.966S59.541,345.44,58.268,342.469c-1.107-2.584-8.947-30.612-10.81-37.612-.107-.123-.185-.185-.228-.171-1.274.424,8.49,36.508,9.339,38.631s32.688,66.225,33.962,67.923,3.4.424,3.4.424" transform="translate(-24.468 -158.228)" fill="#93aabc"/>
            <path id="Trazado_875983" data-name="Trazado 875983" d="M266.226,455.222c-.727-1.465-1.455-2.928-2.2-4.384-.4-.79-1.8-.12-1.412.691.578,1.194,1.168,2.383,1.759,3.571-3.645.784-13.939,2.73-15.136,2.668a1.729,1.729,0,0,1-2.024-.618l-.779-1.482-2.726-5.186q-1.363-2.593-2.725-5.186-.779-1.48-1.563-2.96c-.543-1.027-1.8-2.265-.551-3.294,1.067-.879,3.446-1.284,4.705-1.539,2.215-.448,4.838-.554,7.053-1,.779-.158,1.8-1.271,1.013-1.121-2.775.527-6.832.784-9.607,1.314-1.6.307-4.111.5-5.288,1.834-.994,1.125.217,2.482.783,3.563q2.036,3.894,4.083,7.783c1.3,2.468,2.566,4.956,3.9,7.407,1.011,1.863,1.7,2.351,3.82,2.063,5.385-.731,11.17-1.784,16.485-2.911.567-.12.619-.8.416-1.212" transform="translate(-122.749 -226.094)" fill="#93aabc"/>
            <path id="Trazado_875984" data-name="Trazado 875984" d="M230.167,269.7s30.99,18.254,48.4,23.348a87.675,87.675,0,0,0,33.961,2.547l-7.641-30.141s-25.471,3.821-43.3-1.273-25.471-8.066-25.471-8.066Z" transform="translate(-119.53 -133.005)" fill="#91401c"/>
            <path id="Trazado_875985" data-name="Trazado 875985" d="M252.833,178.862a31.037,31.037,0,0,0-3.237,4.016l1.7,1.273a48.71,48.71,0,0,0,2.984-4.138,1.306,1.306,0,0,0-1.444-1.151" transform="translate(-129.62 -92.88)" fill="#1a1a1a"/>
            <path id="Trazado_875986" data-name="Trazado 875986" d="M376.636,161.246c-.424.424-9.339,15.707-9.764,32.688s.425,17.405,2.123,21.226,2.547,42.451.424,44.15a8.273,8.273,0,0,0-1.7,10.189c2.547,5.094,3.82,8.065,20.8,12.311,20.481,5.12,56.885-.424,56.885-.424l-1.81-95.437a53.644,53.644,0,0,0-12.2-18.758c-8.915-8.915-8.278-12.494-14.009-16.132s-25.124-3.221-25.124-3.221Z" transform="translate(-190.435 -76.766)" fill="#61b7b0"/>
            <path id="Trazado_875987" data-name="Trazado 875987" d="M443.008,140.422s11.886,4.245,16.132,8.49c1.441,1.441,0,2.123-2.547,2.547-2.961.494-8.915-1.273-8.915-1.273Z" transform="translate(-230.062 -72.924)" fill="#1a1a1a"/>
            <path id="Trazado_875988" data-name="Trazado 875988" d="M387.147,135.215a14.075,14.075,0,0,1,.457,6.125c-.191,1.449-.642,2.862-.709,4.328a2.8,2.8,0,0,0,.46,2.066c2.34,2.339,8.131-2.613,10.029-4.156,18.632-15.155,27.874-16.675,28.4-17.278-9.339-10.613-18.072-10.757-20.8-18.254-3.969-10.9-1.369-15.662-1.369-15.662L388.3,118.058l-5.213,6.374c-.239.508-1.244.914-1.459,1.444,2.173,3.063,4.428,5.712,5.519,9.339" transform="translate(-198.186 -47.977)" fill="#a74b1a"/>
            <path id="Trazado_875989" data-name="Trazado 875989" d="M387.765,155.758a13.8,13.8,0,0,1,.577,3.282c16.111-8.563,11.758-27.1,11.758-27.1L388.918,138.6l-5.213,6.374a19.463,19.463,0,0,0-.886,2.24c1.987,2.738,3.951,5.234,4.946,8.543" transform="translate(-198.805 -68.52)" fill="#89320b"/>
            <path id="Trazado_875990" data-name="Trazado 875990" d="M312.339,38.672c.677,2.466,1.256,4.929,1.755,7.526,1.739,9.065,3.711,18.332,7.267,26.884,1.229,2.956,2.711,6.383,5.291,8.43,4.614,3.661,15.072,2.261,19.891.776,14.839-4.572,17.892-10,19.177-27.4,0,0,13.04-7.884,6.56-18.425-1.048-1.705-2.6-3.271-4.716-3.338-2.557-.081-3.06.307-3.573-2.838a36.064,36.064,0,0,0-1.72-6.885,25.03,25.03,0,0,0-23.381-15.8c-4.684.109-10.424.587-14.789,2.356-4.6,1.863-6.579,5.139-9.332,8.913-3.052,4.185-5.32,10.38-3.694,15.527.455,1.441.876,2.855,1.264,4.268" transform="translate(-161.266 -3.948)" fill="#a74b1a"/>
            <path id="Trazado_875991" data-name="Trazado 875991" d="M370.395,81.373a2.168,2.168,0,0,1,1.683-1.063c2.185-.112,3.372,3.362,1.767,4.734a2.236,2.236,0,0,1-2.741.121,2.646,2.646,0,0,1-.724-.95,3.153,3.153,0,0,1-.18-2.444,2.294,2.294,0,0,1,.2-.4" transform="translate(-192.163 -41.705)" fill="#1a1a1a"/>
            <path id="Trazado_875992" data-name="Trazado 875992" d="M347.29,117.114a1.211,1.211,0,0,1,1.162-1.228l1.912-.035a1.2,1.2,0,1,1,.066,2.389l-1.912.036a1.216,1.216,0,0,1-1.228-1.162" transform="translate(-180.353 -60.163)" fill="#973a0c"/>
            <path id="Trazado_875993" data-name="Trazado 875993" d="M358.112,50.717c1.657.2,3.33.144,4.977.436,1.671.3,3.3.8,4.959,1.165,1.5.326,1.119,2.685-.39,2.357-1.657-.361-3.288-.874-4.96-1.165-1.648-.287-3.32-.234-4.977-.437-1.525-.186-1.136-2.543.39-2.356" transform="translate(-185.268 -26.333)" fill="#1a1a1a"/>
            <path id="Trazado_875994" data-name="Trazado 875994" d="M320.628,74.723a1.148,1.148,0,0,0-1.769-1.371,16.646,16.646,0,0,0-4.306,5.776,1.146,1.146,0,0,0,.605,1.506,1.129,1.129,0,0,0,1.506-.605,14.764,14.764,0,0,1,3.654-4.9,1.142,1.142,0,0,0,.311-.4" transform="translate(-163.305 -37.957)" fill="#1a1a1a"/>
            <path id="Trazado_875995" data-name="Trazado 875995" d="M321.456,63.267c1.767-1.4,5.275-3.036,11.121-3.335,6.112-.313,10.963,2.723,17.237-3.62,2.728-2.759,3.961-6.78,4.724-10.487.384-1.866.587-3.743.805-5.632.252-2.18.942-3.8-.3-5.909a31.494,31.494,0,0,0-2.829-3.558,18.238,18.238,0,0,1-3.23-6.094,8.186,8.186,0,0,1,1.394-6.525,12.791,12.791,0,0,0,1.875-2.761,4.78,4.78,0,0,0-1.6-5.024,13.849,13.849,0,0,0-12.406-1.767,23.086,23.086,0,0,0-4.273,3.243c-1.657,1.329-3.139,2.857-4.716,4.276a17.408,17.408,0,0,1-6.523,4.056c-2.571.755-5.015-.285-7.559-.576a3.286,3.286,0,0,0-1.46.089,3.6,3.6,0,0,0-1.893,2.623,19.919,19.919,0,0,1,3.851-11.009,25.386,25.386,0,0,1,8.453-6.874C329.53,1.395,334.919-.367,341.08.065a38.5,38.5,0,0,1,18.545,5.874c7.851,4.816,8.8,21.083,8.54,23.191,0,0-3.311.4-4.515,1.3-3.426,2.55-2.526,8.258-1.6,11.875l1.041,4.068a41.841,41.841,0,0,1,.791,17.761c-2.323,12.9-9.944,21.636-21.2,23.22-19.851,2.794-22.083-16.416-22.324-21.646a2.935,2.935,0,0,1,1.1-2.439" transform="translate(-161.934 0)" fill="#1a1a1a"/>
            <path id="Trazado_875996" data-name="Trazado 875996" d="M322.92,94.167a4.166,4.166,0,0,1-.1.471,3.2,3.2,0,0,1-.9,1.659c-1.247,1.052-2.862-.337-3.086-1.657-.216-1.277,1.093-3.4,2.616-2.9a1.939,1.939,0,0,1,.849.682,2.547,2.547,0,0,1,.637,1.248,1.867,1.867,0,0,1-.014.5" transform="translate(-165.563 -47.602)" fill="#1a1a1a"/>
            <path id="Trazado_875997" data-name="Trazado 875997" d="M347.458,134.838c1.635-.549,11.69-1.806,13.263-1.607-.554,6.1-9.45,12.841-13.263,1.607" transform="translate(-180.441 -69.178)" fill="#fff"/>
            <path id="Trazado_875998" data-name="Trazado 875998" d="M427.777,90.124a28.848,28.848,0,0,0,.171-6.367,18.618,18.618,0,0,0-.574-2.1,2.2,2.2,0,0,0-2.782-1.4c-1.337.662-1.2,2.688-1.116,3.911.046.665.273,1.473.925,1.609.565.117,1.154-.367,1.7-.174a15.594,15.594,0,0,1,.18,4.381.836.836,0,0,0,.237.708.71.71,0,0,0,.787-.1,1.949,1.949,0,0,0,.474-.473" transform="translate(-219.893 -41.597)" fill="#fff"/>
            <path id="Trazado_875999" data-name="Trazado 875999" d="M270.516,439.751c-.082-.577-7.763,3.474-8.5,4.06-.938.748-2.115,2.307-1.285,3.362.951,1.209,3.076,1.118,4.265.643.97-.388,5.613-7.4,5.519-8.066" transform="translate(-135.257 -228.341)" fill="#89320b"/>
            <path id="Trazado_876000" data-name="Trazado 876000" d="M390.507,297.443s11.037,49.244,3.82,61.555-89.573,19.528-90.847,20.377-9.764,2.547-14.433,1.273-13.16-6.792-13.16-6.792-5.094.424-5.519.849-2.547,3.4-5.519,3.4c-3.295,0,.028-4.779.751-6.041a7.17,7.17,0,0,1,1.456-1.942c1.336-1.149,3.266-1.281,4.8-2.146,1.16-.653-.614-.95-1.057-.945a8.6,8.6,0,0,0-2.141.4l-2.11.578a3.306,3.306,0,0,0-1.731.92c-1.448,1.266-3.159,3.451-5.275,3.451s-2.123-1.274-1.7-2.123,3.82-5.094,3.82-5.094-6.792,3.4-8.49,2.123-1.7-2.547.849-3.82c1.876-.938,3.775-1.832,5.661-2.751,2.141-1.044,4.162-2.295,6.394-3.161a10.743,10.743,0,0,1,6.035-.821,4.423,4.423,0,0,1,2.47-1.17,8.811,8.811,0,0,1,1.681,0,7.908,7.908,0,0,1,2.354.558,4.743,4.743,0,0,0,1.368.457,9.494,9.494,0,0,0,1.074-.069,5.217,5.217,0,0,1,1.594.277c1.207.345,2.418.692,3.606,1.1.99.338,9.153,4.093,11.7,3.668s20.8-4.669,34.811-11.462,28.655-12.948,30.353-13.372c0,0-7.641-10.613-12.311-29.716s11.462-19.528,11.462-19.528Z" transform="translate(-130.864 -149.287)" fill="#a74b1a"/>
            <path id="Trazado_876001" data-name="Trazado 876001" d="M487.054,381.569a16.845,16.845,0,0,0-6.928,2.835c-1.245.857-.821,2.663.449,1.8,1.956-1.322,4.8-1.9,7.1-2.375,1.5-.31.839-2.494-.624-2.265" transform="translate(-248.95 -198.146)" fill="#89320b"/>
            <path id="Trazado_876002" data-name="Trazado 876002" d="M287.694,440.032c-2.707-.471-5.421-2.245-8.221-1.679a17.906,17.906,0,0,0-7.909,4.333c-.482.46.151,1.319.723.938,2.153-1.437,4.907-3.328,7.5-3.72,2.556-.386,4.508.847,7.022,1.215,1,.146,1.906-.909.883-1.087" transform="translate(-140.939 -227.587)" fill="#89320b"/>
            <path id="Trazado_876003" data-name="Trazado 876003" d="M484.691,252.629a88.74,88.74,0,0,1-32.263,10.613c-18.254,2.123-16.132.849-16.556,0s-.424-10.189-.849-13.16a163.631,163.631,0,0,0-5.943-22.075c-2.972-8.49-2.123-17.405,9.764-25.9s27.169-5.944,34.386,5.518,11.462,45,11.462,45" transform="translate(-222.076 -102.35)" fill="#61b7b0"/>
            <path id="Trazado_876004" data-name="Trazado 876004" d="M440.724,287.341a29.363,29.363,0,0,1-2.962-.291c-1.355-.277-1.518-.4-1.749-1.741-.331-1.925-.484-3.877-.654-5.82a107.764,107.764,0,0,0-1.549-11.628,89.19,89.19,0,0,0-3.123-11.435c-1.357-3.972-2.816-7.981-2.861-12.229a.876.876,0,0,0-1.751,0c-.265,4.618,1.08,8.88,2.472,13.226a93.161,93.161,0,0,1,3.367,13.824c.714,4.506.843,9.072,1.488,13.586.212,1.481.283,3.232,1.658,4.123,1.473.955,4.683.274,6.354.436,1.612.156.91-1.893-.689-2.051" transform="translate(-221.25 -126.377)" fill="#338c81"/>
            <g id="Grupo_1101030" data-name="Grupo 1101030" transform="translate(214.951 141.852)" opacity="0.5">
              <g id="Grupo_1101029" data-name="Grupo 1101029">
                <g id="Grupo_1101028" data-name="Grupo 1101028" clip-path="url(#clip-path-5)">
                  <path id="Trazado_876005" data-name="Trazado 876005" d="M492.878,295.252c-6.321,4.319-13.251,6.291-20.6,8.083-3.788.923-7.58,1.828-11.392,2.65-3.935.848-8.864,2.515-12.844,1.468a.7.7,0,0,0-.372,1.35c3.56,1.188,7.64-.054,11.194-.747,4.374-.854,8.714-1.868,13.047-2.91,7.781-1.87,15.131-3.869,21.816-8.445.886-.607.048-2.061-.847-1.449" transform="translate(-447.179 -295.105)" fill="#338c81"/>
                </g>
              </g>
            </g>
            <g id="Grupo_1101033" data-name="Grupo 1101033" transform="translate(208.7 81.718)" opacity="0.5">
              <g id="Grupo_1101032" data-name="Grupo 1101032">
                <g id="Grupo_1101031" data-name="Grupo 1101031" clip-path="url(#clip-path-6)">
                  <path id="Trazado_876006" data-name="Trazado 876006" d="M477.718,197.536a59.047,59.047,0,0,0-13.471-6.268,23.8,23.8,0,0,0-8.07-1.485,60.745,60.745,0,0,0-9.514-19.517c-.458-.622-1.51-.033-1.054.616a62.851,62.851,0,0,1,9.112,19.042,13.047,13.047,0,0,0-3.433,1.026c-7.98,3.6-13.177,10.753-17.056,18.324-.285.557.548,1.049.842.492,3.6-6.81,8.853-13.4,15.842-16.916a11.7,11.7,0,0,1,6.851-1.543,35.868,35.868,0,0,1,6.411,1.625,58.725,58.725,0,0,1,12.729,5.989c.881.546,1.683-.837.81-1.386" transform="translate(-434.174 -170.003)" fill="#338c81"/>
                </g>
              </g>
            </g>
            <path id="Trazado_876007" data-name="Trazado 876007" d="M225.6,182.944a1.855,1.855,0,0,0-1.583-.752,20.567,20.567,0,0,0-3.735,4.118c-4.245,5.519-18.254,22.5-18.254,22.5l-.849.849c-.849.849-4.67,10.613-3.821,10.613s8.915-4.67,11.037-8.915,16.981-26.32,16.981-26.32a4.535,4.535,0,0,0,.614-1.2,2.242,2.242,0,0,0-.39-.893" transform="translate(-102.428 -94.615)" fill="#1a1a1a"/>
            <path id="Trazado_876008" data-name="Trazado 876008" d="M219.461,239.623s-5.943-3.82-6.793-3.82-7.641,1.273-8.915,1.273-2.547,1.274-.424,4.245,7.641,1.7,8.066,2.122,2.547,2.123,2.547,2.123-2.972,6.793-.849,10.613,10.613,2.972,10.613,2.972l.425-11.037Z" transform="translate(-105.003 -122.457)" fill="#91401c"/>
            <path id="Trazado_876009" data-name="Trazado 876009" d="M219.84,263.4a8.411,8.411,0,0,1-1.806-6.595,24.261,24.261,0,0,1,1.2-3.044c.082-.27.24-.469.194-.766-.155-1-1.577-2.024-2.3-2.582-1.3-1-3.3-.784-4.865-.869-.935-.051-.876,1.3,0,1.419,1.381.185,5.33.312,5.161,2.553,0,.041-.636,1.429-.656,1.484a9.663,9.663,0,0,0-.478,2.164c-.286,2.687,1.323,5.319,2.952,7.424.574.742,1.169-.43.6-1.188" transform="translate(-109.88 -129.593)" fill="#702c12"/>
            <path id="Trazado_876010" data-name="Trazado 876010" d="M217.172,225.527c-.467.113-.268.813.2.716a2.8,2.8,0,0,1,3.415,2.7.388.388,0,0,0,.776,0,3.5,3.5,0,0,0-4.389-3.411" transform="translate(-112.643 -117.066)" fill="#1a1a1a"/>
            <path id="Trazado_876011" data-name="Trazado 876011" d="M196.982,258.991a2.15,2.15,0,0,0-.527.594c-.15.214-.3.428-.445.646-.231.348.319.785.586.452.166-.208.327-.418.488-.63a2.137,2.137,0,0,0,.406-.671.35.35,0,0,0-.509-.391" transform="translate(-101.763 -134.471)" fill="#1a1a1a"/>
            <path id="Trazado_876012" data-name="Trazado 876012" d="M229.468,237.961c-1.96-1.751-3.723-3.534-6.27-3.109-.97.162-.971.589,0,.849a14.551,14.551,0,0,1,5.943,2.972c.6.5.922-.18.327-.711" transform="translate(-115.533 -121.93)" fill="#702c12"/>
            <path id="Trazado_876013" data-name="Trazado 876013" d="M271.307,521.672c-.849,1.7,0,5.094,1.274,5.943s8.914,5.094,10.612,5.094,12.311-5.943,13.16-7.641a6.234,6.234,0,0,0-.424-5.519c-.848-1.273-9.764-4.67-11.462-4.67-3.821,0-12.311,5.094-13.16,6.792" transform="translate(-140.717 -267.386)" fill="#f1e6dc"/>
            <path id="Trazado_876014" data-name="Trazado 876014" d="M284.175,539.278a4.193,4.193,0,0,0,.215-1.49q.025-1.5-.048-3a3.857,3.857,0,0,0-.173-1.128,3.065,3.065,0,0,0-1.053-1.311,12.717,12.717,0,0,0-2.41-1.373,48.5,48.5,0,0,0-6.644-2.773,3.282,3.282,0,0,0-2.692.177c-.023.037-.048.074-.065.108-.849,1.7,0,5.094,1.273,5.943s8.915,5.094,10.613,5.094a3.433,3.433,0,0,0,.983-.247" transform="translate(-140.717 -274.201)" fill="#e5d6ca"/>
            <g id="Grupo_1101036" data-name="Grupo 1101036" transform="translate(143.801 251.696)" opacity="0.5">
              <g id="Grupo_1101035" data-name="Grupo 1101035">
                <g id="Grupo_1101034" data-name="Grupo 1101034" clip-path="url(#clip-path-7)">
                  <path id="Trazado_876015" data-name="Trazado 876015" d="M309.547,523.943c-.037,1.156-1.672,1.98-2.509,2.589A26.254,26.254,0,0,1,304.81,528a30.017,30.017,0,0,1-5.453,2.4.28.28,0,0,0,.149.54,20.769,20.769,0,0,0,6.679-2.846c.981-.631,1.913-1.339,2.835-2.052a2.246,2.246,0,0,0,1.127-1.953c.013-.515-.583-.66-.6-.147" transform="translate(-299.16 -523.623)" fill="#e5d6ca"/>
                </g>
              </g>
            </g>
            <path id="Trazado_876016" data-name="Trazado 876016" d="M284.034,538a7.616,7.616,0,0,0-1.336-.831.77.77,0,1,0-.777,1.329,7.675,7.675,0,0,0,1.387.75.752.752,0,0,0,.726-1.247" transform="translate(-146.213 -278.911)" fill="#d3bdae"/>
            <path id="Trazado_876017" data-name="Trazado 876017" d="M293.988,529.193c-.36-1.7-1.737-2.633-3.147-3.455a44.173,44.173,0,0,0-5.481-2.694c-1.729-.709-4.112-1.66-6.021-1.22-.343.079-.362.461,0,.424,1.68-.169,3.568.642,5.093,1.265a47.122,47.122,0,0,1,4.635,2.189c1.241.672,2.886,1.385,3.679,2.609a6.575,6.575,0,0,1,.178,5.4c-.22.371.137.2.443-.079,1.046-.963.89-3.172.622-4.439" transform="translate(-144.928 -270.934)" fill="#d3bdae"/>
            <path id="Trazado_876018" data-name="Trazado 876018" d="M192.082,546.069c-.377-.086-.755-.146-1.126-.258a.539.539,0,1,0-.286,1.038,4.916,4.916,0,0,0,1.269.286.546.546,0,0,0,.144-1.067" transform="translate(-98.812 -283.438)" fill="#2d2d2d"/>
            <path id="Trazado_876019" data-name="Trazado 876019" d="M192.869,546.883s2.547,2.972,5.094,3.82,39.48,9.34,38.631,5.094-35.235-10.189-35.235-10.189-10.189-.849-8.49,1.274" transform="translate(-100.061 -283.257)" fill="#ed4450"/>
            <path id="Trazado_876020" data-name="Trazado 876020" d="M263.621,558.525c-2.864-4.283-9.216-5.235-13.982-5.309a.82.82,0,0,0,0,1.638c4.111.25,10.06.758,12.716,4.41.545.749,1.8.056,1.266-.74" transform="translate(-129.231 -287.295)" fill="#c02328"/>
            <path id="Trazado_876021" data-name="Trazado 876021" d="M210.99,546.91a2.589,2.589,0,0,0-2.1,2.309,3.989,3.989,0,0,0,1.263,3.184c.307.323.774-.156.485-.485-1.108-1.268-1.849-4.24.4-4.706.486-.1.43-.395-.053-.3" transform="translate(-108.471 -284.01)" fill="#c02328"/>
            <path id="Trazado_876022" data-name="Trazado 876022" d="M73.48,526.683s-8.066,5.094-8.49,7.217,4.67,27.169,5.943,28.443,19.952,9.764,22.924,9.34,22.924-13.16,23.773-15.707,2.972-23.773,1.274-26.32-15.283-5.943-15.283-5.943Z" transform="translate(-33.737 -271.972)" fill="#e6e6e6"/>
            <path id="Trazado_876023" data-name="Trazado 876023" d="M80.2,529.4s-6.793,4.67-6.368,5.943,19.528,13.16,24.2,12.736S118.4,534.071,118.4,532.8s-11.037-4.67-11.037-4.67Z" transform="translate(-38.33 -274.266)" fill="#4a3333"/>
            <path id="Trazado_876024" data-name="Trazado 876024" d="M116.109,500.085a2.786,2.786,0,0,0-2.769-3.07,7.508,7.508,0,0,0-.747-6.586c-1.055-1.861-2.828-3.541-4.965-3.6a5.067,5.067,0,0,0-3.877,1.865,7.925,7.925,0,0,0-1.63,3.487,1.8,1.8,0,0,0-2.939-1.486,4.355,4.355,0,0,0-2.55-3.079,10,10,0,0,0-6.169-1.244,7.159,7.159,0,0,0-5.179,3.382,3.3,3.3,0,0,0-3.794-1.34,4.179,4.179,0,0,0-2.672,3.174,5.745,5.745,0,0,0,.9,4.148,7.482,7.482,0,0,0-8.041,6.245,7.31,7.31,0,0,0,1.959,5.741,7.459,7.459,0,0,0,2.518,1.814c.349.151.978.234,1.179.6.211.386-.1.973-.133,1.385a4.084,4.084,0,0,0,1.266,3.276,5.028,5.028,0,0,0,5.392.668,5.989,5.989,0,0,0,2.158,4.07,3.612,3.612,0,0,0,4.38.036,3.677,3.677,0,0,0,2.49,3.623,6.808,6.808,0,0,0,4.635-.215,8.245,8.245,0,0,0,3.467-2.234,5.04,5.04,0,0,0,1.293-3.836,7.621,7.621,0,0,0,6.081-.83c1.728-1.207,2.621-3.705,1.589-5.543a4.414,4.414,0,0,0,5.19-2.437,4.011,4.011,0,0,0-2.3-5.121,3.535,3.535,0,0,0,3.266-2.9" transform="translate(-37.199 -252.537)" fill="#009245"/>
            <path id="Trazado_876025" data-name="Trazado 876025" d="M119.537,507.884a4.506,4.506,0,0,0-5.622-.834,7.579,7.579,0,0,0-7.734-5.652,5.44,5.44,0,0,0-5.173,7.014,8.154,8.154,0,0,0-6.275,3.7c-1.431,2.359-.386,4.88,1.623,6.378a8.121,8.121,0,0,0-1.434,3.423c-.156.894,1.182,1.293,1.381.381a6.941,6.941,0,0,1,1.8-3.43.816.816,0,0,0-.163-1.267c-5.229-3.159.3-7.711,4.343-7.532a.853.853,0,0,0,.73-1.272c-1.977-3.416,1.418-6.365,4.862-5.584a5.74,5.74,0,0,1,4.561,5.476.855.855,0,0,0,1.444.6,2.849,2.849,0,0,1,4.463-.205c.774.766,1.971-.429,1.2-1.2" transform="translate(-48.853 -260.378)" fill="#006837"/>
            <path id="Trazado_876026" data-name="Trazado 876026" d="M120.556,536.461a6.649,6.649,0,0,1-.312,1.725,1.9,1.9,0,0,1-.526.612c-.414.4-.853.778-1.292,1.151-1.819,1.548-3.7,3.021-5.589,4.487q-3.517,2.735-7.087,5.4-1.681,1.257-3.372,2.5a34.238,34.238,0,0,1-3.864,2.754,7.953,7.953,0,0,1-4.859.836,24.641,24.641,0,0,1-4.911-1.548,42.415,42.415,0,0,1-6.778-3.261,85.917,85.917,0,0,1-12.776-8.879c-.685-.6-1.687.38-1.008,1.008a68.521,68.521,0,0,0,14.494,10.431,40.874,40.874,0,0,0,7.217,3.4c1.924.591,4.473,1.3,6.368.849-.161,3.754-.561,16.213-.941,20.385.031,0,.063,0,.092-.008,2.972-.424,22.924-13.16,23.773-15.707.831-2.494,2.883-22.9,1.374-26.135" transform="translate(-35.29 -278.594)" fill="#ccc"/>
            <path id="Trazado_876027" data-name="Trazado 876027" d="M229.484,574.844c-6.872-.74-41.863-4.389-44.432-2.248-2.85,2.375-5.225,15.2-5.225,16.626a3.275,3.275,0,0,0,1.425,2.375s45.128,3.8,47.029,2.85c1.571-.785,2.167-13.577,2.327-17.992a4.794,4.794,0,0,0-1.124-1.612" transform="translate(-93.387 -297.014)" fill="#b0c1d3"/>
            <path id="Trazado_876028" data-name="Trazado 876028" d="M229.693,578.406c-.048,4.7-.279,16.273-1.413,17.029-1.3.87-41.624-2.64-48.427-3.239-.018.169-.027.3-.027.389a3.275,3.275,0,0,0,1.425,2.375s45.128,3.8,47.029,2.85c1.57-.785,2.167-13.577,2.327-17.992a5.355,5.355,0,0,0-.915-1.413" transform="translate(-93.387 -300.376)" fill="#829caf"/>
            <path id="Trazado_876029" data-name="Trazado 876029" d="M187.931,575.225s-5.225,12.826-4.275,13.776,43.7,4.276,44.653,3.325,2.85-14.251,1.425-14.726-40.378-2.85-41.8-2.375" transform="translate(-95.316 -298.692)" fill="#464c7b"/>
            <g id="Grupo_1101039" data-name="Grupo 1101039" transform="translate(91.961 276.47)" opacity="0.1">
              <g id="Grupo_1101038" data-name="Grupo 1101038">
                <g id="Grupo_1101037" data-name="Grupo 1101037" clip-path="url(#clip-path-8)">
                  <path id="Trazado_876030" data-name="Trazado 876030" d="M233.283,589.123c-3.4-1.248-14.642-5.42-14.239-5.823.475-.475,10.451,3.325,10.451,3.325S213.356,577,209.574,575.866c-2.5-.141-4.937-.27-7.161-.378-1.091-.05-1.879-.089-1.965-.092h-.012s7.176,5.048,6.717,5.288c-.422.221-8.246-4.607-9.536-5.407a45.371,45.371,0,0,0-5.649-.052s-.261.641-.655,1.643c2.059,1.52,14.509,10.668,15.381,10.233.95-.475,2.167-3.694,2.984-3.272.613.317,12.533,6.012,18.648,8.635a14.712,14.712,0,0,0,4.02-.138,9.884,9.884,0,0,0,.938-3.2" transform="translate(-191.313 -575.162)" fill="#feffff"/>
                </g>
              </g>
            </g>
            <path id="Trazado_876031" data-name="Trazado 876031" d="M185.723,599.846a.8.8,0,0,0,0,1.588.795.795,0,0,0,0-1.588" transform="translate(-96.051 -311.51)" fill="#b0c1d3"/>
            <path id="Trazado_876032" data-name="Trazado 876032" d="M186.732,596.02a.769.769,0,0,0,0,1.536.769.769,0,0,0,0-1.536" transform="translate(-96.588 -309.524)" fill="#b0c1d3"/>
            <path id="Trazado_876033" data-name="Trazado 876033" d="M194.9,611.157c-1.447-.11-2.9-.195-4.343-.3-.564-.042-.55.817,0,.872,1.444.147,2.893.274,4.343.336.586.025.575-.862,0-.906" transform="translate(-98.744 -317.226)" fill="#b0c1d3"/>
            <path id="Trazado_876034" data-name="Trazado 876034" d="M207.046,612.445a26.857,26.857,0,0,0-3.915-.333c-.557-.038-.545.81,0,.861a26.3,26.3,0,0,0,3.8.3c.45-.026.6-.717.112-.824" transform="translate(-105.275 -317.879)" fill="#b0c1d3"/>
            <path id="Trazado_876035" data-name="Trazado 876035" d="M516.815,504.491c-2.6-1.228-5.205-.731-7.805.291-3.338,1.312-6.57,2.86-9.945,4.093a167.18,167.18,0,0,1-21.228,6.039c-13.848,3.071-28.8,3.889-41.787,9.952a36.523,36.523,0,0,0-15.381,12.745c-.5.768.7,1.449,1.22.713,7.506-10.722,20.384-14.862,32.655-17.265,13.219-2.588,26.5-4.573,39.379-8.652,3.63-1.149,7.213-2.443,10.726-3.909,3.323-1.386,7.647-4.277,11.312-2.547.979.462,1.839-1,.854-1.46" transform="translate(-218.398 -261.615)" fill="#c02328"/>
            <path id="Trazado_876036" data-name="Trazado 876036" d="M193.847,98.987a5.9,5.9,0,0,0-2.631-1.614c-2.365-.85-4.9-1-7.329-1.615q-5.08-1.281-10.047-2.961c-6.8-2.289-13.344-5.248-20.135-7.551A83.016,83.016,0,0,0,113.8,82.027a104.121,104.121,0,0,0-22.2,6.751c-1.791.727-1.079,3.646.818,2.968,12.355-4.414,26.095-5.786,39.152-4.809a80.656,80.656,0,0,1,18.979,3.789c6.708,2.19,13.117,5.153,19.876,7.206a116.752,116.752,0,0,0,11.583,2.9,48.784,48.784,0,0,0,8.006,1.4c1.214.031,3.045-.251,3.793-1.341a1.507,1.507,0,0,0,.042-1.9" transform="translate(-47.033 -42.03)" fill="#ddd4f5"/>
            <path id="Trazado_876037" data-name="Trazado 876037" d="M73.105,104.4c-3.739,0-3.745,5.81,0,5.81s3.745-5.81,0-5.81" transform="translate(-36.507 -54.219)" fill="#ddd4f5"/>
            <path id="Trazado_876038" data-name="Trazado 876038" d="M548.131,599.055a111.066,111.066,0,0,1-14.233,6.692c-4.885,1.849-9.98,3.038-14.873,4.839-1.925.709-1.829,3.978.518,3.831,5.495-.345,10.9-2.1,16.046-3.969a103.252,103.252,0,0,0,15.167-6.9c2.922-1.637.31-6.108-2.625-4.49" transform="translate(-268.837 -310.92)" fill="#ddd4f5"/>
            <path id="Trazado_876039" data-name="Trazado 876039" d="M598.608,589.456c-3.406,0-3.411,5.293,0,5.293s3.411-5.293,0-5.293" transform="translate(-309.54 -306.115)" fill="#ddd4f5"/>
          </g>
        </g>
      </g>
    </g>
  </g>
</svg>
