<svg xmlns="http://www.w3.org/2000/svg" xmlns:xlink="http://www.w3.org/1999/xlink" width="315" height="380" viewBox="0 0 315 380">
  <defs>
    <clipPath id="clip-path">
      <rect id="Rectángulo_402726" data-name="Rectángulo 402726" width="315" height="266.314" fill="none"/>
    </clipPath>
    <clipPath id="clip-path-3">
      <rect id="Rectángulo_402718" data-name="Rectángulo 402718" width="3.815" height="61.098" fill="none"/>
    </clipPath>
    <clipPath id="clip-path-4">
      <rect id="Rectángulo_402719" data-name="Rectángulo 402719" width="41.138" height="6.463" fill="none"/>
    </clipPath>
    <clipPath id="clip-path-5">
      <rect id="Rectángulo_402722" data-name="Rectángulo 402722" width="8.627" height="49.055" fill="none"/>
    </clipPath>
    <clipPath id="clip-path-6">
      <rect id="Rectángulo_402723" data-name="Rectángulo 402723" width="9.475" height="27.371" fill="none"/>
    </clipPath>
    <clipPath id="clip-path-7">
      <rect id="Rectángulo_402724" data-name="Rectángulo 402724" width="25.797" height="67.125" fill="none"/>
    </clipPath>
    <clipPath id="clip-path-8">
      <rect id="Rectángulo_402732" data-name="Rectángulo 402732" width="285.793" height="50" fill="none"/>
    </clipPath>
  </defs>
  <g id="Grupo_1101095" data-name="Grupo 1101095" transform="translate(10929 6289)">
    <rect id="Rectángulo_402729" data-name="Rectángulo 402729" width="315" height="380" transform="translate(-10929 -6289)" fill="none"/>
    <g id="Grupo_1101075" data-name="Grupo 1101075" transform="translate(-10929 -6219.579)">
      <g id="Grupo_1101074" data-name="Grupo 1101074" clip-path="url(#clip-path)">
        <g id="Grupo_1101073" data-name="Grupo 1101073">
          <g id="Grupo_1101072" data-name="Grupo 1101072" clip-path="url(#clip-path)">
            <path id="Trazado_876142" data-name="Trazado 876142" d="M265.41,245.754c.47-6.444,5.347-11.539,9.388-16.579,20.909-26.075,23.395-65.424,5.934-93.924-6.661-10.873-16.836-20.633-29.466-22.383-13.639-1.89-29.5,5.338-40.265-3.245-8.165-6.508-8.572-18.809-14.547-27.371-6.621-9.487-18.948-12.946-30.411-14.512-32.766-4.474-66.277,1.135-97.668,11.539-17.834,5.911-35.583,13.64-49.085,26.7S-2.857,138.357.87,156.771C3,167.279,9.379,176.193,15.25,185.023a287,287,0,0,0,20.535,27.228c3.65,4.285,7.479,8.54,9.859,13.641,2.333,5,3.153,10.577,3.469,16.088A52.15,52.15,0,0,1,47.9,258.1c-2.564,9.85-9.226,18.248-11.8,28.1a36.011,36.011,0,0,0,.844,20.841c11.529,1.525,23.742.561,35.377.593l43.827.121,95.033.262,58.476.161a10.561,10.561,0,0,0,2.429.007,45.715,45.715,0,0,0,.934-43.047c-3.248-6.258-8.128-12.35-7.614-19.382" transform="translate(0 -45.865)" fill="#cff6fc"/>
            <path id="Trazado_876143" data-name="Trazado 876143" d="M98.345,606.865s.52,8.588,1.3,9.109a12.618,12.618,0,0,0,2.223.26c.008.057.016.117.026.177.062.448.133.934.208,1.455.971,6.766,2.815,19.086,3.75,21.966h27.324c1.232-2.568,3.058-16.2,3.595-22.5a9.646,9.646,0,0,0,3.214-.32c.781-1.041,2.342-9.109.781-9.63-.4-.135-3.439-.234-7.712-.308,3.4-2.815,6.162-5.769,4.589-6.979-3.384-2.6-8.849,4.425-8.849,4.425S151.438,570.169,141.808,566c-9.282-4.014-15.178,19.052-15.591,20.722.309-1.27,3.419-14.464-.545-14.216-4.164.26-4.685,17.438-4.685,17.438s-1.3-46.847-12.493-42.683,4.425,50.751,4.425,50.751-9.109-20.56-14.054-14.054c-3.932,5.174,5.63,17.918,9.712,22.921-5.9-.018-10.233-.018-10.233-.018" transform="translate(-67.865 -379.048)" fill="#a0eef9"/>
            <path id="Trazado_876144" data-name="Trazado 876144" d="M452.042,87.193a.46.46,0,0,0-.919,0c-.2,3.259-.1,6.488-.1,9.669,0,2.439-.015,4.879,0,7.319-6.6.117-42.455.68-43.233-.876-.765-1.53-.164-29.46-.026-35.438q-2.557.185-5.11.438c.07,3.033.889,37.881,1.709,38.428.8.532,41.53.321,47.075.289a.6.6,0,0,0,.288,0l.336,0v-.274a.55.55,0,0,0,.045-.214c.056-3.222.025-6.446.027-9.668,0-3.182-.072-6.124-.1-9.669" transform="translate(-279.022 -47.029)" fill="#a0eef9"/>
            <path id="Trazado_876145" data-name="Trazado 876145" d="M828.218,239.943c.068-.684-4.493-13.919.4-14.47s2.851,13.065,2.851,13.065,18.961-27.485,23.1-23.965-18.965,24.03-18.965,24.03,30.605-12.512,34.168-6.632-29.649,9.843-29.649,9.843,43.524,13.988,33.714,22.343-35.764-19.091-35.764-19.091,34.65,37.291,27.13,43.455S832.3,247.6,832.3,247.6s12.623,39.944,5,40.224-7.867-39.127-7.867-39.127-2.436,31.542-9.176,29.837,5.857-31.2,5.857-31.2-15.589,10.892-17.442,5.181,17.506-9.32,17.506-9.32-10.128-2.386-8.248-3.927,10.3.675,10.3.675" transform="translate(-560.278 -148.473)" fill="#a0eef9"/>
            <path id="Trazado_876146" data-name="Trazado 876146" d="M636.443,263.055s16.832-7.754,15.2-10.78-15.464,7.251-15.464,7.251,9.87-23.842,5.428-28.165-7.853,24.395-7.853,24.395-2.591-33.76-10.371-36.593,6.481,35.176,6.481,35.176-22.328-35.3-33.565-35.562,25.834,34.265,25.834,34.265-31.213-14.408-31.91-7.157,32.414,13.448,32.414,13.448-23.483,1.655-19.545,9.531,28.838-7.514,28.838-7.514-14.5,13.373-10.349,18.32,14.864-16.615,14.864-16.615" transform="translate(-408.989 -151.601)" fill="#a0eef9"/>
            <path id="Trazado_876147" data-name="Trazado 876147" d="M734.393,444c.113-.914,12.208-97.3,34.771-123.19l-1.3-1.129c-9.634,11.056-18.373,34.37-25.974,69.293-2.351,10.8-4.221,21.1-5.605,29.454.32-7.632.537-16.765.379-26.129-.54-31.967-4.988-51.278-13.221-57.395l-1.025,1.38c18.7,13.9,10.342,106.654,10.262,107.532Z" transform="translate(-500.604 -221.525)" fill="#a0eef9"/>
            <path id="Trazado_876148" data-name="Trazado 876148" d="M758.139,602.8c.074-.4,8.2-45.644,21.8-52.264l-.752-1.546c-6.087,2.962-11.657,11.95-16.554,26.715-3.611,10.884-6.17,26.681-6.189,26.783Z" transform="translate(-524.183 -380.422)" fill="#a0eef9"/>
            <path id="Trazado_876149" data-name="Trazado 876149" d="M799.631,510.349s12.039-18.591,14.464-14.033-11,14.138-11,14.138,23.971-3.5,22.953,1.919-20.2.513-20.2.513,29.066,15.237,24.1,24.217-25.341-20.144-25.341-20.144,8.869,15.75,4.158,19.72-8.005-19.622-8.005-19.622-2.194,19.688-6.7,16.723,3.965-18.193,3.965-18.193-10.506,3.154-9.44-.337,11.039-4.9,11.039-4.9" transform="translate(-546.404 -343.425)" fill="#a0eef9"/>
            <path id="Trazado_876150" data-name="Trazado 876150" d="M682.043,710.747h54.682l.5-12.348-55.454.386Z" transform="translate(-472.435 -483.957)" fill="#a0eef9"/>
            <path id="Trazado_876151" data-name="Trazado 876151" d="M743.7,723.534s-3.031,38.737-5.39,39.748-33.684,1.347-34.695,0-5.389-39.748-5.389-39.748Z" transform="translate(-483.838 -501.375)" fill="#a0eef9"/>
            <path id="Trazado_876152" data-name="Trazado 876152" d="M433.1,64.676c-1.824-2.626-3.853-5.112-5.689-7.735-1.463-2.089-2.865-4.218-4.243-6.363a3.446,3.446,0,0,0,.386-.765,3.707,3.707,0,0,0-2.112-4.672,3.257,3.257,0,0,0-3.438.685.64.64,0,0,0-.1,0,3.745,3.745,0,0,0-1.768.659c-15.78-.044-31.581-.221-47.357.082a.485.485,0,0,0,0,.968c15.424.3,30.873.135,46.3.086a3.357,3.357,0,0,0-.362.884q-22.15-.245-44.327.082a.5.5,0,0,0,0,1q22.108.315,44.258.083a3.323,3.323,0,0,0,.407,1.214,3.242,3.242,0,0,0,4.547,1.115c2.768,4.519,5.658,8.965,8.706,13.3.407.579,1.368.031.96-.561q-4.349-6.293-8.425-12.761a2.884,2.884,0,0,0,1.567-.59A98.53,98.53,0,0,0,432.3,65.3c.379.43,1.135-.14.8-.619" transform="translate(-255.224 -31.13)" fill="#1a1a1a"/>
            <path id="Trazado_876153" data-name="Trazado 876153" d="M322.407,46.221c13.561,2.646,11.245,17.638,11.245,17.638l-20.711-4.831-8.414-3.937s4.072-11.565,17.88-8.87" transform="translate(-211.023 -31.747)" fill="#61b7b0"/>
            <path id="Trazado_876154" data-name="Trazado 876154" d="M333.512,83.034c-.5,1.64-7.421.99-15.463-1.453s-14.157-5.752-13.659-7.392,7.421-.989,15.463,1.453,14.157,5.753,13.659,7.392" transform="translate(-210.909 -50.782)" fill="#4a3333"/>
            <path id="Trazado_876155" data-name="Trazado 876155" d="M343.01,77.855c-1.822-.553-3.585-1.014-5.231-1.377a5.309,5.309,0,0,0,5.043,4.268,5.678,5.678,0,0,0,4.32-1.5c-1.3-.482-2.683-.951-4.133-1.391" transform="translate(-234.065 -52.996)" fill="#f1e6dc"/>
            <path id="Trazado_876156" data-name="Trazado 876156" d="M325.354,50.024a10.65,10.65,0,0,0-5.587,3.084c-.562.644.544,1.635,1.128,1a11.189,11.189,0,0,1,4.97-3.19c1.014-.248.506-1.153-.511-.894" transform="translate(-221.476 -34.632)" fill="#feffff"/>
            <path id="Trazado_876157" data-name="Trazado 876157" d="M249.754,282.6s-28.706.714-28.706-.143,19.708-26.563,19.708-26.563l-6.284-2.856s-17.379,28.118-18.968,28.694c-4.358-.227-8.808.03-13.151.028l-.863,0a.092.092,0,0,1-.008-.014c-.286-.857,24.85-33.7,24.85-33.7l-4.856-.571c0,.242-20.1,25.919-26.06,34.268-2.69-.009-5.379-.008-8.067.037a1.688,1.688,0,0,0,0,3.374c4.061.068,8.126.037,12.189.021l4.008,0c4.123.037,8.325.242,12.439-.007l32.951-.018Z" transform="translate(-128.695 -171.484)" fill="#1a1a1a"/>
            <path id="Trazado_876158" data-name="Trazado 876158" d="M253.771,228.582h-.3q-6.378.029-12.756.05-11.729.041-23.459.057c-7.644.01-15.289.014-22.933-.025-2.587-.013-5.174-.028-7.76-.071a7.261,7.261,0,0,1-4.781-1.438c-1.981-1.536-3.337-3.695-4.982-5.552q-6.97-7.867-13.818-15.842-7.986-9.257-15.87-18.6c-4.207-5-8.412-10-12.461-15.125-.633-.8-1.262-1.605-1.877-2.42-.527-.7-1.574-1.94-1.124-2.862.489-1,2.151-.882,3.059-.917,1.951-.077,3.9.019,5.848,0,7.337-.089,14.677.041,22.012.207q12.008.272,24.009.777c3.183.137,6.365.287,9.545.476,3,.178,6.124-.193,8.7,1.61a21.2,21.2,0,0,1,2.825,2.573c2.1,2.126,4.164,4.295,6.218,6.468q8.317,8.8,16.481,17.741,7.441,8.1,14.837,16.233c1.666,1.832,3.263,3.772,5.015,5.523,0,0,11.139,11.139,3.57,11.139" transform="translate(-91.153 -114.895)" fill="#4d4d4d"/>
            <path id="Trazado_876159" data-name="Trazado 876159" d="M181.784,227.753a7.26,7.26,0,0,0,4.781,1.438c2.587.043,5.173.058,7.76.071,7.644.039,15.289.034,22.933.025q11.729-.014,23.459-.057,6.378-.022,12.755-.05h.3c2.06,0,2.733-.826,2.622-2.028a3.285,3.285,0,0,1-1.909,1.171s-66.265.286-69.407-.286-5.427-4.57-8.855-8.283-41.987-49.128-43.415-51.127c-.67-.939-.585-1.563-.306-1.96a1.409,1.409,0,0,0-.849.687c-.45.922.6,2.163,1.124,2.862.615.815,1.244,1.619,1.877,2.42,4.049,5.125,8.254,10.129,12.461,15.125q7.875,9.351,15.87,18.6,6.866,7.958,13.818,15.842c1.645,1.857,3,4.016,4.982,5.552" transform="translate(-91.153 -115.491)" fill="#1a1a1a"/>
            <path id="Trazado_876160" data-name="Trazado 876160" d="M460.009,264.568c-.235-.065-.468-.137-.7-.223a11.279,11.279,0,0,1-2.292-1.165c-.795-.526-2.135-1.985-3.105-1.026a1.469,1.469,0,0,0-.365,1.234,4.758,4.758,0,0,0,1.585,2.49,9.177,9.177,0,0,0,2.145,1.553c.349.177.715.32,1.051.521a8.288,8.288,0,0,1,1.87,2.105,16.12,16.12,0,0,0,2.223,2.238c.409.338.623.047.964-.21l1.075-.812,2.383-1.8.8-.6a13.72,13.72,0,0,0-1.733-1.6,14.13,14.13,0,0,0-4.23-2.252c-.551-.182-1.113-.3-1.669-.454" transform="translate(-314.277 -181.44)" fill="#e08257"/>
            <path id="Trazado_876161" data-name="Trazado 876161" d="M148.687,174.909l48.271,55.7h67.693l-49.985-54.269Z" transform="translate(-103.033 -121.204)" fill="#f2f2f2"/>
            <path id="Trazado_876162" data-name="Trazado 876162" d="M347.267,183.292l47.873,53.124,7.031-.05L353.8,183.815Z" transform="translate(-240.64 -127.013)" fill="#d7e2f2"/>
            <path id="Trazado_876163" data-name="Trazado 876163" d="M214.666,176.337l-65.98-1.428,2.016,2.326,65.492.761Zm-63.454.37a1.247,1.247,0,0,1-.851-.958.111.111,0,0,1,.086-.12c.252-.61,1.556-.072,1.589.558.025.488-.422.668-.824.52m2.092,0a1.247,1.247,0,0,1-.851-.958.111.111,0,0,1,.086-.12c.252-.61,1.555-.072,1.589.558.025.488-.422.668-.824.52m2.092,0a1.247,1.247,0,0,1-.851-.958.111.111,0,0,1,.086-.12c.252-.61,1.555-.072,1.589.558.025.488-.422.668-.824.52" transform="translate(-103.032 -121.204)" fill="#5f7ab3"/>
            <path id="Trazado_876164" data-name="Trazado 876164" d="M167.7,189.121c-.262,0-6.748-.058-6.748-.058h0l14.3,16.505c3.118-.08,7.346.414,7.346-.238,0-.785-14.641-16.21-14.9-16.21" transform="translate(-111.533 -131.012)" fill="#d7e2f2"/>
            <path id="Trazado_876165" data-name="Trazado 876165" d="M279.659,198.546a9.162,9.162,0,0,0-1.146,8.089c.483,1.412,1.308,2.681,1.878,4.06a5.621,5.621,0,0,1,.267,4.346c-1.042,2.361-4.176,2.959-5.835,4.936a6.265,6.265,0,0,0-1.063,5.4,12.921,12.921,0,0,0,2.66,4.992,18.845,18.845,0,0,0,4.3,4.083c4.1,2.708,9.318,3.091,14.222,2.736a19.417,19.417,0,0,0,8.616-2.237c2.573-1.533,4.582-4.307,4.469-7.3-.067-1.759-.837-3.542-.333-5.229.69-2.31,3.5-3.51,4.123-5.84a6.337,6.337,0,0,0-.573-3.908c-1.382-3.452-3.58-6.8-6.938-8.4-2.02-.961-4.385-1.256-6.128-2.658a28.408,28.408,0,0,1-2.873-3.295c-4.035-4.433-12.029-4.941-15.651.228" transform="translate(-189.57 -135.009)" fill="#00b671"/>
            <path id="Trazado_876166" data-name="Trazado 876166" d="M266.916,217.133h.047a.592.592,0,0,0,.063.009q.45-.006.565-.017l.188,0,.194.007a1.323,1.323,0,0,1,.3.054.53.53,0,0,1,.314.208l.313.477.281.458.019.038.035.048.033.057q.059.144-.1.136a6.223,6.223,0,0,0-.673-.039,1.979,1.979,0,0,0-.441.044l-.132,0a.383.383,0,0,0-.117.021c-.138.027-.217.086-.24.176a.356.356,0,0,0,0,.2.86.86,0,0,0,.406.408.8.8,0,0,0,.215.113l.1.037.1.037a4.707,4.707,0,0,0,.839.2l.4.072.4.081a2.145,2.145,0,0,1,.466.157l.131.076.134.065a2.9,2.9,0,0,1,.265.141,4.266,4.266,0,0,1,.843.682l.2.219a2.87,2.87,0,0,1,.471.6,3.094,3.094,0,0,1,.286.477,1.327,1.327,0,0,1,.164.826.73.73,0,0,1-.543.536,1.348,1.348,0,0,1-.178.041l-.1.021-.118.021-.417.063a.773.773,0,0,1-.244,0l-.129-.008-.119-.008-.277-.016a6.488,6.488,0,0,1-1.034-.208.269.269,0,0,0-.1-.028.607.607,0,0,1-.3-.227l-.1-.172a6.539,6.539,0,0,1-.546-1.022l-.016-.048-.017-.048c-.018-.077.022-.1.122-.079a1.6,1.6,0,0,1,.26.083,2.337,2.337,0,0,0,.884.171,2.213,2.213,0,0,1,.389.052.723.723,0,0,0,.607-.075c.053-.039.066-.1.037-.193a.463.463,0,0,0-.194-.238,1.67,1.67,0,0,0-.34-.178,6.647,6.647,0,0,0-.879-.229,5.987,5.987,0,0,1-1.583-.528,4.859,4.859,0,0,1-1.286-.9,6.513,6.513,0,0,1-.717-.857,3.78,3.78,0,0,1-.431-.764,1.832,1.832,0,0,1-.166-.7.512.512,0,0,1,.5-.517,2.406,2.406,0,0,0,.446-.064c.031,0,.047,0,.049-.01a2.076,2.076,0,0,0,.392.043Z" transform="translate(-183.955 -150.427)" fill="#006837"/>
            <path id="Trazado_876167" data-name="Trazado 876167" d="M292.041,224.053q.084.114-.009.154a.267.267,0,0,1-.108.021l-.124.011-.267.023-.166-.007-.159,0a2.611,2.611,0,0,0-.293.014.426.426,0,0,1-.384-.188l-.642-.7-.527-.6a1.1,1.1,0,0,0-.206-.19.919.919,0,0,0-.251-.084,4.107,4.107,0,0,0-.676-.068c-.2,0-.334,0-.4,0q-.157-.007-.071.136l.112.191.108.172.129.2.054.086.054.086.183.286.173.286a1.327,1.327,0,0,1,.143.258c.043.1.015.157-.087.165l-.732.087a1.78,1.78,0,0,1-.286.023l-.143.012-.146.021a.207.207,0,0,1-.082-.009.287.287,0,0,1-.232-.161l-.1-.181-.106-.181-.573-1.061-.037-.076-.044-.086q-.073-.124-.118-.21l-.192-.364-.506-.956c-.017-.032-.052-.092-.105-.181l-.108-.172q-.415-.716-.725-1.357l-.459-.918-.037-.076-.035-.086q-.1-.22.113-.232a4.681,4.681,0,0,1,.922-.06.646.646,0,0,0,.129.008h.084l.1.008a2.428,2.428,0,0,1,.314.015l.619.069.713.068a.547.547,0,0,1,.246.064l.031.029.037.038a1.624,1.624,0,0,1,.119.123l.539.628.187.228.2.238.375.457q.2.238.387.447l.347.38.347.38.434.485q.192.209.4.466l.239.286.239.286.283.333.281.343c.094.127.155.207.185.238Zm-4.206-3.111-.017-.009-.29-.343-.3-.343-.209-.219-.208-.218a.379.379,0,0,0-.239-.132l-.129-.008-.138-.008c-.069,0-.091.04-.066.116a.669.669,0,0,0,.063.124l.063.124q.087.182.217.411l.236.411a1.282,1.282,0,0,0,.091.2.227.227,0,0,0,.237.141c.031,0,.048,0,.049-.01l.638-.047q.127-.021.014-.173Z" transform="translate(-196.679 -151.112)" fill="#006837"/>
            <path id="Trazado_876168" data-name="Trazado 876168" d="M303.925,221.245l-.2-.411-.224-.459-.227-.449q-.419-.851-.632-1.358a8.7,8.7,0,0,0-.576-1.089c-.073-.108-.065-.179.024-.212a.989.989,0,0,1,.474-.1q.394-.005.766-.039l.094,0a.348.348,0,0,1,.244.151c0,.006.024.041.059.105q.164.287.662,1.233l.37.707.1.181.089.172a2.8,2.8,0,0,1,.178.344l.131.268q.08.172.119.278l.276.632.3.631q.33.756.533,1.263.084.192-.089.213l-.49.093a2.176,2.176,0,0,1-.568.027l-.328,0a1.387,1.387,0,0,1-.157-.007l-.253,0a.37.37,0,0,1-.225-.113q-.358-.293-.75-.683-.492-.513-1.111-1.044l-.518-.446q-.114-.1-.269-.237l-.122-.114-.108-.095-1.075-.958-.263-.228q-.131-.113-.26-.237-.182-.171-.53-.513l-.3-.285-.309-.3-.391-.389q-.232-.238,0-.241l.436-.025.112,0a.216.216,0,0,0,.09-.02,1.4,1.4,0,0,1,.541,0l.117.017.11.008a.455.455,0,0,1,.3.15l1.006.939.4.37.115.1.105.1.183.171q.054.047.286.285l.143.142.134.142.834.836.241.237q.183.17.26.237l.061.057a.34.34,0,0,0,.1.047Z" transform="translate(-206.674 -150.456)" fill="#006837"/>
            <path id="Trazado_876169" data-name="Trazado 876169" d="M327.244,214.655l-.084-.114q-.185-.277-.237-.334l-.213-.276-.223-.276-.091-.124a.386.386,0,0,0-.227-.141.445.445,0,0,0-.12-.008l-.216,0-.213-.007-.432.006a2.792,2.792,0,0,0-.572.046,1.162,1.162,0,0,1-.4.024.353.353,0,0,1-.265-.141,2.649,2.649,0,0,1-.152-.22q-.021-.029-.227-.334-.063-.086.021-.125l.213-.032.225-.041.241-.032a2.676,2.676,0,0,1,.495-.035h.084l.045.009h.047a.814.814,0,0,0,.239-.022l.1-.03.117-.021c.067-.02.068-.075,0-.164-.018-.025-.076-.1-.173-.209l-.6-.743a.473.473,0,0,0-.335-.2q-.375-.033-.764-.047-.1-.008-.42,0l-.526.007a.183.183,0,0,1-.084,0,.3.3,0,0,1-.213-.123,1.941,1.941,0,0,1-.138-.161l-.112-.153q-.15-.191-.274-.372c-.084-.115-.084-.182,0-.2l.223-.032.22-.022.425-.015q.286-.023.4-.044a.706.706,0,0,0,.143-.012q.1-.03.019-.154l-.042-.057-.4-.5-.075-.114-.12-.163c.208-.487.992-.647,1.348-1.04a2.1,2.1,0,0,0,.512-1.146,1.946,1.946,0,0,0-.036-.669.306.306,0,0,0-.13-.379,2.328,2.328,0,0,0-.891-1,.4.4,0,0,0-.576.235c-.045.237-.648.5-.827.68a2.642,2.642,0,0,0-.608,1,2.568,2.568,0,0,0,.134,1.942c-.1-.007-.218-.017-.359-.031a3.632,3.632,0,0,0-.429,0l-.131,0a1.127,1.127,0,0,0-.153.011l-.267.023-.167-.008-.16,0a2.963,2.963,0,0,0-.312.014l-.141,0q-.2.012-.057.232l.162.258.222.353q.138.2.246.372.092.124.368.524l.346.534.745,1.126q.264.41.548.82.257.4.663.963l.6.81a3.138,3.138,0,0,0,.22.363.332.332,0,0,0,.3.169l.124-.011a.224.224,0,0,1,.131,0,1.3,1.3,0,0,0,.488-.045,3.034,3.034,0,0,1,1.069-.091,4.541,4.541,0,0,0,.617-.037l.288-.033.171-.012.169,0a2.275,2.275,0,0,0,.434-.054c.066-.014.072-.065.019-.154" transform="translate(-221.226 -141.817)" fill="#006837"/>
            <path id="Trazado_876170" data-name="Trazado 876170" d="M296.647,259.07q.429.582.565.753l.253.343q.119.162.279.352a7.829,7.829,0,0,1,.555.715q.028.038.22.324.1.153-.042.174l-.241.032L298,261.8a1.41,1.41,0,0,1-.429,0l-.237-.026-.237-.026a.379.379,0,0,1-.284-.179q-.374-.534-.424-.6t-.2-.286l-.761-1.058-.077-.105-.051-.1a1.2,1.2,0,0,0-.068-.105l-.056-.076-.227-.3-.237-.3a2.787,2.787,0,0,1-.159-.229l-.3-.4q-.049-.067-.5-.657a.35.35,0,0,0-.066-.076.273.273,0,0,0-.183-.094h-.075l-.068.011a.6.6,0,0,0-.136.021,3.259,3.259,0,0,1-.605.1h-.028l-.031.01a.331.331,0,0,1-.243-.112,1.677,1.677,0,0,1-.3-.314q-.07-.1-.539-.7-.146-.171-.3-.324l-.007-.01a.1.1,0,0,1-.03-.029q-.209-.218.021-.241l.265-.013.265-.013.244,0,.242.006q.2,0,.464-.025l.277-.023q.183-.022.359-.053.1-.011.462-.016l.181-.012.2,0,.528.022a2.034,2.034,0,0,0,.282,0,.4.4,0,0,1,.321.179l.389.515.435.591.047.076q.1.163-.033.173a.481.481,0,0,1-.216.041l-.511.026h-.084a.234.234,0,0,0-.094,0c-.06.014-.063.055-.012.125l.112.153q.359.448.745.895a.427.427,0,0,1,.073.086Z" transform="translate(-201.684 -177.019)" fill="#006837"/>
            <path id="Trazado_876171" data-name="Trazado 876171" d="M309.971,255.04c-.078-.115-.069-.175.026-.183l.788-.01.233.007.14,0a.378.378,0,0,1,.269.121l.045.048.021.029c.025.025.04.041.045.048l.3.352.3.362.282.343.271.343.239.324.229.324.15.229.159.229q1.33,1.83,1.478,2.03l.333.438.342.438.126.172q.077.143-.07.135a.842.842,0,0,0-.253,0l-.111.03-.11.03-.207.08a1.672,1.672,0,0,1-.45.044.348.348,0,0,1-.249-.131,2.309,2.309,0,0,1-.237-.257l-.344-.428-.33-.41-.117-.172-.107-.172-.14-.229-.15-.229a1,1,0,0,0-.147-.2l-.15-.191a.278.278,0,0,0-.23-.132l-.058.01-.058.01a1.671,1.671,0,0,1-.491.016.1.1,0,0,0-.084,0l-.637.009c-.038,0-.057,0-.059.01-.094,0-.106.053-.037.154a2.78,2.78,0,0,0,.159.229q.075.115.183.286l.208.3.042.057q.118.172.546.753.042.057.318.458.1.143-.044.145l-.178,0a1.107,1.107,0,0,1-.192-.017l-.814-.076-.1-.018a.565.565,0,0,1-.336-.2l-.161-.219-.164-.209q-.429-.581-.564-.753-.373-.505-.642-.935l-.347-.5q-.286-.438-.7-1.02l-.163-.248q-.04-.066-.1-.143l-.78-1.058-.052-.057a.534.534,0,0,1-.094-.114,2.235,2.235,0,0,1-.314-.554q-.077-.182.12-.185l.176.007.176.007.483.013c.019,0,.108.005.267.016a.507.507,0,0,1,.26.16l.56.657.03.028.028.038.333.438.324.438.372.544a.345.345,0,0,0,.277.169q.4-.006.532,0l.3.025.309.034c.122.011.2.017.23.016q.113,0,.033-.135l-.092-.124q-.712-.991-.782-1.087a3.488,3.488,0,0,0-.274-.372Z" transform="translate(-212.46 -176.42)" fill="#006837"/>
            <path id="Trazado_876172" data-name="Trazado 876172" d="M329.687,255.972l.042.057c.055.083.048.134-.019.154a.693.693,0,0,1-.143.012q-.117.021-.4.044l-.424.015-.22.022-.223.032q-.129.031,0,.2t.274.372l.112.152a1.8,1.8,0,0,0,.138.162.3.3,0,0,0,.213.122.186.186,0,0,0,.084,0l.525-.007c.212,0,.353,0,.42,0q.39.014.765.048a.473.473,0,0,1,.336.2l.6.743q.146.171.173.209.1.134,0,.164l-.117.021-.1.03a.813.813,0,0,1-.239.023h-.047l-.045-.009H331.3a2.7,2.7,0,0,0-.495.035l-.242.032-.225.041-.213.032c-.056.027-.064.068-.021.125q.206.306.227.334.026.048.152.219a.355.355,0,0,0,.265.141,1.159,1.159,0,0,0,.4-.025,2.78,2.78,0,0,1,.572-.046l.431-.005.213.007.216,0a.442.442,0,0,1,.119.008.39.39,0,0,1,.228.142l.092.124.222.276.213.276q.052.057.236.334l.084.115c.053.089.047.14-.019.154a2.245,2.245,0,0,1-.434.054l-.168,0-.171.012-.289.033a4.545,4.545,0,0,1-.617.037,3.026,3.026,0,0,0-1.069.091,1.3,1.3,0,0,1-.488.045.226.226,0,0,0-.131,0l-.124.011a.333.333,0,0,1-.3-.169,3.134,3.134,0,0,1-.22-.363l-.6-.81q-.405-.562-.663-.963-.284-.41-.548-.82l-.745-1.126-.347-.534q-.276-.4-.368-.524-.108-.172-.246-.372l-.223-.353-.161-.258q-.143-.219.056-.232l.141,0a3.055,3.055,0,0,1,.312-.014l.159,0,.166.008.267-.023a1.069,1.069,0,0,1,.152-.012l.131,0a3.67,3.67,0,0,1,.429,0,4.813,4.813,0,0,0,.673.039,1.688,1.688,0,0,1,.288.006.381.381,0,0,1,.284.141,1.862,1.862,0,0,1,.124.143l.183.248.075.115Z" transform="translate(-225.754 -176.543)" fill="#006837"/>
            <path id="Trazado_876173" data-name="Trazado 876173" d="M322.553,293.359a6.006,6.006,0,0,1,1.208.263,1.548,1.548,0,0,1,.279.122l.138.085.131.075a4.229,4.229,0,0,1,.886.7,5.845,5.845,0,0,1,.461.485,1.811,1.811,0,0,1,.131.152l.11.162q.028.038.234.343a2.876,2.876,0,0,1,.4.774,1.067,1.067,0,0,1-.116,1.127,1.033,1.033,0,0,1-.273.273,2.279,2.279,0,0,1-.6.258l-.118.021-.188,0-.181.012c-.081,0-.1.046-.042.135l.2.277.232.276.115.143.117.133.253.343q.119.162-.049.164c-.025,0-.167,0-.426-.013l-.139-.008-.122,0c-.1-.005-.193-.014-.284-.025l-.235-.035-.227-.026a.39.39,0,0,1-.291-.189l-.286-.4-1.152-1.563q-.133-.181-.269-.352t-.269-.353l-.183-.248q-.1-.133-.965-1.335-.361-.514-.389-.553c-.076-.121-.168-.258-.274-.41l-.293-.41c0-.006,0-.016-.011-.029-.063-.1-.091-.166-.084-.192s.049-.048.129-.069a.509.509,0,0,1,.082-.03l.05-.01.033-.02a1.569,1.569,0,0,1,.8-.116l.793.009a6.236,6.236,0,0,1,.671.049m.5,2.322.377.486.431.533c.078.089.15.126.216.113l.087-.011h.085a.65.65,0,0,0,.551-.229l.1-.146a.376.376,0,0,0,.026-.337,1.85,1.85,0,0,0-.363-.621,1.431,1.431,0,0,0-.18-.181,3.561,3.561,0,0,0-.9-.546,1.163,1.163,0,0,0-.4-.1l-.293-.025a.86.86,0,0,0-.434.015c-.07.007-.075.053-.014.135.094.127.158.21.192.248l.265.333.274.333Z" transform="translate(-221.738 -203.244)" fill="#006837"/>
            <path id="Trazado_876174" data-name="Trazado 876174" d="M342.906,298.67c-.038,0-.227.009-.568.027l-.063-.009h-.056a2.8,2.8,0,0,0-.659-.02.588.588,0,0,1-.216,0l-.232-.007-.206,0a.246.246,0,0,1-.1.011.364.364,0,0,1-.232-.122l-.1-.114-.323-.438-.347-.419q-.455-.591-.5-.657-.454-.591-.489-.639-.063-.086-.649-.905l-.2-.267c-.058-.1-.121-.194-.19-.3l-.113-.153-.11-.162-.255-.372q-.358-.486-.454-.629-.222-.315-.41-.62c-.01-.013-.013-.022-.011-.029l-.021-.029q-.1-.2.057-.232a.494.494,0,0,1,.181-.05l.03-.01.05-.01.1-.02.087-.011.089-.02.206,0,.516.032a.385.385,0,0,1,.309.188l.366.573.365.572q.08.134.164.248l.082.124.1.134.47.677a2.472,2.472,0,0,1,.146.21l.407.591.131.191.124.181a2.073,2.073,0,0,0,.148.2c.033.045.078.1.136.171a.453.453,0,0,1,.1.134l.112.153a.546.546,0,0,0,.08.1.273.273,0,0,0,.155.094.174.174,0,0,0,.073.008l.12.008.119.008q.148.008.274.025l.253.035.263.035.265.025.265.025a.4.4,0,0,1,.291.15l.117.133.141.152q.162.181.314.362a2.029,2.029,0,0,1,.146.171l.133.181c.094.127.091.2-.007.221a2.033,2.033,0,0,1-.417.064,2.216,2.216,0,0,1-.267.023Z" transform="translate(-233.084 -202.669)" fill="#006837"/>
            <path id="Trazado_876175" data-name="Trazado 876175" d="M360.462,298.372q.084.115-.01.154a.264.264,0,0,1-.108.021l-.124.011-.267.023-.166-.007-.159,0a2.573,2.573,0,0,0-.293.013.425.425,0,0,1-.384-.187l-.642-.7-.527-.6a1.127,1.127,0,0,0-.206-.19.925.925,0,0,0-.251-.083,4.119,4.119,0,0,0-.676-.068q-.3,0-.4,0-.157-.007-.071.136l.112.191.108.172.129.2.054.086.054.086.183.286.173.286a1.352,1.352,0,0,1,.143.258c.043.1.014.157-.087.165l-.732.087a1.816,1.816,0,0,1-.286.023l-.143.011-.146.021a.2.2,0,0,1-.082-.009.288.288,0,0,1-.232-.16l-.1-.182-.105-.181-.573-1.061-.038-.076-.044-.086c-.048-.083-.088-.153-.117-.21l-.192-.363-.506-.956c-.017-.032-.052-.092-.1-.181l-.108-.172q-.415-.716-.726-1.357l-.459-.918-.037-.076-.035-.086c-.07-.146-.033-.224.113-.232a4.652,4.652,0,0,1,.922-.06.653.653,0,0,0,.129.008h.084l.1.008a2.434,2.434,0,0,1,.315.015l.619.069.713.068a.548.548,0,0,1,.246.064l.03.029.037.038a1.7,1.7,0,0,1,.119.124l.539.628.187.228q.145.171.2.238l.375.457q.2.238.387.447l.347.38.347.38.433.485q.192.209.4.466l.239.286.239.286.283.333.281.343c.094.127.155.206.185.238Zm-4.206-3.11-.017-.009-.29-.343-.3-.342-.208-.219-.209-.219a.378.378,0,0,0-.239-.132l-.129-.008-.138-.008c-.069,0-.091.04-.066.116a.681.681,0,0,0,.063.124l.064.124q.086.182.217.411l.236.411a1.27,1.27,0,0,0,.092.2.226.226,0,0,0,.236.141c.031,0,.048,0,.049-.01l.638-.047q.127-.021.014-.173Z" transform="translate(-244.092 -202.612)" fill="#006837"/>
            <path id="Trazado_876176" data-name="Trazado 876176" d="M371.721,295.432a2.122,2.122,0,0,0,.124.181l.084.115.1.143q.194.276.3.439l.223.353.349.525q.117.172.532.734.253.343.321.448.155.21-.047.232l-.15,0-.666.047-.15,0-.143.011a.318.318,0,0,1-.263-.151,2.655,2.655,0,0,1-.239-.324l-.154-.248-.161-.258-.185-.276-.075-.115-.068-.1-.084-.115a1.657,1.657,0,0,1-.1-.143l-.19-.257-.356-.534q-.3-.438-.34-.486-.122-.191-.288-.429l-.154-.21-.152-.219-.106-.143-.346-.5-.253-.343q-.1-.162-.309-.458-.194-.276-.3-.448t-.208-.372c-.046-.089-.02-.135.08-.136l.152-.012.16,0,.171-.012.162-.012.164-.021a.415.415,0,0,1,.178,0l.119.008h.1a.524.524,0,0,1,.338.15l.122.114.071.057.053.047.314.246c.1.082.21.161.316.236q.422.3.785.615a5.885,5.885,0,0,0,.473.36q.461.292,1.343.935l.1.066.112.076c.016.013.084.053.2.123a.121.121,0,0,0-.016-.087l-.026-.048-.021-.029-.019-.038-.576-.781-.166-.239q-.162-.219-.326-.467l-.2-.276-.206-.267-.084-.114a1.627,1.627,0,0,1-.1-.143l-.183-.248-.04-.067-.042-.057q-.119-.162.014-.173.087-.011.415-.015l.122,0,.082.008h.065l.221.016.213.007a.594.594,0,0,1,.335.159,1.5,1.5,0,0,1,.2.19l.154.21q.267.362.353.467l.523.657q.124.143.281.343l.27.352.306.39a3.889,3.889,0,0,1,.288.391,4.5,4.5,0,0,0,.412.534l.063.086.22.324.178.267.194.277.176.238.166.238.063.086.061.1.108.172.058.105.061.1.1.191q.082.124-.007.183a1.992,1.992,0,0,1-.549.181l-.2,0-.4-.014-.211-.016a.568.568,0,0,1-.293-.14l-.349-.294-.677-.52-.11-.085-.092-.085-.093-.076-.111-.085-.37-.322-.188-.151-.173-.133-.874-.633q-.164-.133-.5-.369l-.248-.17-.253-.189a.55.55,0,0,0-.183-.094.217.217,0,0,0,.037.115Z" transform="translate(-255.169 -202.56)" fill="#006837"/>
            <path id="Trazado_876177" data-name="Trazado 876177" d="M391.88,292.761l.042.057c.055.083.048.134-.019.154a.709.709,0,0,1-.143.012q-.117.021-.4.044l-.425.015-.22.022-.223.032q-.129.031,0,.2t.274.372l.112.152a1.791,1.791,0,0,0,.138.162.3.3,0,0,0,.213.122.181.181,0,0,0,.084,0l.525-.007c.213,0,.353,0,.42,0q.389.014.764.047a.474.474,0,0,1,.336.2l.6.743q.145.171.173.209.1.134,0,.164l-.117.021-.1.03a.81.81,0,0,1-.239.022h-.047l-.045-.009H393.5a2.7,2.7,0,0,0-.495.036l-.242.032-.225.042-.213.032q-.085.04-.021.125.206.305.227.334.026.047.152.219a.353.353,0,0,0,.265.141,1.164,1.164,0,0,0,.4-.024,2.776,2.776,0,0,1,.573-.046l.431-.005.213.007.216,0a.462.462,0,0,1,.12.008.391.391,0,0,1,.228.142l.091.124.222.276.213.276q.051.057.236.334l.084.115q.08.134-.019.154a2.238,2.238,0,0,1-.434.054l-.168,0-.171.012-.289.033a4.483,4.483,0,0,1-.617.037,3.04,3.04,0,0,0-1.07.091,1.3,1.3,0,0,1-.488.045.224.224,0,0,0-.131,0l-.124.011a.333.333,0,0,1-.3-.169,3.084,3.084,0,0,1-.22-.363l-.6-.81q-.4-.562-.662-.964-.284-.409-.548-.82l-.745-1.126-.347-.534q-.276-.4-.367-.524-.108-.172-.246-.372l-.223-.353-.161-.258q-.143-.22.056-.232l.141,0a2.951,2.951,0,0,1,.312-.014l.159,0,.166.007.267-.023a1.172,1.172,0,0,1,.153-.012l.131,0a3.748,3.748,0,0,1,.429,0,4.834,4.834,0,0,0,.673.039,1.625,1.625,0,0,1,.288.006.38.38,0,0,1,.283.14,1.721,1.721,0,0,1,.124.143l.183.247.075.115Z" transform="translate(-268.85 -202.035)" fill="#006837"/>
            <path id="Trazado_876178" data-name="Trazado 876178" d="M407.018,295.218q.429.582.564.753l.253.343c.08.108.172.226.279.353a7.821,7.821,0,0,1,.555.715q.028.038.22.324.1.153-.043.174l-.241.032-.235.041a1.391,1.391,0,0,1-.429,0l-.237-.026-.237-.026a.379.379,0,0,1-.283-.179q-.375-.534-.424-.6c-.027-.045-.094-.14-.2-.286l-.761-1.058-.077-.1-.051-.1a1.144,1.144,0,0,0-.068-.1l-.056-.076-.227-.3-.237-.3a2.772,2.772,0,0,1-.159-.229l-.295-.4q-.049-.067-.5-.657a.344.344,0,0,0-.066-.076.273.273,0,0,0-.183-.094H403.8l-.068.011a.591.591,0,0,0-.136.021,3.256,3.256,0,0,1-.6.1h-.028l-.03.01a.33.33,0,0,1-.244-.112,1.664,1.664,0,0,1-.3-.313q-.07-.1-.539-.705-.146-.171-.3-.323l-.007-.009a.11.11,0,0,1-.031-.029q-.208-.219.022-.241l.265-.013.265-.013.244,0,.242.006q.2,0,.465-.025l.276-.023q.183-.022.359-.053.1-.011.462-.016l.181-.012.2,0,.527.022a2.028,2.028,0,0,0,.282,0,.4.4,0,0,1,.321.179l.389.515.436.591.047.076c.067.108.056.166-.033.174a.486.486,0,0,1-.216.041l-.511.026h-.084a.223.223,0,0,0-.094,0c-.06.014-.063.056-.012.125l.113.153q.359.448.745.895a.431.431,0,0,1,.073.086Z" transform="translate(-278.165 -202.068)" fill="#006837"/>
            <path id="Trazado_876179" data-name="Trazado 876179" d="M268.064,262.833c-3.375,2.455-7.939,5.613-5.634,10.356.22.454.9.057.677-.4-2.057-4.232,2.411-7.142,5.353-9.283.4-.294.013-.975-.4-.677" transform="translate(-181.418 -182.08)" fill="#00b671"/>
            <path id="Trazado_876180" data-name="Trazado 876180" d="M397.231,266.252a.4.4,0,0,0-.5.378,4.274,4.274,0,0,1-1.367,3.059,4.534,4.534,0,0,0-1.277,1.712c-.254.754-.331,1.882.583,2.069a.92.92,0,0,0,.343.162.4.4,0,0,0,.157.006c.974.456,2.677-1.442,3.049-2.164.7-1.347.867-4.635-.993-5.223" transform="translate(-272.969 -184.488)" fill="#006837"/>
            <path id="Trazado_876181" data-name="Trazado 876181" d="M285.475,200.488a1.063,1.063,0,0,0-1.75-.778,1.847,1.847,0,0,0-.438.645.332.332,0,0,0-.191.183,1.178,1.178,0,0,0,.964,1.731c.9.039,1.489-.97,1.415-1.781" transform="translate(-196.086 -138.201)" fill="#00b671"/>
            <path id="Trazado_876182" data-name="Trazado 876182" d="M260.9,191.54a2.868,2.868,0,0,0-3.62.7c-1.067.323-2.093,1.961-1.085,2.825,1.3,1.115,4.068.916,5.4-.022,1.467-1.031.641-2.8-.7-3.507m-4.231,2.356a1.757,1.757,0,0,0,.147.574l.005.021a.656.656,0,0,1-.125-.2.729.729,0,0,1-.027-.4" transform="translate(-177.243 -132.48)" fill="#006837"/>
            <path id="Trazado_876183" data-name="Trazado 876183" d="M382.919,320.137c-.218-1.035-.783-2.462-1.864-2.856a2.5,2.5,0,0,0-.911-.138,4.218,4.218,0,0,0-2.793.864.336.336,0,0,0-.266.12c-.057.063-.117.126-.179.189-.314.228-.616.465-.906.688-1.229.943-3.292,2.44-3.794,4.106a3.471,3.471,0,0,0-.282,1.045c-.32,3.174,5.642,1.913,7.279,1.6,1.368-.261,2.547-.6,3.249-1.894a5.507,5.507,0,0,0,.467-3.725" transform="translate(-257.717 -219.752)" fill="#00b671"/>
            <path id="Trazado_876184" data-name="Trazado 876184" d="M358.771,334.732c-.373-.855-1.815-.765-2.53-.551h0a.383.383,0,0,0-.183.057c-.67.405-1.19,1.084-.656,1.841a2.445,2.445,0,0,0,2.449.659,1.666,1.666,0,0,0,.923-2.007" transform="translate(-246.122 -231.471)" fill="#006837"/>
            <path id="Trazado_876185" data-name="Trazado 876185" d="M258.305,197.307c-1.951-.915-3.915.536-5.949.179a3.853,3.853,0,0,1-3.064-2.453,2.682,2.682,0,0,1,1.876-3.507.393.393,0,0,0-.209-.756,3.552,3.552,0,0,0-1.84,5.613,4.838,4.838,0,0,0,3.464,1.92c1.709.191,3.752-1.056,5.325-.318.454.213.853-.463.4-.677" transform="translate(-172.124 -132.185)" fill="#00b671"/>
            <path id="Trazado_876186" data-name="Trazado 876186" d="M410.892,271.924c-.387-1.389-.654-3.121-1.846-4.085a4.13,4.13,0,0,0-1.879-.756c-.465-.088-1.272.014-1.4-.624-.053-.262.407-.982.5-1.223a4.822,4.822,0,0,0-3.263-6.556.392.392,0,0,0-.208.756,4.029,4.029,0,0,1,3.091,3.688,6.338,6.338,0,0,1-.693,2.62c-.149.377-.449.973-.253,1.389.363.769,1.717.6,2.423.791,2,.538,2.287,2.472,2.77,4.207a.392.392,0,0,0,.756-.208" transform="translate(-278.927 -179.243)" fill="#00b671"/>
            <path id="Trazado_876187" data-name="Trazado 876187" d="M353.866,338.66A3.362,3.362,0,0,1,351,338.6a2.561,2.561,0,0,1-1.212-2.28.392.392,0,0,0-.784,0,3.365,3.365,0,0,0,1.375,2.807,3.992,3.992,0,0,0,3.7.288c.479-.153.274-.91-.208-.756" transform="translate(-241.84 -232.792)" fill="#00b671"/>
            <path id="Trazado_876188" data-name="Trazado 876188" d="M347.843,243.422c-.415-.241-.875-.253-1.218-.621-.247-.266-.382-.478-.764-.553a2.133,2.133,0,0,0-1.778.628l-2.915-4.538c2.294-.674,2.706-3.364,1.372-5.139a.4.4,0,0,0-.677,0c-.285.492-.334.937-.792,1.333a3.482,3.482,0,0,0-.914.97,2.193,2.193,0,0,0-.247.876,3.7,3.7,0,0,0-1.4-1.583c-.8-.375-2.537.048-3.15-.747a25.993,25.993,0,0,0,3.229-.765c.769-.239,1.981-.454,2.441-1.214.857-1.416-.8-3.245-1.666-4.218-.336-.378-.889.178-.555.555a8.907,8.907,0,0,1,1.255,1.642,1.7,1.7,0,0,1-.34,2.02,3.394,3.394,0,0,1-1.119.387,26.542,26.542,0,0,1-3.914.918.4.4,0,0,0-.274.482,1.654,1.654,0,0,0,1.013,1.21,3.262,3.262,0,0,0,1.089.251c1.111.1,1.637,0,2.456,1.064,1.63,2.12,2.961,4.566,4.4,6.836-.814.422-1.985,1.071-2.763.859a.392.392,0,0,0-.208.756c1.108.3,2.451-.485,3.483-1,.848,1.522,2.858,1.4,4.036.206a.4.4,0,0,0-.08-.616" transform="translate(-231.732 -157.802)" fill="#006837"/>
            <path id="Trazado_876189" data-name="Trazado 876189" d="M293.955,282.986a50.729,50.729,0,0,0-3.255-4.776,5.492,5.492,0,0,1-1.344-2.03c-.2-1.055.591-2.028.674-3.07.078-.985-.5-.98-1.315-1.042a4.369,4.369,0,0,1-3.92-3.544c0-.01-.006-.017-.009-.026a.432.432,0,0,0-.046-.641l-.376-.282a2.5,2.5,0,0,0-.379-.588,6.754,6.754,0,0,0-1.072-1.2c-.542-.4-1.916-.408-2.219.33s.445,1.692.959,2.122a3.094,3.094,0,0,0,2.429.671,5.093,5.093,0,0,0,2.061,3.048,5.024,5.024,0,0,0,1.926.816c1.136.214,1.27-.038.889,1.271a14.863,14.863,0,0,0-.513,1.662,2.68,2.68,0,0,0-2.633-.8c-.583.151-1.088.318-1.615.415a3.49,3.49,0,0,0-4.853-1.176.494.494,0,0,0-.111.105.374.374,0,0,0-.037.676,10.146,10.146,0,0,0,4.254,1.28,4.505,4.505,0,0,0,.477-.018,2.693,2.693,0,0,0,1.176,3.3.4.4,0,0,0,.59-.339c-.034-1.025.125-2.29-.586-3.121.033-.022.063-.046.1-.066a.41.41,0,0,0,.079-.059l.165-.049a2.431,2.431,0,0,1,2.953.947.33.33,0,0,0,.267.13,11.142,11.142,0,0,0,.816,1,49.2,49.2,0,0,1,3.791,5.453.392.392,0,0,0,.677-.4" transform="translate(-193.331 -183.99)" fill="#006837"/>
            <path id="Trazado_876190" data-name="Trazado 876190" d="M59.642,850.542c.073,2.66,64.275,2.775,130.546,2.775s128.888-.784,130.546-2.544c3.486-3.7-44.508-2.081-139.586-2.775-113.854-.831-121.566.335-121.505,2.544" transform="translate(-41.329 -587.436)" fill="#766782"/>
            <path id="Trazado_876191" data-name="Trazado 876191" d="M159.51,273.948s3.28-1.093,1.822-3.28c0,0,5.831.364,4.008-4.373s-5.831-1.822-5.831-1.822.364-2.186-1.458-2.186-1.822,2.186-1.822,2.186a2.78,2.78,0,0,0-3.28-1.458s6.2-4.009,1.458-6.56-4.738,3.644-4.738,3.644-2.915-3.28-5.1.364,2.915,5.831,2.915,5.831-2.186,1.093-1.458,2.187c0,0-2.915-2.187-4.008.364s2.551,5.1,2.551,5.1Z" transform="translate(-98.269 -177.285)" fill="#00b671"/>
            <path id="Trazado_876192" data-name="Trazado 876192" d="M160.176,314.046s0,16.033-.391,16.424-20.725.391-21.116,0-.782-16.424,0-17.206,21.507-.782,21.507.782" transform="translate(-95.778 -216.721)" fill="#e5eaec"/>
            <path id="Trazado_876193" data-name="Trazado 876193" d="M146.88,312.751v18.005a67.957,67.957,0,0,1-8.212-.286c-.391-.391-.782-16.424,0-17.206.32-.321,3.991-.509,8.212-.513" transform="translate(-95.778 -216.722)" fill="#c7d3dd"/>
            <path id="Trazado_876194" data-name="Trazado 876194" d="M410.083,426.505s10.568-6.284,51.413-12.853c42.195-6.787-5.713,24.278-5.713,24.278Z" transform="translate(-284.168 -285.969)" fill="#464c7b"/>
            <path id="Trazado_876195" data-name="Trazado 876195" d="M644.5,488.9l.571,32.847h10.282l-.286-34.275Z" transform="translate(-446.61 -337.793)" fill="#333"/>
            <path id="Trazado_876196" data-name="Trazado 876196" d="M619.985,393.009s.571,4.285,0,4.856-33.133,3.428-33.418,4.285.857,23.421.571,23.707-12,.857-12.853.286-.857-23.136-1.428-23.707-26.563-4.285-27.42-4.57-.571-7.141-.571-7.141Z" transform="translate(-377.534 -270.753)" fill="#86a1b2"/>
            <path id="Trazado_876197" data-name="Trazado 876197" d="M554.441,567.183s13.424-.286,13.71,0,.571,73.692.571,73.692,7.141,9.14,7.712,9.426,30.848,2.285,31.7,3.428a3.507,3.507,0,0,1,.286,2.856s-90.83.286-91.4-.571a2.584,2.584,0,0,1,0-2.857c.571-.571,27.706-2.285,28.277-2.57s9.711-8.854,9.711-9.426-1.428-73.406-.571-73.977" transform="translate(-357.977 -392.943)" fill="#809ead"/>
            <path id="Trazado_876198" data-name="Trazado 876198" d="M574.451,716.036a25.765,25.765,0,0,1,.38-5.091c.637-1.271,17.731-27.63,17.731-27.63L583.5,672.586s-13.315,29.842-13.71,31.419c-.328,1.308-1.526,11.2-1.186,12.479l-.011.01c-.377.455,0,4.1,0,4.551a1.706,1.706,0,0,0,.377.91s-.755,3.186-.377,3.186h.755a5.572,5.572,0,0,0,5.283,4.551c5.642.181,5.642-4.157,5.642-4.157s1.975.637,1.975-1.183c0-1.741,1.436-8.081-7.8-8.316" transform="translate(-393.895 -466.07)" fill="#333"/>
            <path id="Trazado_876199" data-name="Trazado 876199" d="M427,534.448s11.714,42.754,15.813,49.49l22.4-9.592s.736-4.172-.728-6.221a25.57,25.57,0,0,0-2.343-2.928S451.3,527.42,451.012,525.077s-18.156-3.221-18.156-3.221Z" transform="translate(-295.89 -361.621)" fill="#464c7b"/>
            <path id="Trazado_876200" data-name="Trazado 876200" d="M488.716,704.587s-11.205,5.389-10.327,5.974c1.034.689,13.471-4.685,13.471-4.685Z" transform="translate(-331.467 -488.245)" fill="#1a1a1a"/>
            <path id="Trazado_876201" data-name="Trazado 876201" d="M504.251,698.505s5.271,12.592,6.442,18.449,9.371-11.421,9.371-11.421l-2.635-11.421s-2.636-1.464-13.178,4.393" transform="translate(-349.422 -480.875)" fill="#e08257"/>
            <path id="Trazado_876202" data-name="Trazado 876202" d="M521.822,742.029s-2.9.343-4.654-3.171.878-11.128,0-17.277-3.221-10.25-2.635-12.006,6.15-4.978,5.564-10.542-1.757-7.907,2.343-8.492,12.266,3.591,14.332,7.36-4.669,32.174-4.669,32.174Z" transform="translate(-356.482 -478.473)" fill="#dd9f3c"/>
            <path id="Trazado_876203" data-name="Trazado 876203" d="M543.171,706.462a11.857,11.857,0,0,0-3.534-3.579,5.223,5.223,0,0,0-4.5,1.637c-4.1,4.1-2.635,12.3-2.928,19.327s-3.221,11.714-6.442,17.57c-1.9,3.453-2.169,4.906-2.071,6.24,1.766,3.26,4.53,2.934,4.53,2.934l10.28-11.956s6.735-28.405,4.669-32.174" transform="translate(-362.882 -487.035)" fill="#e6e6e6"/>
            <path id="Trazado_876204" data-name="Trazado 876204" d="M548.849,711.511s-5.271-2.343-6.15,6.735.878,13.177-1.464,18.449-10.835,16.985-7.614,19.327,12.3-4.686,14.349-12.007.585-9.371,1.757-17.277,1.464-13.471-.878-15.228" transform="translate(-369.275 -492.855)" fill="#333"/>
            <path id="Trazado_876205" data-name="Trazado 876205" d="M368.69,708.98s.586,9.664.293,12.592-2.928,9.371-2.928,9.371l13.178,2.343,7.907-9.957s-3.807-10.835-3.807-16.106-14.642,1.757-14.642,1.757" transform="translate(-253.659 -488.713)" fill="#eb9367"/>
            <path id="Trazado_876206" data-name="Trazado 876206" d="M314.3,761.2c.289-.048,3.807-4.978,5.564-10.542s3.514-4.978,6.15-2.928,7.028,5.271,11.421,2.05,2.343-9.078,3.514-10.249,6.442,7.028,8.492,12.006,1.171,6.15.878,6.735-4.978,3.807-13.47,7.614-11.421,8.2-19.62,9.663-13.47-1.757-14.056-2.928.293-3.807,1.757-5.271,5.271-2.635,5.564-3.221,2.05-2.635,3.807-2.928" transform="translate(-209.956 -512.379)" fill="#efb44b"/>
            <path id="Trazado_876207" data-name="Trazado 876207" d="M334.507,787.963c-5.857,2.635-9.078,8.785-19.034,10.249-7.593,1.117-10.925-.32-12.081-1.066a3.869,3.869,0,0,0-.218,2.823c.586,1.171,5.857,4.392,14.056,2.928s11.128-5.857,19.62-9.664,13.178-7.028,13.47-7.614,1.171-1.757-.878-6.735c-.586,2.635-9.078,6.442-14.935,9.078" transform="translate(-209.958 -539.73)" fill="#fff"/>
            <path id="Trazado_876208" data-name="Trazado 876208" d="M371.729,523.976a60.465,60.465,0,0,1-16.106,1.464c-7.614-.586-9.664-1.757-10.249-2.636s-1.677-68.614,1.1-75.261c3.945-9.456,49.324-15.974,64.552-16.852s-32.7,38.378-32.7,38.378l-6.442,1.464s.586,21.084-.878,25.477l-1.464,4.393a8.575,8.575,0,0,1,1.171,6.443c-.878,3.514-.732,4.539-.732,4.539s3.368,2.489,1.757,12.592" transform="translate(-238.835 -298.438)" fill="#5f7ab3"/>
            <path id="Trazado_876209" data-name="Trazado 876209" d="M404.166,531.977a51.616,51.616,0,0,1-14.579-5.417c-.705-.4-2.048.055-1.346.458a66.746,66.746,0,0,0,9.493,4.723,18.9,18.9,0,0,0-4.351.99c-.987.263.134,1.063,1.117.871,3.144-.614,6.294.27,9.455-.061.823-.086,1.162-1.362.212-1.564" transform="translate(-268.896 -364.775)" fill="#464c7b"/>
            <g id="Grupo_1101059" data-name="Grupo 1101059" transform="translate(120.557 163.338)" opacity="0.5">
              <g id="Grupo_1101058" data-name="Grupo 1101058">
                <g id="Grupo_1101057" data-name="Grupo 1101057" clip-path="url(#clip-path-3)">
                  <path id="Trazado_876210" data-name="Trazado 876210" d="M394.938,542.723a8.4,8.4,0,0,0-.056-2.918c-.334-.874-1.265-1.39-1.574-2.3-.353-1.047.572-1.743.909-2.645a4.2,4.2,0,0,0,.062-2.689.292.292,0,0,0-.562.155,3.6,3.6,0,0,1-.344,2.941,3.012,3.012,0,0,0-.735,1.9,3.276,3.276,0,0,0,.75,1.623c.23.3.5.573.731.873a2.879,2.879,0,0,1,.267,1.91q-.158,6.236-.143,12.475.027,12.4.733,24.795c.268,4.686.6,9.367,1.071,14.036.025.251.417.258.4,0-1.2-16.705-1.9-33.395-1.508-50.146" transform="translate(-392.632 -531.962)" fill="#464c7b"/>
                </g>
              </g>
            </g>
            <g id="Grupo_1101062" data-name="Grupo 1101062" transform="translate(120.32 155.851)" opacity="0.5">
              <g id="Grupo_1101061" data-name="Grupo 1101061">
                <g id="Grupo_1101060" data-name="Grupo 1101060" clip-path="url(#clip-path-4)">
                  <path id="Trazado_876211" data-name="Trazado 876211" d="M432.731,507.593a138.43,138.43,0,0,0-18.795.868c-3.062.388-6.083.976-9.091,1.661-3.072.7-6.157,1.356-9.219,2.1-1.255.3-2.89.47-3.765,1.531a.767.767,0,0,1,.118.1l.36.189a2.314,2.314,0,0,1,.3-.278,5.7,5.7,0,0,1,2.026-.724c.691-.177,1.385-.343,2.08-.5,2.84-.656,5.687-1.281,8.53-1.922a98.806,98.806,0,0,1,17.462-2.292c3.328-.146,6.659-.162,9.99-.174a.278.278,0,0,0,0-.556" transform="translate(-391.862 -507.58)" fill="#464c7b"/>
                </g>
              </g>
            </g>
            <path id="Trazado_876212" data-name="Trazado 876212" d="M222.176,488.9l.571,32.847h10.283l-.286-34.275Z" transform="translate(-153.957 -337.793)" fill="#4d4d4d"/>
            <path id="Trazado_876213" data-name="Trazado 876213" d="M197.656,397.008s.571,4.285,0,4.856-33.133,3.428-33.418,4.284.857,19.423.571,19.708-12,.857-12.853.286S151.1,407,150.528,406.434s-26.563-4.285-27.42-4.57-.571-11.14-.571-11.14Z" transform="translate(-84.88 -270.753)" fill="#b0c1d3"/>
            <path id="Trazado_876214" data-name="Trazado 876214" d="M282.165,415.587c.571-.571,0-4.856,0-4.856l-6.685-.2a26.762,26.762,0,0,1-.028,4.916c-.286.571-30.276,3.428-30.848,4.284-.487.73.271,14.875.505,20.23a26.853,26.853,0,0,0,4.207-.379c.286-.286-.857-18.852-.571-19.708s32.847-3.713,33.418-4.285" transform="translate(-169.389 -284.476)" fill="#86a1b2"/>
            <path id="Trazado_876215" data-name="Trazado 876215" d="M132.113,567.183s13.424-.286,13.71,0,.571,73.692.571,73.692,7.141,9.14,7.712,9.426,30.848,2.285,31.7,3.428a3.506,3.506,0,0,1,.286,2.856s-90.83.286-91.4-.571a2.584,2.584,0,0,1,0-2.857c.571-.571,27.706-2.285,28.277-2.57s9.711-8.854,9.711-9.426-1.428-73.406-.571-73.977" transform="translate(-65.323 -392.943)" fill="#b0c1d3"/>
            <path id="Trazado_876216" data-name="Trazado 876216" d="M260.555,650.3c-.571-.286-7.712-9.426-7.712-9.426s-.286-73.406-.571-73.692a30.713,30.713,0,0,0-4.388-.126c.28,10.351,1.413,72.959,1.675,74.531.286,1.714,6.855,8.569,7.712,9.14s28.848,2,29.42,2.571c.359.359.267,2.075.148,3.3l5.707-.014s.571-2.285-.286-3.428-31.133-2.571-31.7-2.856" transform="translate(-171.772 -392.943)" fill="#86a1b2"/>
            <path id="Trazado_876217" data-name="Trazado 876217" d="M231.516,512.02a1.368,1.368,0,0,0-1.259-.324,1.307,1.307,0,0,0-.9.875c0,.01,0,.02-.007.03a1.439,1.439,0,0,0-.093.4,1.5,1.5,0,0,0,.852,1.594,1.355,1.355,0,0,0,1.815-.915,1.648,1.648,0,0,0-.409-1.662" transform="translate(-158.859 -354.551)" fill="#333"/>
            <path id="Trazado_876218" data-name="Trazado 876218" d="M231.516,532.485a1.368,1.368,0,0,0-1.259-.324,1.306,1.306,0,0,0-.9.875c0,.01,0,.02-.007.03a1.44,1.44,0,0,0-.093.4,1.5,1.5,0,0,0,.852,1.594,1.355,1.355,0,0,0,1.815-.915,1.648,1.648,0,0,0-.409-1.662" transform="translate(-158.859 -368.733)" fill="#333"/>
            <path id="Trazado_876219" data-name="Trazado 876219" d="M231.516,552.95a1.368,1.368,0,0,0-1.259-.324,1.306,1.306,0,0,0-.9.875c0,.01,0,.02-.007.03a1.44,1.44,0,0,0-.093.4,1.5,1.5,0,0,0,.852,1.594,1.355,1.355,0,0,0,1.815-.915,1.648,1.648,0,0,0-.409-1.662" transform="translate(-158.859 -382.914)" fill="#333"/>
            <path id="Trazado_876220" data-name="Trazado 876220" d="M222.629,473.4a3.156,3.156,0,0,0-1.691-1.428,4.871,4.871,0,0,0-1.779-.128,2.928,2.928,0,0,0-2.564,1.113,4.607,4.607,0,0,0-.713,2.388,8.339,8.339,0,0,0,.5,3.7,2.863,2.863,0,0,0,2.286,1.917,4.05,4.05,0,0,0,3.4-.366,3.218,3.218,0,0,0,.9-1.254,6.13,6.13,0,0,0,.533-2.411,6.985,6.985,0,0,0-.873-3.535" transform="translate(-149.572 -326.95)" fill="#4d4d4d"/>
            <path id="Trazado_876221" data-name="Trazado 876221" d="M222.088,471.77a.343.343,0,0,0-.1.675c1.831.312,1.959,2.39,1.97,3.781.009,1.153-.05,4.655-2.018,4.077-.613-.181-.981.1-.368.35,2.449.994,3.422-1.651,3.5-3.478.089-2.2-.146-5.13-2.984-5.4" transform="translate(-153.324 -326.913)" fill="#333"/>
            <rect id="Rectángulo_402720" data-name="Rectángulo 402720" width="181.659" height="14.567" transform="translate(29.088 113.687)" fill="#842a2e"/>
            <rect id="Rectángulo_402721" data-name="Rectángulo 402721" width="143.242" height="14.567" transform="translate(98.066 113.687)" fill="#3a1714"/>
            <path id="Trazado_876222" data-name="Trazado 876222" d="M621.714,624.137H612.38l.5-32.148,7.907-1.464Z" transform="translate(-424.35 -409.206)" fill="#aabdd1"/>
            <path id="Trazado_876223" data-name="Trazado 876223" d="M608.135,657.694s-.935-21.088,0-21.555,10.748-.933,11.216,0,0,21.088,0,21.088Z" transform="translate(-421.121 -440.441)" fill="#333"/>
            <path id="Trazado_876224" data-name="Trazado 876224" d="M496.607,664.458s-44.283,30.8-45.685,32.663-1.4,9.332-.467,9.332,5.14,0,5.14-.467v-5.6l46.152-24.264s6.542.467,7.944,0c0,0,54.321,25.2,54.321,26.131v4.2s5.14,0,5.608-.467.467-7-.467-7.933-55.723-34.53-55.723-34.53,0-6.533-.467-7-15.421-.466-16.356.467,0,7.466,0,7.466" transform="translate(-311.693 -454.729)" fill="#4d4d4d"/>
            <path id="Trazado_876225" data-name="Trazado 876225" d="M429.31,816.732s5.141,0,5.608.467,0,4.2,0,4.666a1.629,1.629,0,0,1-.467.933s.935,3.266.467,3.266h-.935s-.935,4.666-6.543,4.666a5.608,5.608,0,0,1-5.608-4.2,1.83,1.83,0,0,1-1.869-1.867c0-1.867.935-8.4,9.346-7.933" transform="translate(-291.015 -565.94)" fill="#4d4d4d"/>
            <path id="Trazado_876226" data-name="Trazado 876226" d="M424.694,830.1a.607.607,0,0,1-.605-.566q-.016-.226-.016-.457a6.683,6.683,0,0,1,13.365,0,.607.607,0,0,1-1.215,0,5.468,5.468,0,0,0-10.936,0c0,.126,0,.251.013.375a.607.607,0,0,1-.565.646h-.041" transform="translate(-293.862 -569.89)" fill="#333"/>
            <path id="Trazado_876227" data-name="Trazado 876227" d="M826.056,816.732s-5.141,0-5.608.467,0,4.2,0,4.666a1.629,1.629,0,0,0,.467.933s-.935,3.266-.467,3.266h.935s.935,4.666,6.543,4.666a5.608,5.608,0,0,0,5.608-4.2,1.83,1.83,0,0,0,1.869-1.867c0-1.867-.935-8.4-9.346-7.933" transform="translate(-568.388 -565.94)" fill="#4d4d4d"/>
            <path id="Trazado_876228" data-name="Trazado 876228" d="M834.727,830.1h-.041a.607.607,0,0,1-.565-.646c.008-.124.013-.25.013-.375a5.468,5.468,0,0,0-10.936,0,.607.607,0,0,1-1.215,0,6.683,6.683,0,0,1,13.365,0q0,.23-.016.457a.607.607,0,0,1-.605.566" transform="translate(-569.595 -569.89)" fill="#333"/>
            <path id="Trazado_876229" data-name="Trazado 876229" d="M729.384,821.7s-4.255,0-4.642.467,0,4.2,0,4.666a1.75,1.75,0,0,0,.387.933s-.774,3.266-.387,3.266h.774a5.712,5.712,0,0,0,5.416,4.666c5.785.185,5.785-4.262,5.785-4.262s2.024.653,2.024-1.213,1.62-8.894-9.357-8.524" transform="translate(-502.093 -569.387)" fill="#4d4d4d"/>
            <path id="Trazado_876230" data-name="Trazado 876230" d="M736.326,835.046h-.035a.607.607,0,0,1-.572-.64q.011-.189.01-.382c0-3.011-1.984-5.46-4.421-5.46s-4.422,2.449-4.422,5.46a.607.607,0,0,1-1.215,0c0-3.679,2.529-6.673,5.637-6.673s5.636,2.993,5.636,6.673c0,.151,0,.3-.012.45a.607.607,0,0,1-.606.572" transform="translate(-502.856 -573.315)" fill="#333"/>
            <path id="Trazado_876231" data-name="Trazado 876231" d="M627.219,683.588s29.824,34.364,30.229,35.981.786,7.459,0,7.277-5.668.808-5.668.808,0-6.064-.4-6.873c-.653-1.3-31.849-26.278-31.849-26.278Z" transform="translate(-429.302 -473.694)" fill="#4d4d4d"/>
            <path id="Trazado_876232" data-name="Trazado 876232" d="M680.908,722.7a.616.616,0,0,1-.459-.2l-19.042-22.859a.618.618,0,0,1,.918-.826l19.042,22.859a.617.617,0,0,1-.459,1.03" transform="translate(-458.213 -484.103)" fill="#ffe2c0"/>
            <path id="Trazado_876233" data-name="Trazado 876233" d="M593.34,569.926s3.6,9.153,6.2,10.453,9.1,0,9.1,0,5.2-6.176,7.151-11.052-22.451.6-22.451.6" transform="translate(-411.156 -393.115)" fill="#333"/>
            <path id="Trazado_876234" data-name="Trazado 876234" d="M581.372,95.123a39.143,39.143,0,0,0-11.7,19.165s-6.038-13.918-10.467-18.869a.759.759,0,0,1-.142-.208l-.069.057c-.529.419-3.979,3.08-5.911,2.519a2.584,2.584,0,0,1-1.176-1.1c-.06-.084-.116-.173-.173-.266a29.912,29.912,0,0,1-2.6-5.975,47.963,47.963,0,0,1-1.849-5.649,22.039,22.039,0,0,1-.6-2.676,22.519,22.519,0,0,1-.037-2.259,42.861,42.861,0,0,0-.224-4.752,6.913,6.913,0,0,1,.011-1.984,29.327,29.327,0,0,1,1.382-6.31,10.564,10.564,0,0,1,2.281-3.534,4.19,4.19,0,0,1,1.637-1.163,6.552,6.552,0,0,1,2.2-.092A25.416,25.416,0,0,1,561.6,64.1a89.135,89.135,0,0,1,13.443,6.984c.364.225.729.451,1.088.684,0,0,.443,14.451.358,16.889-.147,4.245,4.881,6.464,4.881,6.464" transform="translate(-378.597 -42.952)" fill="#eb9367"/>
            <path id="Trazado_876235" data-name="Trazado 876235" d="M556.633,20.338c-.337.6-1.353,5.8.131,8.5s3.012,2.925,3.842,4.758,1.092,3.274,1.659,3.666c.322.223,1.052.049,1.407.026a22.244,22.244,0,0,1,2.722-.065,4.354,4.354,0,0,1,2.659.755,12.039,12.039,0,0,1,2.051,2.592,32.389,32.389,0,0,0,3.934,4.763c1.19,1.189,2.8,2.493,4.558,2.667,3.74.369,6.162-2.216,7.965-5.168a3.311,3.311,0,0,0,.679-1.951c-.04-.423-.243-.821-.256-1.246a3.4,3.4,0,0,1,1.026-2,8.993,8.993,0,0,0,1.826-5.015,12.37,12.37,0,0,0-.476-4.856,26.261,26.261,0,0,0-4.348-7.217s9.385-.219,8.424-5.5S590.026,9.9,590.026,9.9s1.789-3.8.654-4.583a3.811,3.811,0,0,0-2.576-.524s-4.54-8.6-9.429-2.749-2.007,10.782-2.007,10.782-12.921-5.186-20.035,7.517" transform="translate(-385.268 0)" fill="#2e3233"/>
            <path id="Trazado_876236" data-name="Trazado 876236" d="M630.275,49.57a9.23,9.23,0,0,1-8.045-6.786c-.248-1.112-1.111-.263-1.03.882.507,7.151,5.44,9.725,8.906,7.8,1.069-.6,1.389-1.815.169-1.892" transform="translate(-430.458 -29.287)" fill="#ed4450"/>
            <path id="Trazado_876237" data-name="Trazado 876237" d="M552.051,110.97c-4.424-.126-8.871.024-13.3.059a.492.492,0,0,0-.488.593l.383,3.244a13.481,13.481,0,0,0,.379,3.034c.359.907,1.573.708,2.543.5a4.738,4.738,0,0,1-.238-.939,2.112,2.112,0,0,1-1.16.011c-.367-.164-.286-.315-.336-.742q-.069-.579-.137-1.158-.212-1.789-.424-3.579c4.243-.027,8.505.032,12.743-.157.549-.025.6-.849.032-.865" transform="translate(-372.99 -76.862)" fill="#2e3233"/>
            <path id="Trazado_876238" data-name="Trazado 876238" d="M581.86,108.488c-2.418-2.992-5.141,1.448-5.119,3.768,0,.023.005.042.007.064a.856.856,0,0,0,.01.654c.291.716.6,1.424.942,2.117a7.993,7.993,0,0,0,.953,1.661q-.023.209-.047.419a.867.867,0,0,0,.643.973,1,1,0,0,0,1.6.071c1.936-2.394,3.166-7.06,1.011-9.726" transform="translate(-399.617 -74.483)" fill="#eb9367"/>
            <path id="Trazado_876239" data-name="Trazado 876239" d="M591.265,123.242a6.987,6.987,0,0,1-1.892,5.05c-.353.454.569.995.932.581a8.364,8.364,0,0,0,1.833-6.286c-.05-.507-.893.138-.873.655" transform="translate(-408.352 -84.819)" fill="#da7851"/>
            <path id="Trazado_876240" data-name="Trazado 876240" d="M572.084,165.076a1.789,1.789,0,0,0,.163.381.479.479,0,0,1-.106.659,8.1,8.1,0,0,1-.865.459,8.827,8.827,0,0,1-5.266.913,2.523,2.523,0,0,1-1.951-1.34c-.06-.083-.116-.172-.173-.266a.685.685,0,0,1,.607.009,2.806,2.806,0,0,0,.709.154,7.431,7.431,0,0,0,4.3-1.434c.959-.592,1.845-1.293,2.754-1.953a6.081,6.081,0,0,1,.708-.442,2.318,2.318,0,0,1-.581,1.637,1.557,1.557,0,0,0-.306,1.2c0,.01,0,.019.005.029" transform="translate(-390.746 -112.407)" fill="#e08257"/>
            <path id="Trazado_876241" data-name="Trazado 876241" d="M545.871,98.008l-.081-.12c-.2-.3-.849-.948-1.252-.714a.913.913,0,0,0-.346.945.758.758,0,0,0,.194.271l1.169,1.2a1.2,1.2,0,0,0,.848.482.4.4,0,0,0,.37-.256.508.508,0,0,0-.018-.267,5.493,5.493,0,0,0-.884-1.544" transform="translate(-377.078 -67.302)" fill="#1a1a1a"/>
            <path id="Trazado_876242" data-name="Trazado 876242" d="M558.273,172.414a17.078,17.078,0,0,1,8.088-3.514s3.142-4.57,10.854-8.283,10.854-2.571,11.425-2,.571,4.856.571,4.856,8.854,4,11.425,5.141,4.856,4.285,6.284,12.853a35.439,35.439,0,0,1-1.428,16.281s2.571,2.285,2.857,4.285-2.285,5.427-2,6.284,3.713,6.284,4.57,11.139-8,17.709-8,17.709l-37.988-.571s-2.285-6.855-2.285-10.282-.286-4-.571-4.57-5.712-8.283-6-18.566,2.194-30.762,2.194-30.762" transform="translate(-385.321 -109.482)" fill="#b6ad78"/>
            <g id="Grupo_1101065" data-name="Grupo 1101065" transform="translate(207.776 64.781)" opacity="0.5">
              <g id="Grupo_1101064" data-name="Grupo 1101064">
                <g id="Grupo_1101063" data-name="Grupo 1101063" clip-path="url(#clip-path-5)">
                  <path id="Trazado_876243" data-name="Trazado 876243" d="M683.991,250.537c-.578-1.567-1.377-3.044-1.919-4.627a20.99,20.99,0,0,1-.984-4.823c-.307-3.243-.115-6.508-.2-9.76a69.926,69.926,0,0,0-.873-9.542,52.192,52.192,0,0,0-2.9-10.663c-.1-.248-.5-.145-.407.112a61.733,61.733,0,0,1,3.588,19.168c.119,3.174-.052,6.355.138,9.526a26.313,26.313,0,0,0,.6,4.4,24.719,24.719,0,0,0,1.606,4.427,23.326,23.326,0,0,1,1.737,5.353,30.733,30.733,0,0,1,.254,5.691c0,.261.414.333.467.063a18.22,18.22,0,0,0-1.105-9.329" transform="translate(-676.692 -210.982)" fill="#9a8e53"/>
                </g>
              </g>
            </g>
            <path id="Trazado_876244" data-name="Trazado 876244" d="M608.232,177.812A70.1,70.1,0,0,0,589.771,182c-.542.2-.327,1.061.243.882a115.969,115.969,0,0,1,18.916-4.541c.689-.091.028-.594-.7-.534" transform="translate(-408.467 -123.212)" fill="#9a8e53"/>
            <path id="Trazado_876245" data-name="Trazado 876245" d="M568.33,299.742a11.841,11.841,0,0,0,1.162-2.051c-2.307,1.56-6.105-.446-8.569.857a23.668,23.668,0,0,0-4.471,3.155,34.97,34.97,0,0,0,2.118,9.252,58.759,58.759,0,0,0,9.76-11.212" transform="translate(-385.595 -206.282)" fill="#9a8e53"/>
            <path id="Trazado_876246" data-name="Trazado 876246" d="M369.292,225.142a16.588,16.588,0,0,1,2.285,3.428c.571,1.428,0,8,0,8l-4.285-4.284Z" transform="translate(-254.516 -156.013)" fill="#eb9367"/>
            <path id="Trazado_876247" data-name="Trazado 876247" d="M368.223,208.041s1.143-6.284,1.714-7.426,1.428-.286,1.714.286-1.143,10.854-1.143,10.854Z" transform="translate(-255.161 -138.627)" fill="#4d4d4d"/>
            <path id="Trazado_876248" data-name="Trazado 876248" d="M353.56,253.678s-8-7.426-16.852-21.708c0,0-5.427-3.142-6.855-7.141s.571-4.57.571-4.57.286-2.571,1.428-2.856a7.994,7.994,0,0,1,1.714-.286,2.317,2.317,0,0,1,2.285-2.571s-.722-2.134.571-3.428c1.714-1.714,4.284,2,5.141,3.428s3.428,6.855,3.428,6.855l.286,4.285s4,6,7.712,9.14a52.214,52.214,0,0,0,8.855,5.713l-1.714,6.57Z" transform="translate(-228.216 -145.989)" fill="#eb9367"/>
            <path id="Trazado_876249" data-name="Trazado 876249" d="M374.865,203.108c-.348.528-1.009.2-1.034-.365a.229.229,0,0,0-.457,0,1.088,1.088,0,0,0,.757,1.12c.456.138.885-.241,1.088-.679.137-.295-.171-.352-.354-.076" transform="translate(-258.729 -140.338)" fill="#333"/>
            <path id="Trazado_876250" data-name="Trazado 876250" d="M375.68,200.4a.3.3,0,0,0-.357.279.226.226,0,0,0,0,.26c.157.261.632.581.888.259.281-.353-.2-.746-.527-.8" transform="translate(-260.051 -138.864)" fill="#333"/>
            <path id="Trazado_876251" data-name="Trazado 876251" d="M374.657,233.178a18.706,18.706,0,0,0-1.237-2.1c-.327-.518-1.029-.693-.72-.158.4.7.662,2.081,1.113,2.753a.489.489,0,0,0,.844-.494" transform="translate(-258.21 -159.789)" fill="#e08257"/>
            <path id="Trazado_876252" data-name="Trazado 876252" d="M417.312,230.106a11.789,11.789,0,0,0-9.426-.286c-5.427,2-6.284,12.567-5.427,14.852s2.285,3.713,4.284,3.428c0,0-.571,2.571,7.426,2.285s13.424-.571,16.566-5.427c0,0,6,0,10-3.428s8.569-6.855,11.425-8,14.567-6.855,16.281-14.852-1.428-23.136-10.854-22.85a16.865,16.865,0,0,0-9.425,6.284c-3.713,5.141-5.713,10-7.427,10.854a4.077,4.077,0,0,0-2,2.856s-3.428.571-4.856,3.142-6.57,6.284-8,6.855-7.712,3.428-8.569,4.285" transform="translate(-278.687 -135.699)" fill="#b6ad78"/>
            <path id="Trazado_876253" data-name="Trazado 876253" d="M427.72,307.545c-3.488,1.747-6.66,4.2-8.208,7.9A10.58,10.58,0,0,0,420.6,325.9c.717.929,2.437.856,1.684-.073a10.619,10.619,0,0,1-1.024-10.481,18.755,18.755,0,0,1,7.307-7.514c.732-.384-.119-.651-.851-.284" transform="translate(-290.088 -212.993)" fill="#9a8e53"/>
            <g id="Grupo_1101068" data-name="Grupo 1101068" transform="translate(179.082 60.775)" opacity="0.5">
              <g id="Grupo_1101067" data-name="Grupo 1101067">
                <g id="Grupo_1101066" data-name="Grupo 1101066" clip-path="url(#clip-path-6)">
                  <path id="Trazado_876254" data-name="Trazado 876254" d="M589.166,200.793a6.948,6.948,0,0,0-2.4-2.065,10.656,10.656,0,0,0-3.291-.794c-.263-.034-.328.426-.063.467a8.814,8.814,0,0,1,3.7,1.147,9.172,9.172,0,0,1,2.51,2.894,17.775,17.775,0,0,1,2.391,7.149c.632,5.317-.88,10.492-2.884,15.359-.12.291.385.506.512.216,3.3-7.567,5.008-17.337-.476-24.373" transform="translate(-583.24 -197.932)" fill="#9a8e53"/>
                </g>
              </g>
            </g>
            <path id="Trazado_876255" data-name="Trazado 876255" d="M547.237,352.64c.712-6.31-31.633-3.766-34.915-2.842-15.971,4.5-34.02,9.4-47.26,19.868-22.4,17.717-32.505,37.776-32.505,37.776s-2.635,3.807,0,7.614,80.041,5.923,88.73,2.928c18.952-6.532,25.806-61.943,25.956-65.318a.134.134,0,0,1,0-.027" transform="translate(-298.929 -241.497)" fill="#ed4450"/>
            <g id="Grupo_1101071" data-name="Grupo 1101071" transform="translate(188.497 109.895)" opacity="0.5">
              <g id="Grupo_1101070" data-name="Grupo 1101070">
                <g id="Grupo_1101069" data-name="Grupo 1101069" clip-path="url(#clip-path-7)">
                  <path id="Trazado_876256" data-name="Trazado 876256" d="M639.264,358.178c-.219-.515-.917-.215-.872.287.236,2.648-.61,4.844-1.594,7.247q-1.292,3.153-2.346,6.394c-1.468,4.49-2.65,9.068-3.771,13.657-2.2,9.007-4.129,18.113-7.267,26.851-1.643,4.573-3.476,11.142-9.006,11.836-.8.1-.593.567.229.584,4.295.092,6.843-3.551,8.395-7.105a106.869,106.869,0,0,0,4.909-14.512c2.711-9.881,4.627-19.97,7.654-29.766.85-2.751,1.807-5.463,2.831-8.153.873-2.291,1.861-4.92.838-7.319" transform="translate(-613.902 -357.91)" fill="#c02328"/>
                </g>
              </g>
            </g>
          </g>
        </g>
      </g>
    </g>
    <g id="Grupo_1101090" data-name="Grupo 1101090" transform="translate(-10916.754 -6229)">
      <g id="Grupo_1101080" data-name="Grupo 1101080" transform="translate(0 0)" clip-path="url(#clip-path-8)">
        <path id="Trazado_876260" data-name="Trazado 876260" d="M171.243,19.056,206.65,44.026,242.074,19.08" transform="translate(42.463 4.725)" fill="none" stroke="#31a8ff" stroke-linecap="round" stroke-linejoin="round" stroke-width="2"/>
        <path id="Trazado_876261" data-name="Trazado 876261" d="M57.744,19.019l35.4,24.971,35.419-24.947,35.4,24.971" transform="translate(14.319 4.716)" fill="none" stroke="#31a8ff" stroke-linecap="round" stroke-linejoin="round" stroke-width="2"/>
        <line id="Línea_666" data-name="Línea 666" x2="35.401" y2="24.971" transform="translate(1.248 23.711)" fill="none" stroke="#31a8ff" stroke-linecap="round" stroke-linejoin="round" stroke-width="2"/>
        <path id="Trazado_876262" data-name="Trazado 876262" d="M142.867,26,178.286,1.056l35.407,24.972L249.118,1.079" transform="translate(35.427 0.262)" fill="none" stroke="#5b2ccf" stroke-linecap="round" stroke-linejoin="round" stroke-width="2"/>
        <path id="Trazado_876263" data-name="Trazado 876263" d="M1.006,1l35.4,24.971L71.821,1.024l35.4,24.971L142.641,1.046" transform="translate(0.249 0.248)" fill="none" stroke="#5b2ccf" stroke-linecap="round" stroke-linejoin="round" stroke-width="2"/>
      </g>
    </g>
  </g>
</svg>
