<svg xmlns="http://www.w3.org/2000/svg" width="85.051" height="103" viewBox="0 0 85.051 103">
  <g id="Grupo_1100419" data-name="Grupo 1100419" transform="translate(-180 -390)">
    <g id="Grupo_1100417" data-name="Grupo 1100417" transform="translate(7944.043 15138.876)">
      <circle id="Elipse_11545" data-name="Elipse 11545" cx="35" cy="35" r="35" transform="translate(-7749.993 -14716.876)" fill="none" stroke="#bdaaeb" stroke-linecap="round" stroke-linejoin="round" stroke-width="2"/>
      <circle id="Elipse_11546" data-name="Elipse 11546" cx="16.886" cy="16.886" r="16.886" transform="translate(-7731.878 -14698.762)" fill="none" stroke="#bdaaeb" stroke-linecap="round" stroke-linejoin="round" stroke-width="2"/>
    </g>
    <g id="Grupo_1100418" data-name="Grupo 1100418" transform="translate(180 390.001)">
      <path id="Trazado_875016" data-name="Trazado 875016" d="M90.692,24V76.815a1.68,1.68,0,0,1-1.681,1.68h-46.4a1.68,1.68,0,0,1-1.68-1.68V9.18a1.68,1.68,0,0,1,1.68-1.68H74.193Zm0,0" transform="translate(-35.081 -6.43)" fill="#006be0"/>
      <path id="Trazado_875017" data-name="Trazado 875017" d="M263.143,24V76.814a1.68,1.68,0,0,1-1.68,1.68h-4.526a1.681,1.681,0,0,0,1.68-1.68V24l-16.5-16.5h4.527Zm0,0" transform="translate(-207.532 -6.43)" fill="#003fcc"/>
      <path id="Trazado_875018" data-name="Trazado 875018" d="M275.527,23.956,290.308,24l-16.5-16.5.043,14.781a1.681,1.681,0,0,0,1.675,1.676Zm0,0" transform="translate(-234.697 -6.429)" fill="#64bdff"/>
      <path id="Trazado_875019" data-name="Trazado 875019" d="M65.135,201.141H9.18a1.68,1.68,0,0,1-1.68-1.68V180.88a1.68,1.68,0,0,1,1.68-1.68H65.135a1.68,1.68,0,0,1,1.68,1.68v18.581A1.68,1.68,0,0,1,65.135,201.141Zm0,0" transform="translate(-6.429 -153.603)" fill="#64bdff"/>
      <path id="Trazado_875020" data-name="Trazado 875020" d="M387.792,180.879v18.581a1.68,1.68,0,0,1-1.681,1.68h-4.143a1.68,1.68,0,0,0,1.681-1.68V180.879a1.68,1.68,0,0,0-1.681-1.68h4.143A1.68,1.68,0,0,1,387.792,180.879Zm0,0" transform="translate(-327.406 -153.602)" fill="#43a3f9"/>
      <path id="Trazado_875021" data-name="Trazado 875021" d="M107.107,48.476,104.3,45.67l6.1-6.1a1.985,1.985,0,1,1,2.807,2.807Zm0,0" transform="translate(-89.402 -33.418)" fill="#e3f4ff"/>
      <path id="Trazado_875022" data-name="Trazado 875022" d="M80.353,88.278c-1.214,1.214-5.065,3.1-6.279,1.884s.67-5.065,1.883-6.279a3.108,3.108,0,1,1,4.4,4.4Zm0,0" transform="translate(-63.157 -71.121)" fill="#fdb659"/>
      <path id="Trazado_875023" data-name="Trazado 875023" d="M105.115,373.425H84.331a1.714,1.714,0,0,1,0-3.429h20.784a1.714,1.714,0,0,1,0,3.429Zm0,0" transform="translate(-70.816 -317.145)" fill="#e3f4ff"/>
      <path id="Trazado_875024" data-name="Trazado 875024" d="M58.706,24.526H56.683s-.005-6.767-.011-6.815a1.069,1.069,0,0,0-.3-.9L39.87.313a1.071,1.071,0,0,0-.9-.3C38.925,0,19.441,0,19.441,0a1.071,1.071,0,1,0,0,2.143h18.6l.04,13.713A2.758,2.758,0,0,0,40.828,18.6l13.713.041v5.887H6.917V2.75a.609.609,0,0,1,.609-.609h7.249a1.071,1.071,0,1,0,0-2.143H7.526A2.755,2.755,0,0,0,4.775,2.75V24.525H2.752A2.755,2.755,0,0,0,0,27.277V45.858A2.755,2.755,0,0,0,2.752,48.61H4.775V70.385a2.755,2.755,0,0,0,2.751,2.752h32.1a1.071,1.071,0,0,0,0-2.143H7.526a.61.61,0,0,1-.609-.609V48.609h7a1.071,1.071,0,0,0,0-2.143H2.752a.61.61,0,0,1-.609-.609V27.277a.61.61,0,0,1,.609-.609H58.706a.609.609,0,0,1,.609.609V45.858a.609.609,0,0,1-.609.609H18.584a1.071,1.071,0,1,0,0,2.143H54.54V70.385a.609.609,0,0,1-.609.609H44.295a1.071,1.071,0,1,0,0,2.143h9.636a2.755,2.755,0,0,0,2.751-2.751V48.609h2.023a2.755,2.755,0,0,0,2.751-2.751V27.277a2.755,2.755,0,0,0-2.751-2.751Zm-17.872-8.07a.61.61,0,0,1-.607-.607L40.192,3.664,53.018,16.492Zm0,0"/>
      <path id="Trazado_875025" data-name="Trazado 875025" d="M157.116,220.129v-4.214h3.148a3.426,3.426,0,0,0,3.423-3.423v-1.725a3.427,3.427,0,0,0-3.423-3.423h-3.3a2,2,0,0,0-1.994,1.994v10.79a1.071,1.071,0,0,0,2.143,0Zm0-10.642h3.148a1.281,1.281,0,0,1,1.28,1.28v1.725a1.281,1.281,0,0,1-1.28,1.28h-3.148Zm0,0" transform="translate(-132.836 -177.727)"/>
      <path id="Trazado_875026" data-name="Trazado 875026" d="M228.156,234.724h-2.612a1.071,1.071,0,0,0,0,2.143h2.612a3.572,3.572,0,1,0,0-7.145H227.6a.985.985,0,0,1,0-1.97h3.057a1.071,1.071,0,1,0,0-2.143H227.6a3.128,3.128,0,0,0,0,6.255h.556a1.43,1.43,0,1,1,0,2.859Zm0,0" transform="translate(-192.408 -193.383)"/>
      <path id="Trazado_875027" data-name="Trazado 875027" d="M296.259,362.5h-6.571a1.071,1.071,0,0,0,0,2.143h6.571a1.071,1.071,0,1,0,0-2.143Zm0,0" transform="translate(-247.389 -310.719)"/>
      <path id="Trazado_875028" data-name="Trazado 875028" d="M315.974,386.5h-3.285a1.071,1.071,0,0,0,0,2.143h3.285a1.071,1.071,0,1,0,0-2.143Zm0,0" transform="translate(-267.104 -331.291)"/>
      <path id="Trazado_875029" data-name="Trazado 875029" d="M83.661,463.995h36a1.071,1.071,0,0,0,0-2.143h-36a1.071,1.071,0,0,0,0,2.143Zm0,0" transform="translate(-70.792 -395.879)"/>
      <path id="Trazado_875030" data-name="Trazado 875030" d="M351.188,238.268h3a1.071,1.071,0,1,0,0-2.143h-3a1.071,1.071,0,1,0,0,2.143Zm0,0" transform="translate(-300.104 -202.396)"/>
      <path id="Trazado_875031" data-name="Trazado 875031" d="M351.188,263.018h3a1.071,1.071,0,1,0,0-2.143h-3a1.071,1.071,0,1,0,0,2.143Zm0,0" transform="translate(-300.104 -223.611)"/>
      <path id="Trazado_875032" data-name="Trazado 875032" d="M48.188,236.125h-3a1.071,1.071,0,1,0,0,2.143h3a1.071,1.071,0,1,0,0-2.143Zm0,0" transform="translate(-37.815 -202.396)"/>
      <path id="Trazado_875033" data-name="Trazado 875033" d="M48.188,260.875h-3a1.071,1.071,0,1,0,0,2.143h3a1.071,1.071,0,1,0,0-2.143Zm0,0" transform="translate(-37.815 -223.611)"/>
      <path id="Trazado_875034" data-name="Trazado 875034" d="M68.81,39c-1.244,1.244-3.823,5.855-1.884,7.794a2.626,2.626,0,0,0,1.927.7,10.36,10.36,0,0,0,5.867-2.582h0a4.162,4.162,0,0,0,1.219-2.807l5.394-5.394a3.056,3.056,0,0,0-4.322-4.322l-5.394,5.394A4.164,4.164,0,0,0,68.81,39Zm4.4,4.4A8.839,8.839,0,0,1,70.45,45c-1.272.473-1.917.369-2.009.278s-.195-.737.278-2.009a8.839,8.839,0,0,1,1.605-2.755,2.037,2.037,0,0,1,2.88,2.88ZM78.526,33.9A.913.913,0,0,1,79.818,35.2l-4.524,4.524A4.145,4.145,0,0,0,74,38.428Zm0,0" transform="translate(-56.767 -26.997)"/>
      <path id="Trazado_875035" data-name="Trazado 875035" d="M98.687,368.071a2.785,2.785,0,0,0,0-5.571H77.9a2.785,2.785,0,1,0,0,5.571ZM77.26,365.285a.644.644,0,0,1,.643-.643H98.687a.643.643,0,1,1,0,1.286H77.9A.644.644,0,0,1,77.26,365.285Zm0,0" transform="translate(-64.387 -310.719)"/>
    </g>
  </g>
</svg>
